<svg width="32" height="32" viewBox="0 0 32 32" fill="none" xmlns="http://www.w3.org/2000/svg">
<path d="M16 31.999C24.8366 31.999 32 24.8356 32 15.999C32 7.16247 24.8366 -0.000976562 16 -0.000976562C7.16344 -0.000976562 0 7.16247 0 15.999C0 24.8356 7.16344 31.999 16 31.999Z" fill="#FF5722"/>
<g clip-path="url(#clip0)">
<path d="M23.7708 12.7566C23.1391 12.7566 22.5833 13.0225 22.1741 13.4366C20.67 12.38 18.6416 11.7 16.3941 11.6275L17.5616 6.28913L21.2791 7.13579C21.2791 8.05913 22.0208 8.81329 22.9308 8.81329C23.8583 8.81329 24.6041 8.03913 24.6041 7.11496C24.6041 6.19079 23.8633 5.41663 22.9316 5.41663C22.2825 5.41663 21.7225 5.81413 21.4433 6.35746L17.3375 5.43413C17.1308 5.37829 16.9283 5.52829 16.8733 5.73829L15.5916 11.6233C13.3616 11.7175 11.355 12.3966 9.8458 13.4541C9.43664 13.0225 8.85914 12.7566 8.22747 12.7566C5.88414 12.7566 5.11664 15.9475 7.26247 17.0383C7.18664 17.3758 7.15247 17.7358 7.15247 18.095C7.15247 21.6791 11.1316 24.5833 16.0175 24.5833C20.9241 24.5833 24.9033 21.6791 24.9033 18.095C24.9033 17.7358 24.8658 17.3591 24.7733 17.0208C26.8758 15.9258 26.1016 12.7583 23.7708 12.7566ZM10.6675 17.265C10.6675 16.3241 11.4091 15.5666 12.3408 15.5666C13.2508 15.5666 13.9933 16.3191 13.9933 17.265C13.9933 18.1891 13.2516 18.9425 12.3408 18.9425C11.4133 18.9466 10.6675 18.1891 10.6675 17.265ZM19.7 21.2633C18.1658 22.82 13.8366 22.82 12.3016 21.2633C12.1325 21.1133 12.1325 20.8483 12.3016 20.6775C12.4491 20.5275 12.7108 20.5275 12.8583 20.6775C14.03 21.8966 17.9166 21.9175 19.1391 20.6775C19.2866 20.5275 19.5483 20.5275 19.6958 20.6775C19.8683 20.8491 19.8683 21.1141 19.7 21.2633ZM19.6658 18.9458C18.7558 18.9458 18.0141 18.1933 18.0141 17.27C18.0141 16.3291 18.7558 15.5716 19.6658 15.5716C20.5933 15.5716 21.3391 16.3241 21.3391 17.27C21.335 18.1891 20.5933 18.9458 19.6658 18.9458Z" fill="white"/>
</g>
<defs>
<clipPath id="clip0">
<rect width="20" height="20" fill="white" transform="translate(6 5)"/>
</clipPath>
</defs>
</svg>
