<svg width="48" height="48" viewBox="0 0 48 48" fill="none" xmlns="http://www.w3.org/2000/svg">
<path d="M18.9381 33.6377C18.7568 33.6377 18.5741 33.5753 18.4251 33.4484L13.2972 29.0819C13.1203 28.9311 13.0186 28.7109 13.0186 28.4783C13.0186 28.2461 13.1207 28.0259 13.2972 27.8751L18.4251 23.5087C18.7581 23.2248 19.2582 23.265 19.5421 23.598C19.8256 23.9314 19.7858 24.4316 19.4524 24.715L15.0333 28.4783L19.4524 32.2416C19.7858 32.5255 19.8256 33.0256 19.5421 33.3586C19.3852 33.543 19.1623 33.6377 18.9381 33.6377Z" fill="#D4B982"/>
<path d="M29.0624 33.6377C28.8382 33.6377 28.6153 33.543 28.4587 33.3586C28.1748 33.0256 28.2151 32.5255 28.5481 32.2416L32.9672 28.4783L28.5481 24.715C28.2151 24.4316 28.1748 23.9314 28.4587 23.598C28.7422 23.265 29.2428 23.2248 29.5753 23.5087L34.7033 27.8751C34.8802 28.0259 34.9819 28.2461 34.9819 28.4783C34.9819 28.7109 34.8802 28.9311 34.7033 29.0819L29.5753 33.4484C29.4263 33.5753 29.2437 33.6377 29.0624 33.6377Z" fill="#D4B982"/>
<path d="M22.1843 36.9128C22.1299 36.9128 22.0751 36.907 22.0198 36.8955C21.5918 36.8053 21.3176 36.3848 21.4078 35.9567L24.6037 20.7829C24.6939 20.3548 25.114 20.0806 25.5425 20.1709C25.9706 20.2611 26.2448 20.6812 26.1545 21.1097L22.9586 36.2835C22.8799 36.6567 22.5509 36.9128 22.1843 36.9128Z" fill="#D4B982"/>
<path d="M42.6792 45.1796H5.32076C2.38709 45.1796 0 42.7929 0 39.8588V8.15096C0 5.21729 2.38709 2.8302 5.32076 2.8302H42.6792C45.6129 2.8302 48 5.21729 48 8.15096V39.8588C48 42.7929 45.6129 45.1796 42.6792 45.1796ZM5.32076 4.41511C3.26091 4.41511 1.58491 6.09111 1.58491 8.15096V39.8588C1.58491 41.9186 3.26091 43.5947 5.32076 43.5947H42.6792C44.7391 43.5947 46.4151 41.9186 46.4151 39.8588V8.15096C46.4151 6.09111 44.7391 4.41511 42.6792 4.41511H5.32076Z" fill="#D4B982"/>
<path d="M47.2075 15.5196H0.792453C0.354658 15.5196 0 15.1649 0 14.7271C0 14.2898 0.354658 13.9347 0.792453 13.9347H47.2075C47.6453 13.9347 48 14.2898 48 14.7271C48 15.1649 47.6453 15.5196 47.2075 15.5196Z" fill="#D4B982"/>
<path d="M13.54 11.7275C12.1577 11.7275 11.0322 10.6021 11.0322 9.21973C11.0322 7.83691 12.1577 6.71191 13.54 6.71191C14.9229 6.71191 16.0479 7.83691 16.0479 9.21973C16.0479 10.6021 14.9229 11.7275 13.54 11.7275ZM13.54 8.29682C13.0315 8.29682 12.6171 8.71073 12.6171 9.21973C12.6171 9.72872 13.0315 10.1426 13.54 10.1426C14.049 10.1426 14.4629 9.72872 14.4629 9.21973C14.4629 8.71073 14.049 8.29682 13.54 8.29682Z" fill="#D4B982"/>
<path d="M5.83496 11.7032C4.45215 11.7032 3.32715 10.5782 3.32715 9.19543C3.32715 7.81262 4.45215 6.68762 5.83496 6.68762C7.21777 6.68762 8.34277 7.81262 8.34277 9.19543C8.34277 10.5782 7.21777 11.7032 5.83496 11.7032ZM5.83496 8.27253C5.32641 8.27253 4.91205 8.68689 4.91205 9.19543C4.91205 9.70443 5.32641 10.1183 5.83496 10.1183C6.34395 10.1183 6.75787 9.70443 6.75787 9.19543C6.75787 8.68689 6.34395 8.27253 5.83496 8.27253Z" fill="#D4B982"/>
<path d="M21.2447 11.7515C19.8623 11.7515 18.7373 10.6265 18.7373 9.2437C18.7373 7.86133 19.8623 6.73633 21.2447 6.73633C22.6275 6.73633 23.7525 7.86133 23.7525 9.2437C23.7525 10.6265 22.6275 11.7515 21.2447 11.7515ZM21.2447 8.32079C20.7361 8.32079 20.3222 8.73471 20.3222 9.2437C20.3222 9.75269 20.7361 10.1666 21.2447 10.1666C21.7537 10.1666 22.1676 9.75269 22.1676 9.2437C22.1676 8.73471 21.7537 8.32079 21.2447 8.32079Z" fill="#D4B982"/>
</svg>
