<svg width="48" height="48" viewBox="0 0 48 48" fill="none" xmlns="http://www.w3.org/2000/svg">
<g clip-path="url(#clip0)">
<path d="M23.5331 5.72217C23.0156 5.72217 22.5957 6.14217 22.5957 6.65957C22.5957 7.17698 23.0157 7.59698 23.5331 7.59698C24.0506 7.59698 24.4705 7.17698 24.4705 6.65957C24.4705 6.14217 24.0506 5.72217 23.5331 5.72217Z" fill="#D4B982"/>
<path d="M25.4086 16.9712H21.659C21.2554 16.9712 20.8973 17.2293 20.7697 17.6121L19.7841 20.5687L18.7986 17.6122C18.671 17.2293 18.3127 16.9713 17.9093 16.9713H16.7664L15.0691 10.1819C14.9649 9.76461 14.5899 9.47192 14.1598 9.47192C13.7296 9.47192 13.3546 9.76471 13.2504 10.1819L11.5531 16.9713H8.53506C8.01737 16.9713 7.59766 17.3911 7.59766 17.9087C7.59766 18.4263 8.01747 18.8461 8.53506 18.8461H12.2847C12.7149 18.8461 13.0898 18.5533 13.1941 18.1361L14.1595 14.2745L15.1249 18.1361C15.2292 18.5534 15.6042 18.8461 16.0343 18.8461H17.2334L18.8946 23.8295C19.0222 24.2124 19.3805 24.4705 19.7839 24.4705C20.1874 24.4705 20.5456 24.2123 20.6732 23.8295L22.3344 18.8461H25.4083C25.926 18.8461 26.3457 18.4263 26.3457 17.9087C26.346 17.391 25.9262 16.9712 25.4086 16.9712Z" fill="#D4B982"/>
<path d="M46.4505 39.8312C45.2377 38.7233 32.9174 27.4929 31.177 25.9064C35.3368 19.3037 34.4324 10.5694 28.809 4.94591C22.2146 -1.64826 11.541 -1.64901 4.94591 4.94591C-1.64826 11.5403 -1.64901 22.2139 4.94591 28.8091C10.5665 34.4295 19.2898 35.3325 25.8867 31.1891C25.9007 31.2044 39.9902 46.6183 40.0014 46.6293C41.8322 48.4571 44.7946 48.4581 46.6252 46.6259C48.5718 44.6807 48.393 41.5552 46.4505 39.8312ZM6.27172 27.4832C0.41039 21.622 0.409358 12.1337 6.27172 6.27163C12.133 0.410296 21.6212 0.409171 27.4833 6.27163C33.3811 12.1693 33.3702 21.6506 27.5105 27.5104C21.6466 33.3752 12.1567 33.3681 6.27172 27.4832ZM27.5407 30.1927C27.531 30.1821 27.521 30.1717 27.5108 30.1614L27.4376 30.0882C27.9244 29.6989 28.3923 29.2801 28.8364 28.8361C29.2775 28.3951 29.6939 27.9293 30.082 27.4447L32.2385 29.4109L29.4084 32.241L27.5407 30.1927ZM45.2995 45.3001C44.14 46.4603 42.2544 46.369 41.2211 45.1922L30.673 33.6278L33.6255 30.6755L45.1925 41.2211C46.4526 42.3868 46.3844 44.2161 45.2995 45.3001Z" fill="#D4B982"/>
<path d="M27.0445 8.57053C26.7155 8.17087 26.1248 8.11331 25.725 8.44237C25.3251 8.77144 25.2678 9.36215 25.5968 9.7619C29.2928 14.2527 28.9757 20.7428 24.859 24.8585C20.471 29.2474 13.3401 29.248 8.95134 24.8583C4.56235 20.4703 4.56198 13.3393 8.95144 8.95078C11.7897 6.1126 15.9688 5.00194 19.8585 6.0526C20.3582 6.18741 20.8729 5.89182 21.0079 5.39204C21.1429 4.89226 20.8472 4.37766 20.3474 4.24257C15.8119 3.01726 10.9371 4.31344 7.62572 7.62488C2.50398 12.7457 2.50342 21.0629 7.62553 26.1841C12.7463 31.3059 21.0635 31.3064 26.1847 26.1842C30.9901 21.3796 31.2919 13.7313 27.0445 8.57053Z" fill="#D4B982"/>
</g>
<defs>
<clipPath id="clip0">
<rect width="48" height="48" fill="white"/>
</clipPath>
</defs>
</svg>
