<svg width="48" height="48" viewBox="0 0 48 48" fill="none" xmlns="http://www.w3.org/2000/svg">
<g clip-path="url(#clip0)">
<path d="M12.8251 32.1989H12.3034C13.4038 31.2031 14.0964 29.7644 14.0964 28.1669C14.0964 25.1682 11.6569 22.7286 8.65819 22.7286C5.6595 22.7286 3.21994 25.1682 3.21994 28.1669C3.21994 29.7644 3.91256 31.2031 5.013 32.1989H4.49128C2.01469 32.1989 0 34.2137 0 36.6902V40.8571C0 41.2454 0.314719 41.5602 0.703125 41.5602H16.6132C17.0016 41.5602 17.3163 41.2454 17.3163 40.8571V36.6902C17.3163 34.2137 15.3016 32.1989 12.8251 32.1989ZM4.62619 28.1669C4.62619 25.9436 6.43491 24.1349 8.65819 24.1349C10.8815 24.1349 12.6902 25.9436 12.6902 28.1669C12.6902 30.3901 10.8815 32.1989 8.65819 32.1989C6.43491 32.1989 4.62619 30.3902 4.62619 28.1669ZM15.91 40.154H13.3387V38.963C13.3387 38.5746 13.024 38.2598 12.6356 38.2598C12.2472 38.2598 11.9325 38.5746 11.9325 38.963V40.154H5.38378V38.963C5.38378 38.5746 5.06906 38.2598 4.68066 38.2598C4.29225 38.2598 3.97753 38.5746 3.97753 38.963V40.154H1.40625V36.6902C1.40625 34.9891 2.79019 33.6051 4.49119 33.6051H12.8251C14.5262 33.6051 15.91 34.9891 15.91 36.6902V40.154Z" fill="#D4B982"/>
<path d="M43.5087 38.0709H42.9868C44.0875 37.0751 44.7803 35.6363 44.7803 34.0385C44.7803 31.0398 42.3408 28.6002 39.3421 28.6002C36.3434 28.6002 33.9038 31.0398 33.9038 34.0385C33.9038 35.6363 34.5966 37.075 35.6973 38.0709H35.1752C32.6985 38.0709 30.6836 40.0854 30.6836 42.5616V46.7288C30.6836 47.1171 30.9983 47.4319 31.3867 47.4319H37.7017C38.0901 47.4319 38.4048 47.1171 38.4048 46.7288C38.4048 46.3404 38.0901 46.0256 37.7017 46.0256H36.0678V44.8346C36.0678 44.4463 35.753 44.1315 35.3646 44.1315C34.9762 44.1315 34.6615 44.4463 34.6615 44.8346V46.0256H32.0899V42.5616C32.0899 40.8608 33.4741 39.4772 35.1753 39.4772H43.5087C45.2099 39.4772 46.594 40.8608 46.594 42.5616V46.0256H44.0227V44.8346C44.0227 44.4463 43.708 44.1315 43.3196 44.1315C42.9312 44.1315 42.6165 44.4463 42.6165 44.8346V46.0256H40.9831C40.5947 46.0256 40.2799 46.3404 40.2799 46.7288C40.2799 47.1171 40.5947 47.4319 40.9831 47.4319H47.2971C47.6855 47.4319 48.0003 47.1171 48.0003 46.7288V42.5616C48.0003 40.0854 45.9854 38.0709 43.5087 38.0709ZM35.3102 34.0385C35.3102 31.8153 37.1189 30.0065 39.3422 30.0065C41.5654 30.0065 43.3742 31.8152 43.3742 34.0385C43.3742 36.2618 41.5654 38.0705 39.3422 38.0705C37.1189 38.0705 35.3102 36.2618 35.3102 34.0385Z" fill="#D4B982"/>
<path d="M45.4031 6.43968H37.1438C36.7553 6.43968 36.4406 6.75449 36.4406 7.1428C36.4406 7.53112 36.7553 7.84593 37.1438 7.84593H45.4031C46.0597 7.84593 46.5938 8.38002 46.5938 9.03655V24.1894C46.5938 24.8459 46.0597 25.38 45.4031 25.38H31.9547C31.5663 25.38 31.2516 25.6948 31.2516 26.0831V28.1737L28.6644 25.586C28.5326 25.4541 28.3538 25.38 28.1672 25.38H22.6744C22.0173 25.38 21.4828 24.8459 21.4828 24.1894V9.03655C21.4828 8.38002 22.0173 7.84593 22.6744 7.84593H33.8625C34.2509 7.84593 34.5656 7.53112 34.5656 7.1428C34.5656 6.75449 34.2509 6.43968 33.8625 6.43968H27.9234V3.16499C27.9234 1.73315 26.758 0.568115 25.3256 0.568115H2.59688C1.16503 0.568115 0 1.73305 0 3.16499V18.3178C0 19.7497 1.16503 20.9147 2.59688 20.9147H6.54094C6.92934 20.9147 7.24406 20.5999 7.24406 20.2116C7.24406 19.8232 6.92934 19.5084 6.54094 19.5084H2.59688C1.94034 19.5084 1.40625 18.9743 1.40625 18.3178V3.16499C1.40625 2.50855 1.94034 1.97437 2.59688 1.97437H25.3256C25.9827 1.97437 26.5172 2.50846 26.5172 3.16499V6.43968H22.6744C21.242 6.43968 20.0766 7.60462 20.0766 9.03655V19.5084H19.8327C19.6462 19.5084 19.4674 19.5826 19.3355 19.7144L16.7484 22.3022V20.2116C16.7484 19.8232 16.4337 19.5084 16.0453 19.5084H9.82219C9.43378 19.5084 9.11906 19.8232 9.11906 20.2116C9.11906 20.5999 9.43378 20.9147 9.82219 20.9147H15.3423V24C15.3423 24.2844 15.5136 24.5408 15.7763 24.6496C15.8634 24.6856 15.9547 24.7031 16.0452 24.7031C16.2282 24.7031 16.4081 24.6317 16.5427 24.4971L20.0767 20.9622V24.1894C20.0767 25.6213 21.2421 26.7862 22.6745 26.7862H27.8759L31.4574 30.3686C31.592 30.5031 31.7719 30.5747 31.9549 30.5746C32.0454 30.5746 32.1367 30.5571 32.2238 30.5211C32.4865 30.4122 32.6578 30.1558 32.6578 29.8715V26.7861H45.4031C46.835 26.7861 48 25.6212 48 24.1893V9.03655C48 7.60462 46.835 6.43968 45.4031 6.43968Z" fill="#D4B982"/>
</g>
<defs>
<clipPath id="clip0">
<rect width="48" height="48" fill="white"/>
</clipPath>
</defs>
</svg>
