<svg width="48" height="48" viewBox="0 0 48 48" fill="none" xmlns="http://www.w3.org/2000/svg">
<path d="M44.0133 11.9612H43.5268C43.2392 10.951 42.8374 9.98187 42.3266 9.06558L42.6725 8.71965C43.0682 8.32413 43.2859 7.79661 43.2859 7.23422C43.2859 6.67183 43.0682 6.14441 42.6722 5.74842L40.3679 3.44682C39.9722 3.04867 39.444 2.82949 38.8806 2.82949C38.3172 2.82949 37.789 3.04867 37.3952 3.44485L37.0498 3.79031C36.1328 3.27798 35.1633 2.87543 34.1538 2.5879V2.10145C34.1539 0.942726 33.2113 0 32.0525 0H28.7945C27.6358 0 26.6931 0.942726 26.6931 2.10145V2.5879C25.6838 2.87533 24.7137 3.27798 23.7949 3.79068L23.451 3.44682C23.0551 3.04867 22.5269 2.82949 21.9636 2.82958C21.4003 2.82958 20.8721 3.04886 20.4784 3.44494L18.1745 5.74889C17.7788 6.14441 17.561 6.67192 17.561 7.23432C17.561 7.79671 17.7788 8.32413 18.1744 8.71965L18.5202 9.06549C18.0073 9.98459 17.6053 10.9539 17.3193 11.9612H16.8309C15.6722 11.9612 14.7295 12.9039 14.7295 14.0626V17.3233C14.7295 18.4821 15.6722 19.4248 16.8309 19.4248H17.3193C17.6053 20.4319 18.0073 21.4013 18.5202 22.3205L18.1744 22.6663C17.7787 23.0618 17.561 23.5893 17.561 24.1517C17.561 24.714 17.7787 25.2415 18.1743 25.6371L20.4764 27.9391C20.8721 28.3373 21.4002 28.5565 21.9635 28.5565H21.9636C22.5269 28.5565 23.0552 28.3373 23.4491 27.9411L23.7948 27.5953C24.7146 28.1084 25.6847 28.5105 26.693 28.7965V29.2846C26.693 30.4433 27.6357 31.386 28.7944 31.386H32.0524C33.2111 31.386 34.1538 30.4433 34.1538 29.2846V28.7965C35.1624 28.5104 36.1318 28.1085 37.0498 27.5956L37.3933 27.9391C37.789 28.3373 38.3171 28.5565 38.8805 28.5565C39.4439 28.5565 39.9722 28.3372 40.3655 27.9415L42.6725 25.6371C43.0681 25.2415 43.2859 24.7139 43.2859 24.1516C43.2859 23.5892 43.0681 23.0618 42.6725 22.6663L42.3265 22.3204C42.8373 21.4041 43.239 20.4349 43.5267 19.4248H44.0132C45.172 19.4248 46.1147 18.4821 46.1147 17.3233V14.0626C46.1148 12.9039 45.1722 11.9612 44.0133 11.9612ZM32.279 29.2845C32.279 29.4073 32.1753 29.511 32.0525 29.511H28.7945C28.6717 29.511 28.568 29.4073 28.568 29.2845V28.0674V22.1572C28.568 21.7652 28.3241 21.4146 27.9566 21.2783C25.4374 20.344 23.7449 17.9195 23.7449 15.2452C23.7449 13.1259 24.8002 11.1392 26.5674 9.93125C26.6467 9.87706 26.7168 9.83281 26.7781 9.79653C26.7747 9.9184 26.7661 10.0343 26.7615 10.0947C26.7545 10.1899 26.7489 10.265 26.7489 10.3395V14.7641C26.7489 16.795 28.3357 18.4911 30.3613 18.6254C30.4027 18.6281 30.4441 18.6281 30.4855 18.6254C32.5097 18.4912 34.0953 16.7951 34.0953 14.7641V10.3395C34.0953 10.2654 34.0898 10.1907 34.0828 10.0961C34.0783 10.0354 34.0697 9.91887 34.0664 9.79644C34.1276 9.83263 34.1973 9.87678 34.2763 9.93087C36.0439 11.1391 37.0993 13.1258 37.0993 15.2451C37.0993 17.9191 35.4077 20.3437 32.89 21.2783C32.5226 21.4147 32.2788 21.7652 32.2788 22.1572V28.0673V29.2845H32.279ZM44.2398 17.3233C44.2398 17.444 44.134 17.5498 44.0133 17.5498H42.7989C42.3609 17.5498 41.9813 17.8531 41.8846 18.2803C41.5877 19.5921 41.0735 20.8326 40.3562 21.9672C40.1221 22.3377 40.1759 22.8211 40.4858 23.131L41.3469 23.9921C41.4027 24.048 41.4111 24.116 41.4111 24.1516C41.4111 24.1872 41.4027 24.2553 41.3472 24.3108L39.0382 26.6172C38.9855 26.6703 38.9233 26.6814 38.8806 26.6814C38.8379 26.6814 38.7758 26.6703 38.7211 26.6151L37.86 25.7541C37.5496 25.4438 37.0658 25.3903 36.6953 25.6251C35.8951 26.1321 35.0433 26.5345 34.1539 26.8319V22.7808C37.0623 21.4272 38.9744 18.4777 38.9744 15.245C38.9744 12.506 37.6137 9.94072 35.3347 8.38291C34.9855 8.14432 33.9238 7.41844 32.9953 7.95289C32.0835 8.47788 32.1743 9.7085 32.213 10.2341C32.2164 10.2797 32.2197 10.3181 32.2205 10.3395V14.7641C32.2205 15.7903 31.4362 16.6506 30.4235 16.7495C29.4094 16.6505 28.6239 15.7902 28.6239 14.7641L28.6238 10.3463C28.6247 10.3181 28.628 10.2797 28.6314 10.2339C28.6705 9.7086 28.7621 8.47863 27.8511 7.95336C26.9229 7.41797 25.8596 8.14414 25.5098 8.38291C23.2306 9.94081 21.87 12.5061 21.87 15.2451C21.87 18.4782 23.7831 21.428 26.6931 22.7811V26.832C25.8035 26.5346 24.9507 26.1321 24.1481 25.6247C23.9938 25.5272 23.8202 25.4797 23.6474 25.4797C23.4053 25.4797 23.1651 25.5733 22.9843 25.7543L22.1214 26.6172C22.0686 26.6704 22.0065 26.6815 21.9637 26.6815C21.921 26.6815 21.859 26.6704 21.8042 26.6153L19.5003 24.3113C19.4443 24.2554 19.436 24.1873 19.436 24.1517C19.436 24.1161 19.4443 24.048 19.5003 23.9921L20.3613 23.131C20.6712 22.8211 20.725 22.3377 20.4908 21.9672C19.7699 20.8266 19.2558 19.5867 18.9629 18.2819C18.8669 17.854 18.4868 17.5497 18.0482 17.5497H16.8311C16.7105 17.5497 16.6046 17.4439 16.6046 17.3232V14.0625C16.6046 13.9397 16.7083 13.836 16.8311 13.836H18.0482C18.4868 13.836 18.8668 13.5318 18.9629 13.1039C19.2558 11.7991 19.7698 10.5591 20.4908 9.41854C20.725 9.04805 20.6712 8.56469 20.3613 8.25476L19.5002 7.39369C19.4443 7.33781 19.436 7.26975 19.436 7.23413C19.436 7.1985 19.4443 7.13044 19.5003 7.07448L21.8062 4.76847C21.859 4.71541 21.9211 4.70426 21.9638 4.70426C22.0066 4.70426 22.0686 4.71541 22.1234 4.77044L22.9843 5.63151C23.2945 5.94154 23.7778 5.99525 24.1482 5.76107C25.2873 5.0409 26.5287 4.52576 27.8373 4.23017C28.2648 4.13361 28.5682 3.75384 28.5682 3.31576V2.10145C28.5682 1.97864 28.6719 1.87495 28.7947 1.87495H32.0526C32.1755 1.87495 32.2791 1.97864 32.2791 2.10145V3.31595C32.2791 3.75412 32.5826 4.1338 33.01 4.23036C34.3198 4.52623 35.5597 5.04109 36.6955 5.76079C37.0661 5.99553 37.5498 5.9421 37.8602 5.63179L38.7232 4.76875C38.7759 4.71569 38.8381 4.70454 38.8808 4.70454C38.9235 4.70454 38.9856 4.71569 39.0407 4.7711L41.3471 7.07476C41.4029 7.13063 41.4113 7.19869 41.4113 7.23432C41.4113 7.26994 41.4029 7.338 41.347 7.39397L40.486 8.25504C40.1761 8.56497 40.1222 9.04833 40.3564 9.41882C41.0736 10.5535 41.5879 11.7938 41.8848 13.1057C41.9815 13.5329 42.3611 13.8362 42.7991 13.8362H44.0135C44.1363 13.8362 44.24 13.9399 44.24 14.0627V17.3233H44.2398Z" fill="#D4B982"/>
<path d="M35.8849 41.2791C35.5188 41.6452 35.5188 42.2389 35.8849 42.605C36.068 42.788 36.3079 42.8796 36.5478 42.8796C36.7877 42.8796 37.0276 42.788 37.2107 42.605L37.2134 42.6024C37.5794 42.2363 37.5781 41.644 37.2119 41.2779C36.8458 40.9118 36.251 40.9132 35.8849 41.2791Z" fill="#D4B982"/>
<path d="M40.2281 32.1975L32.7854 36.0197C32.1545 35.3663 31.2705 34.9587 30.2926 34.9587H25.1931C24.9075 34.9587 24.8378 34.936 24.8331 34.9344C24.7918 34.9126 24.6611 34.7898 24.5562 34.6912L24.5097 34.6475C20.384 30.7638 16.899 31.0099 12.9358 32.574C12.2945 32.8271 12.2822 32.8277 11.6382 32.8552L10.4851 32.856C10.1566 31.865 9.22178 31.1478 8.12202 31.1478H4.37249C3.00125 31.1478 1.88574 32.2646 1.88574 33.6373V43.4779C1.88574 44.8491 3.00125 45.9647 4.37249 45.9647H8.12202C9.22168 45.9647 10.1564 45.2483 10.485 44.2585H12.5943C12.7806 44.2585 12.7806 44.2585 12.9973 44.3196C13.076 44.3418 13.1718 44.3688 13.2956 44.4021L22.9979 46.9978C23.4256 47.1132 23.8178 47.227 24.1972 47.3368C25.4403 47.697 26.4852 47.9998 27.5743 47.9998C28.8052 47.9998 30.0922 47.613 31.785 46.4849C31.7932 46.4794 31.8014 46.4738 31.8094 46.4681L33.6617 45.1473C34.0833 44.8466 34.1813 44.2613 33.8807 43.8397C33.58 43.418 32.9945 43.32 32.5732 43.6207L30.7332 44.9327C28.2766 46.5666 27.2335 46.2646 24.719 45.5359C24.3316 45.4237 23.9312 45.3077 23.4848 45.1871L13.7818 42.5913C13.6681 42.5608 13.579 42.5356 13.5059 42.515C13.1519 42.4153 13.0195 42.3838 12.5944 42.3838H10.6115V34.7317H11.6246C11.6381 34.7317 11.6514 34.7314 11.6649 34.7309L11.7184 34.7286C12.5043 34.6951 12.7241 34.6736 13.6243 34.3182C17.105 32.9446 19.7918 32.7814 23.2258 36.0141L23.2722 36.0577C23.8591 36.6092 24.197 36.8338 25.1932 36.8338H30.2927C30.8912 36.8338 31.4131 37.1661 31.6851 37.6555C31.688 37.661 31.6914 37.6661 31.6944 37.6715C31.8159 37.8963 31.8851 38.1533 31.8851 38.4263C31.8851 39.3029 31.1708 40.0161 30.2928 40.0161H22.0283C21.5106 40.0161 21.0908 40.4358 21.0908 40.9536C21.0908 41.4713 21.5106 41.891 22.0283 41.891H30.2928C32.2047 41.891 33.76 40.3368 33.76 38.4263C33.76 38.1666 33.7304 37.9139 33.676 37.6704L41.0847 33.8657C41.7859 33.5057 42.7448 33.5443 43.2209 34.3168C43.642 34.9977 43.4103 35.9027 42.6824 36.4217L39.4324 38.7363C39.0106 39.0367 38.9122 39.6221 39.2126 40.0438C39.3955 40.3006 39.684 40.4376 39.977 40.4376C40.1651 40.4376 40.3551 40.381 40.52 40.2637L43.7703 37.9488C45.314 36.8483 45.7632 34.8629 44.8162 33.3319C43.8849 31.8205 41.9126 31.3328 40.2281 32.1975ZM8.73644 43.4779C8.73644 43.8096 8.45511 44.0897 8.12202 44.0897H4.37249C4.04081 44.0897 3.76069 43.8095 3.76069 43.4779V33.6374C3.76069 33.2986 4.03519 33.0229 4.37249 33.0229H8.12202C8.45511 33.0229 8.73644 33.3042 8.73644 33.6374V43.4779Z" fill="#D4B982"/>
</svg>
