<svg width="48" height="48" viewBox="0 0 48 48" fill="none" xmlns="http://www.w3.org/2000/svg">
<path d="M46.3594 3.27527H1.64062C0.736031 3.27527 0 4.0113 0 4.91589V10.6904C0 11.5995 1.40625 11.5995 1.40625 10.6904V4.91589C1.40625 4.78671 1.51134 4.68152 1.64062 4.68152H46.3594C46.4887 4.68152 46.5938 4.78671 46.5938 4.91589V39.2039C46.5938 39.3331 46.4887 39.4383 46.3594 39.4383H37.3489V37.9752H44.4208C44.8092 37.9752 45.1239 37.6604 45.1239 37.2721V29.9091C45.1239 29 43.7177 29 43.7177 29.9091V36.569H37.3489V33.4493C37.3717 33.4512 37.3948 33.4532 37.4165 33.4552C38.0002 33.5065 38.7262 33.5703 39.2291 33.0664C39.7315 32.563 39.668 31.8363 39.6169 31.2523C39.5618 30.6256 39.6211 30.454 40.1028 30.0536C41.343 29.0224 41.3661 27.9182 40.1028 26.868C39.6211 26.4673 39.5621 26.296 39.6169 25.6691C39.7545 24.0963 39.0199 23.3255 37.4165 23.4664C36.7907 23.5213 36.6209 23.4619 36.2219 22.9801C35.1922 21.737 34.0873 21.714 33.0385 22.9801C32.6395 23.4618 32.4698 23.5215 31.8441 23.4664C30.2701 23.3281 29.5031 24.0669 29.6436 25.6691C29.6983 26.296 29.6393 26.4673 29.1577 26.868C27.9174 27.8992 27.8945 29.0035 29.1577 30.0536C29.6393 30.4543 29.6983 30.6257 29.6436 31.2525C29.4959 32.9371 30.3005 33.5885 31.9114 33.4494V36.5692H4.28241V7.55074H43.7177V26.1591C43.7177 27.0682 45.1239 27.0682 45.1239 26.1591V6.84761C45.1239 6.4593 44.8092 6.14449 44.4208 6.14449H3.57928C3.19088 6.14449 2.87616 6.4593 2.87616 6.84761V37.2721C2.87616 37.6604 3.19088 37.9752 3.57928 37.9752H31.9114V39.4383H1.64062C1.51134 39.4383 1.40625 39.3331 1.40625 39.2039V14.2528C1.40625 13.3437 0 13.3437 0 14.2528V39.2039C0 40.1085 0.736031 40.8445 1.64062 40.8445H31.9114V44.0274C32.0115 44.6052 32.3448 44.8178 32.911 44.6649L34.6301 43.8653L36.3492 44.6649C36.7746 44.8627 37.3489 44.55 37.3489 44.0274V40.8445H46.3594C47.264 40.8445 48 40.1085 48 39.2039V4.91589C48 4.01121 47.264 3.27527 46.3594 3.27527ZM31.7208 32.0542C31.0169 32.1161 30.9828 32.0785 31.0443 31.375C31.1388 30.2952 30.8904 29.6652 30.0565 28.972C29.486 28.4976 29.4861 28.4236 30.0565 27.9491C30.8904 27.256 31.1389 26.626 31.0443 25.5463C30.9828 24.8427 31.0169 24.8054 31.7208 24.867C32.8006 24.9622 33.4297 24.712 34.1213 23.8769C34.5939 23.3065 34.6662 23.3065 35.1388 23.8769C35.8306 24.712 36.4596 24.9618 37.5394 24.867C38.2433 24.805 38.2774 24.8427 38.2159 25.5462C38.1214 26.626 38.3697 27.2559 39.2036 27.949C39.7741 28.4235 39.7744 28.4977 39.2035 28.972C38.3696 29.6653 38.1212 30.295 38.2158 31.3748C38.2776 32.0783 38.2432 32.1161 37.5395 32.0542C37.0978 32.0154 36.5968 31.9713 36.1558 32.1545C35.729 32.3318 35.4289 32.6939 35.1387 33.0443C35.002 33.2093 34.7526 33.5105 34.6299 33.5644C34.5074 33.5105 34.2579 33.2093 34.1213 33.0443C33.8311 32.694 33.5311 32.3318 33.1042 32.1545C32.6491 32.0157 32.1879 31.9823 31.7208 32.0542ZM34.9267 42.4524C34.7386 42.3649 34.5217 42.3649 34.3336 42.4524L33.3176 42.925V34.2672C33.6513 34.6341 34.0629 34.9747 34.6301 34.9747C35.1973 34.9747 35.609 34.6342 35.9426 34.2673V42.925L34.9267 42.4524Z" fill="#D4B982"/>
<path d="M9.11841 13.4364H33.3572C34.2663 13.4364 34.2663 12.0302 33.3572 12.0302H9.11841C8.20923 12.0302 8.20923 13.4364 9.11841 13.4364Z" fill="#D4B982"/>
<path d="M39.5847 17.01C39.5847 16.6217 39.2699 16.3069 38.8815 16.3069H9.11834C8.20925 16.3069 8.20925 17.7131 9.11834 17.7131H38.8816C39.2699 17.7131 39.5847 17.3983 39.5847 17.01Z" fill="#D4B982"/>
<path d="M26.7315 21.2865C26.7315 20.8982 26.4168 20.5834 26.0284 20.5834H9.11834C8.20925 20.5834 8.20925 21.9896 9.11834 21.9896H26.0284C26.4167 21.9896 26.7315 21.6748 26.7315 21.2865Z" fill="#D4B982"/>
<path d="M17.4981 31.0874C17.1148 31.0881 16.7313 31.0885 16.348 31.0888C15.6104 31.0894 15.2044 30.8928 15.0538 30.1107C14.9162 29.3968 13.8865 29.4877 13.6978 30.1107C13.6142 30.3866 13.1924 31.1765 12.8238 31.1119C12.6285 31.0776 12.5432 30.7764 12.471 30.6204C12.3305 30.3168 12.2281 29.9949 12.1405 29.6724C11.7704 28.3099 11.6965 26.8872 11.4649 25.499C11.3307 24.6939 10.1036 24.9215 10.0838 25.6859C10.0208 28.1207 9.62273 30.5221 8.75592 32.8042C8.43426 33.6511 9.79317 34.0173 10.1119 33.1781C10.4461 32.2982 10.7115 31.3971 10.9173 30.4827C11.0278 30.8159 11.1595 31.1427 11.3203 31.4606C11.7309 32.2721 12.5684 32.7522 13.4644 32.3913C13.7842 32.2625 14.0759 32.0373 14.3243 31.7632C14.9895 32.5304 15.9793 32.4956 16.9026 32.4945C18.2945 32.4927 19.6864 32.4894 21.0784 32.4856C21.9832 32.4831 21.9849 31.0768 21.0784 31.0793C19.885 31.0827 18.6915 31.0854 17.4981 31.0874Z" fill="#D4B982"/>
<path d="M34.6301 31.207C36.1444 31.207 37.3765 29.975 37.3765 28.4607C37.3765 26.9463 36.1444 25.7144 34.6301 25.7144C33.1159 25.7144 31.8838 26.9464 31.8838 28.4607C31.8838 29.9749 33.1158 31.207 34.6301 31.207ZM34.6301 27.1206C35.369 27.1206 35.9703 27.7218 35.9703 28.4607C35.9703 29.1995 35.369 29.8007 34.6301 29.8007C33.8912 29.8007 33.29 29.1996 33.29 28.4607C33.29 27.7217 33.8912 27.1206 34.6301 27.1206Z" fill="#D4B982"/>
</svg>
