<svg width="48" height="48" viewBox="0 0 48 48" fill="none" xmlns="http://www.w3.org/2000/svg">
<g clip-path="url(#clip0)">
<path d="M20.0114 3.20947C10.7365 3.20947 3.21777 10.7282 3.21777 20.0031C3.21777 29.278 10.7365 36.7967 20.0114 36.7967C29.2863 36.7967 36.805 29.278 36.805 20.0031C36.7949 10.7324 29.2821 3.21957 20.0114 3.20947ZM20.0114 4.80887C24.9511 4.81276 29.5801 7.22025 32.4195 11.2624L30.4203 13.2617C29.9337 12.9673 29.3768 12.8097 28.8081 12.8058C27.0414 12.8058 25.6093 14.238 25.6093 16.0046C25.6121 16.5739 25.7687 17.1318 26.0627 17.6192L20.8263 22.8556C19.8348 22.2511 18.5886 22.2511 17.5971 22.8556L13.9601 19.2186C14.2541 18.7312 14.4107 18.1733 14.4135 17.604C14.4157 15.8409 12.9883 14.4098 11.2251 14.4076C9.76699 14.4058 8.49297 15.3922 8.12951 16.8043H5.16264C6.67676 9.81227 12.8573 4.81936 20.0114 4.80887ZM30.4075 16.0046C30.4075 16.888 29.6914 17.604 28.8081 17.604C27.9247 17.604 27.2087 16.888 27.2087 16.0046C27.2087 15.1213 27.9247 14.4052 28.8081 14.4052C29.6914 14.4052 30.4075 15.1213 30.4075 16.0046ZM20.8111 25.601C20.8111 26.4843 20.0951 27.2004 19.2117 27.2004C18.3283 27.2004 17.6123 26.4843 17.6123 25.601C17.6123 24.7176 18.3283 24.0016 19.2117 24.0016C20.0951 24.0016 20.8111 24.7176 20.8111 25.601ZM12.8141 17.604C12.8141 18.4874 12.0981 19.2034 11.2147 19.2034C10.3314 19.2034 9.61535 18.4874 9.61535 17.604C9.61535 16.7206 10.3314 16.0046 11.2147 16.0046C12.0981 16.0046 12.8141 16.7206 12.8141 17.604ZM27.394 33.2887C25.1357 34.5426 22.5946 35.1995 20.0114 35.1972C11.6256 35.2029 4.82286 28.4096 4.81717 20.0238C4.81677 19.4826 4.84536 18.9417 4.90273 18.4036H8.12951C8.49307 19.8116 9.76059 20.7972 11.2147 20.8027C11.784 20.7999 12.3419 20.6433 12.8293 20.3493L16.4663 23.9863C16.1724 24.4737 16.0157 25.0316 16.0129 25.6009C16.0129 27.3675 17.4451 28.7997 19.2117 28.7997C20.9783 28.7997 22.4105 27.3675 22.4105 25.6009C22.4077 25.0316 22.2511 24.4737 21.9571 23.9863L27.1935 18.7499C27.6809 19.0439 28.2388 19.2005 28.8081 19.2033C30.5747 19.2033 32.0069 17.7712 32.0069 16.0045C32.0041 15.4352 31.8474 14.8773 31.5534 14.3899L33.2968 12.6474C37.3667 19.9774 34.7239 29.2188 27.394 33.2887Z" fill="#D4B982"/>
<path d="M40.003 8.00759C41.4571 8.0021 42.7247 7.01657 43.0882 5.6085H48V4.00911H43.0882C42.7247 2.60104 41.4571 1.61552 40.003 1.61002C38.2364 1.61002 36.8042 3.04218 36.8042 4.80881C36.807 5.37809 36.9636 5.93598 37.2576 6.42339L35.8526 7.82846C29.1296 -0.930318 16.5792 -2.58069 7.8204 4.14226C-0.938375 10.8652 -2.58875 23.4158 4.1342 32.1745C10.4802 40.4421 22.1129 42.4476 30.8609 36.7823L33.2743 39.1958L34.4051 40.3265L40.8427 46.7641C42.48 48.4014 45.1344 48.4014 46.7716 46.7641C48.4089 45.1268 48.4089 42.4724 46.7716 40.8351L40.3341 34.3976L39.2033 33.2668L36.7898 30.8533C41.0741 24.2542 41.0741 15.752 36.7898 9.15276L38.3892 7.55336C38.8763 7.84745 39.434 8.00439 40.003 8.00759ZM40.003 3.20941C40.8864 3.20941 41.6024 3.92544 41.6024 4.80881C41.6024 5.69217 40.8864 6.4082 40.003 6.4082C39.1196 6.4082 38.4036 5.69217 38.4036 4.80881C38.4036 3.92544 39.1197 3.20941 40.003 3.20941ZM45.6409 41.9659C46.6651 42.9671 46.6838 44.6091 45.6825 45.6333C44.6813 46.6575 43.0393 46.6762 42.0151 45.675C42.001 45.6613 41.9872 45.6474 41.9735 45.6333L35.5359 39.1958L39.2033 35.5284L45.6409 41.9659ZM38.0725 34.3976L34.4051 38.065L32.1916 35.8514C32.3043 35.7651 32.4099 35.6699 32.521 35.5811C32.6322 35.4924 32.7609 35.386 32.8801 35.2861C33.0552 35.1389 33.228 34.9902 33.3975 34.8374C33.4847 34.7575 33.5678 34.6775 33.6534 34.5975C33.9813 34.2904 34.2988 33.9729 34.6058 33.6451C34.6858 33.5595 34.7658 33.4763 34.8458 33.3892C34.9985 33.2196 35.1472 33.0469 35.2944 32.8718C35.3946 32.7534 35.493 32.6338 35.5895 32.5127C35.6774 32.4023 35.7726 32.2968 35.859 32.184L38.0725 34.3976ZM34.9713 30.683C34.7194 31.0349 34.4595 31.3795 34.1852 31.7114C34.1052 31.8082 34.0197 31.9017 33.9373 31.9969C33.6926 32.2816 33.4399 32.5578 33.1792 32.8254C33.0656 32.9426 32.9502 33.0581 32.8329 33.1717C32.5663 33.4324 32.2902 33.6851 32.0044 33.9298C31.9093 34.0097 31.8157 34.0969 31.7189 34.1777C31.3871 34.452 31.0424 34.7119 30.6905 34.9638C22.4121 40.878 10.9065 38.9615 4.99228 30.683C-0.921981 22.4045 0.994592 10.899 9.27305 4.98474C17.5515 -0.929519 29.0571 0.986955 34.9713 9.26552C39.5477 15.6713 39.5477 24.2772 34.9713 30.683Z" fill="#D4B982"/>
</g>
<defs>
<clipPath id="clip0">
<rect width="48" height="48" fill="white"/>
</clipPath>
</defs>
</svg>
