<svg width="48" height="48" viewBox="0 0 48 48" fill="none" xmlns="http://www.w3.org/2000/svg">
<path d="M2.40015 48H34.4C35.7253 48 36.8002 46.9255 36.8002 45.5999V36C36.8002 34.6747 35.7253 33.5999 34.4 33.5999H2.40015C1.07446 33.5999 0 34.6747 0 36V45.5999C0 46.9255 1.07446 48 2.40015 48ZM1.59998 36C1.59998 35.5583 1.95813 35.1998 2.40015 35.1998H34.4C34.8417 35.1998 35.1998 35.5583 35.1998 36V45.5999C35.1998 46.0419 34.8417 46.4 34.4 46.4H2.40015C1.95813 46.4 1.59998 46.0419 1.59998 45.5999V36Z" fill="#D4B982"/>
<path d="M2.40015 31.2001H34.4C35.7253 31.2001 36.8002 30.1256 36.8002 28.7999V19.2001C36.8002 17.8744 35.7253 16.7999 34.4 16.7999H2.40015C1.07446 16.7999 0 17.8744 0 19.2001V28.7999C0 30.1256 1.07446 31.2001 2.40015 31.2001ZM1.59998 19.2001C1.59998 18.7581 1.95813 18.3999 2.40015 18.3999H34.4C34.8417 18.3999 35.1998 18.7581 35.1998 19.2001V28.7999C35.1998 29.2419 34.8417 29.6001 34.4 29.6001H2.40015C1.95813 29.6001 1.59998 29.2419 1.59998 28.7999V19.2001Z" fill="#D4B982"/>
<path d="M45.6002 0H13.6003C12.275 0 11.2002 1.07446 11.2002 2.40015V12C11.2002 13.3253 12.275 14.4001 13.6003 14.4001H45.6002C46.9259 14.4001 48.0004 13.3253 48.0004 12V2.40015C48.0004 1.07446 46.9259 0 45.6002 0ZM46.4004 12C46.4004 12.4417 46.0422 12.8002 45.6002 12.8002H13.6003C13.1587 12.8002 12.8005 12.4417 12.8005 12V2.40015C12.8005 1.95813 13.1587 1.59998 13.6003 1.59998H45.6002C46.0422 1.59998 46.4004 1.95813 46.4004 2.40015V12Z" fill="#D4B982"/>
<path d="M42.3996 27.2C42.8416 27.2 43.1998 26.8418 43.1998 26.4002V19.5312L43.4342 19.7655C43.748 20.0688 44.2471 20.0644 44.5555 19.756C44.8642 19.4473 44.8686 18.9482 44.5654 18.6343L42.9654 17.0343C42.8907 16.9596 42.8021 16.9007 42.7047 16.8607C42.5087 16.7798 42.289 16.7798 42.0935 16.8607C41.9957 16.9007 41.9071 16.9596 41.8324 17.0343L40.2324 18.6343C39.9292 18.9482 39.9335 19.4473 40.2423 19.756C40.551 20.0644 41.0498 20.0688 41.3636 19.7655L41.5998 19.5312V26.4002C41.5998 26.8418 41.958 27.2 42.3996 27.2Z" fill="#D4B982"/>
<path d="M5.59955 10.4001C6.0412 10.4001 6.39936 10.0419 6.39936 9.59988V2.73123L6.63373 2.96561C6.94758 3.26883 7.44672 3.26443 7.75544 2.95572C8.06379 2.64737 8.06818 2.14822 7.76496 1.83438L6.16498 0.234405C6.09064 0.160065 6.00239 0.101471 5.90497 0.0615539C5.70942 -0.0193787 5.48969 -0.0193787 5.29377 0.0615539C5.19636 0.101471 5.10773 0.160431 5.03303 0.235138L3.43305 1.83511C3.13019 2.14932 3.13495 2.64847 3.44367 2.95682C3.75239 3.26517 4.25153 3.2692 4.56501 2.96561L4.79938 2.73123V9.59988C4.79938 10.0419 5.15754 10.4001 5.59955 10.4001Z" fill="#D4B982"/>
<path d="M33.7728 5.66382L31.4939 5.15698L30.2345 3.51343C30.0774 3.32556 29.8444 3.2168 29.5995 3.2168C29.3541 3.2168 29.1215 3.32556 28.9641 3.51343L27.705 5.15698L25.4257 5.66382C25.1434 5.72717 24.9174 5.93811 24.8343 6.21533C24.7516 6.49255 24.8244 6.79285 25.0258 7.00085L26.453 8.47522L26.3299 10.3473C26.312 10.6124 26.4273 10.8688 26.6368 11.0317C26.8466 11.1947 27.1235 11.243 27.3762 11.1606L29.5995 10.4352L31.8234 11.1606C32.0758 11.243 32.353 11.1947 32.5625 11.0317C32.7723 10.8688 32.8873 10.6124 32.8697 10.3473L32.7467 8.47522L34.1738 7.00085C34.3748 6.79285 34.4481 6.49255 34.3653 6.21533C34.2822 5.93811 34.0562 5.72717 33.7739 5.66382H33.7728ZM31.3496 7.61682C31.1921 7.77905 31.1108 8.00061 31.1258 8.22656L31.1954 9.27283L29.8474 8.83374C29.6862 8.78137 29.5127 8.78137 29.3515 8.83374L28.0035 9.27283L28.0731 8.22656C28.0877 8.00061 28.0064 7.77905 27.849 7.61682L27.1689 6.91516L28.336 6.65515C28.5206 6.61487 28.6847 6.5105 28.7993 6.36072L29.5995 5.31519L30.3993 6.36072C30.5139 6.51013 30.6772 6.6145 30.861 6.65515L32.0282 6.91516L31.3496 7.61682Z" fill="#D4B982"/>
<path d="M24.0002 3.19995H15.2002C14.7585 3.19995 14.4004 3.55811 14.4004 4.00012C14.4004 4.44177 14.7585 4.79993 15.2002 4.79993H24.0002C24.4419 4.79993 24.8004 4.44177 24.8004 4.00012C24.8004 3.55811 24.4419 3.19995 24.0002 3.19995Z" fill="#D4B982"/>
<path d="M24.0002 9.59985H15.2002C14.7585 9.59985 14.4004 9.95801 14.4004 10.4C14.4004 10.8417 14.7585 11.1998 15.2002 11.1998H24.0002C24.4419 11.1998 24.8004 10.8417 24.8004 10.4C24.8004 9.95801 24.4419 9.59985 24.0002 9.59985Z" fill="#D4B982"/>
<path d="M15.2002 7.99988H21.6001C22.0421 7.99988 22.4003 7.64172 22.4003 7.20007C22.4003 6.75806 22.0421 6.3999 21.6001 6.3999H15.2002C14.7585 6.3999 14.4004 6.75806 14.4004 7.20007C14.4004 7.64172 14.7585 7.99988 15.2002 7.99988Z" fill="#D4B982"/>
<path d="M44.0002 3.19995H35.2002C34.7585 3.19995 34.4004 3.55811 34.4004 4.00012C34.4004 4.44177 34.7585 4.79993 35.2002 4.79993H44.0002C44.4423 4.79993 44.8004 4.44177 44.8004 4.00012C44.8004 3.55811 44.4423 3.19995 44.0002 3.19995Z" fill="#D4B982"/>
<path d="M44.0002 9.59985H35.2002C34.7585 9.59985 34.4004 9.95801 34.4004 10.4C34.4004 10.8417 34.7585 11.1998 35.2002 11.1998H44.0002C44.4423 11.1998 44.8004 10.8417 44.8004 10.4C44.8004 9.95801 44.4423 9.59985 44.0002 9.59985Z" fill="#D4B982"/>
<path d="M43.9995 6.3999H37.5996C37.158 6.3999 36.7998 6.75806 36.7998 7.20007C36.7998 7.64172 37.158 7.99988 37.5996 7.99988H43.9995C44.4415 7.99988 44.7997 7.64172 44.7997 7.20007C44.7997 6.75806 44.4415 6.3999 43.9995 6.3999Z" fill="#D4B982"/>
<path d="M4.80017 28.0001H9.6001C10.4838 28.0001 11.2001 27.2838 11.2001 26.4001V21.5999C11.2001 20.7162 10.4838 19.9999 9.6001 19.9999H4.80017C3.9165 19.9999 3.2002 20.7162 3.2002 21.5999V26.4001C3.2002 27.2838 3.9165 28.0001 4.80017 28.0001ZM4.80017 21.5999H9.6001V26.4001H4.80017V21.5999Z" fill="#D4B982"/>
<path d="M4.80017 41.6001H19.2003C20.084 41.6001 20.8003 40.8838 20.8003 40.0001V38.4001C20.8003 37.5165 20.084 36.8002 19.2003 36.8002H4.80017C3.9165 36.8002 3.2002 37.5165 3.2002 38.4001V40.0001C3.2002 40.8838 3.9165 41.6001 4.80017 41.6001ZM4.80017 38.4001H19.2003V40.0001H4.80017V38.4001Z" fill="#D4B982"/>
<path d="M24.0004 41.6001H32.0002C32.8839 41.6001 33.6002 40.8838 33.6002 40.0001V38.4001C33.6002 37.5165 32.8839 36.8002 32.0002 36.8002H24.0004C23.1167 36.8002 22.4004 37.5165 22.4004 38.4001V40.0001C22.4004 40.8838 23.1167 41.6001 24.0004 41.6001ZM24.0004 38.4001H32.0002V40.0001H24.0004V38.4001Z" fill="#D4B982"/>
<path d="M13.5996 21.5999H32.7997C33.2413 21.5999 33.5995 21.2417 33.5995 20.8C33.5995 20.358 33.2413 19.9999 32.7997 19.9999H13.5996C13.158 19.9999 12.7998 20.358 12.7998 20.8C12.7998 21.2417 13.158 21.5999 13.5996 21.5999Z" fill="#D4B982"/>
<path d="M13.5996 24.8002H32.7997C33.2413 24.8002 33.5995 24.4417 33.5995 24C33.5995 23.5583 33.2413 23.1998 32.7997 23.1998H13.5996C13.158 23.1998 12.7998 23.5583 12.7998 24C12.7998 24.4417 13.158 24.8002 13.5996 24.8002Z" fill="#D4B982"/>
<path d="M13.5996 28.0001H32.7997C33.2413 28.0001 33.5995 27.642 33.5995 27.2C33.5995 26.7583 33.2413 26.4001 32.7997 26.4001H13.5996C13.158 26.4001 12.7998 26.7583 12.7998 27.2C12.7998 27.642 13.158 28.0001 13.5996 28.0001Z" fill="#D4B982"/>
<path d="M4.00037 44.8H20.0001C20.4421 44.8 20.8003 44.4419 20.8003 43.9999C20.8003 43.5582 20.4421 43.2001 20.0001 43.2001H4.00037C3.55835 43.2001 3.2002 43.5582 3.2002 43.9999C3.2002 44.4419 3.55835 44.8 4.00037 44.8Z" fill="#D4B982"/>
<path d="M23.2002 44.8H32.8004C33.2421 44.8 33.6002 44.4419 33.6002 43.9999C33.6002 43.5582 33.2421 43.2001 32.8004 43.2001H23.2002C22.7585 43.2001 22.4004 43.5582 22.4004 43.9999C22.4004 44.4419 22.7585 44.8 23.2002 44.8Z" fill="#D4B982"/>
</svg>
