<svg width="48" height="48" viewBox="0 0 48 48" fill="none" xmlns="http://www.w3.org/2000/svg">
<path d="M43.1996 7.19995H21.5996V8.79995H43.1996V7.19995Z" fill="#D4B982"/>
<path d="M35.1996 10.4H21.5996V12H35.1996V10.4Z" fill="#D4B982"/>
<path d="M35.1996 13.6H21.5996V15.2H35.1996V13.6Z" fill="#D4B982"/>
<path d="M43.2 4H28V5.6H43.2V4Z" fill="#D4B982"/>
<path d="M26.3998 4H24.7998V5.6H26.3998V4Z" fill="#D4B982"/>
<path d="M24.8002 32H23.2002V33.6H24.8002V32Z" fill="#D4B982"/>
<path d="M13.3658 5.36557L12.2346 4.23438L10.6346 5.83437C10.3223 6.14677 10.3223 6.65317 10.6346 6.96557L12.2346 8.56557L13.3658 7.43437L12.3314 6.39997L13.3658 5.36557Z" fill="#D4B982"/>
<path d="M19.7654 5.83437L18.1654 4.23438L17.0342 5.36557L18.0686 6.39997L17.0342 7.43437L18.1654 8.56557L19.7654 6.96557C20.0777 6.65317 20.0777 6.14677 19.7654 5.83437Z" fill="#D4B982"/>
<path d="M15.2411 3.74611L13.6396 8.54602L15.1567 9.05217L16.7581 4.25225L15.2411 3.74611Z" fill="#D4B982"/>
<path d="M41.5996 24.8001V18.4H39.9996V24.8001H38.3996V16.8H36.7996V24.8001H35.1996V20.8H33.5996V24.8001H31.9996V20H30.3996V24.8001H28.7996V21.6H27.1996V24.8001H25.5996V26.4001H43.1996V24.8001H41.5996Z" fill="#D4B982"/>
<path d="M42.3998 0H5.5998C2.9499 0.0026 0.802405 2.1501 0.799805 4.8V20.5008V20.508V29.6V32C0.802405 34.6499 2.9499 36.7974 5.5998 36.8H15.5054L12.3054 43.2H7.9998C6.6743 43.2 5.5998 44.2745 5.5998 45.6C5.5998 46.9255 6.6743 48 7.9998 48H39.9998C41.3253 48 42.3998 46.9255 42.3998 45.6C42.3998 44.2745 41.3253 43.2 39.9998 43.2H35.6942L32.4942 36.8H42.3998C45.0497 36.7974 47.1972 34.6499 47.1998 32V4.8C47.1972 2.1501 45.0497 0.0026 42.3998 0ZM2.3998 11.256L4.2182 13.4208C4.3702 13.6019 4.5946 13.7064 4.831 13.7064H7.27981C7.51621 13.7064 7.7406 13.6019 7.8926 13.4208L9.71181 11.256L11.507 11.8392L11.7054 14.6576C11.7218 14.8933 11.8416 15.1097 12.0326 15.2488L14.0142 16.6888C14.2059 16.8272 14.4487 16.8743 14.6782 16.8176L17.4246 16.1352L18.535 17.6624L17.0382 20.0624C16.9142 20.2636 16.8855 20.5093 16.9598 20.7336L17.7174 23.0624C17.7903 23.287 17.9586 23.468 18.1774 23.5568L20.7998 24.62V26.508L18.1758 27.5712C17.9565 27.6596 17.7879 27.8411 17.7158 28.0664L17.4758 28.8H12.867C14.6598 25.0464 13.0702 20.5501 9.3166 18.7573C7.1119 17.7043 4.5333 17.7861 2.3998 18.9768V11.256ZM2.3998 20.88C4.9874 18.8613 8.7216 19.3225 10.7402 21.9102C12.2988 23.908 12.4191 26.6744 11.0398 28.8H2.3998V20.88ZM39.9998 44.8C40.4416 44.8 40.7998 45.1582 40.7998 45.6C40.7998 46.0418 40.4416 46.4 39.9998 46.4H7.9998C7.558 46.4 7.1998 46.0418 7.1998 45.6C7.1998 45.1582 7.558 44.8 7.9998 44.8H39.9998ZM33.9054 43.2H14.0942L17.2942 36.8H30.7054L33.9054 43.2ZM45.5998 32C45.5998 33.7673 44.1671 35.2 42.3998 35.2H5.5998C3.8325 35.2 2.3998 33.7673 2.3998 32V30.4H11.4574H11.4646H45.5998V32ZM45.5998 28.8H19.4038L21.9006 27.788C22.2022 27.6656 22.3996 27.3727 22.3998 27.0472V24.08C22.3999 23.7542 22.2025 23.4609 21.9006 23.3384L19.1198 22.2136L18.5934 20.5936L20.179 18.0496C20.351 17.7732 20.3383 17.4202 20.147 17.1568L18.403 14.7568C18.2115 14.4931 17.8793 14.3719 17.563 14.4504L14.6542 15.1704L13.2798 14.172L13.0694 11.188C13.0465 10.8627 12.8284 10.5838 12.5182 10.4832L9.6982 9.5664C9.38791 9.4676 9.04871 9.5651 8.83821 9.8136L6.9126 12.1056H5.2062L3.2798 9.8136C3.0692 9.5648 2.7295 9.4672 2.419 9.5664L2.3998 9.5736V4.8C2.3998 3.0327 3.8325 1.6 5.5998 1.6H42.3998C44.1671 1.6 45.5998 3.0327 45.5998 4.8V28.8Z" fill="#D4B982"/>
</svg>
