<svg width="48" height="48" viewBox="0 0 48 48" fill="none" xmlns="http://www.w3.org/2000/svg">
<path d="M47.4135 20.8332L44.5217 20.0213C44.3365 19.0551 44.0827 18.1034 43.7623 17.1734L45.8549 15.0305C46.0852 14.7942 46.1478 14.4412 46.0127 14.14C45.3366 12.6326 44.5075 11.1986 43.5384 9.86065C43.3456 9.5925 43.0077 9.47049 42.688 9.55361L39.7875 10.2965C39.1426 9.55421 38.4465 8.8582 37.7043 8.21334L38.4472 5.31281C38.5289 4.99319 38.4072 4.65609 38.1401 4.46242C36.8022 3.49302 35.3683 2.66364 33.8608 1.98743C33.5598 1.85104 33.2061 1.91376 32.9704 2.14522L30.8276 4.23778C29.8972 3.91747 28.9452 3.66369 27.9788 3.47845L27.1668 0.58656C27.0694 0.239609 26.753 -0.000100476 26.3926 3.1594e-08H21.6075C21.2471 -0.000100476 20.9307 0.239609 20.8333 0.58656L20.0214 3.47845C19.0553 3.66359 18.1035 3.91737 17.1735 4.23778L15.0306 2.14522C14.7949 1.91386 14.4412 1.85114 14.1402 1.98743C12.6327 2.66344 11.1987 3.49252 9.86076 4.46161C9.59371 4.65529 9.47199 4.99239 9.55371 5.312L10.2966 8.21254C9.55431 8.85739 8.8582 9.55351 8.21334 10.2958L5.31281 9.5529C4.99309 9.46908 4.65489 9.5912 4.46242 9.85995C3.49303 11.1979 2.66364 12.6318 1.98743 14.1393C1.85235 14.4405 1.91496 14.7934 2.14522 15.0297L4.23778 17.1725C3.91747 18.1029 3.66379 19.0549 3.47845 20.0213L0.58656 20.8332C0.239609 20.9306 -0.000100476 21.247 3.1594e-08 21.6074V26.3918C-0.000100476 26.7522 0.239609 27.0686 0.58656 27.166L3.47845 27.9779C3.66359 28.9442 3.91737 29.8963 4.23778 30.8266L2.14522 32.9695C1.91496 33.2057 1.85235 33.5588 1.98743 33.8599C2.66344 35.3674 3.49252 36.8013 4.46161 38.1392C4.65499 38.4067 4.99239 38.5285 5.312 38.4463L8.21254 37.7034C8.85739 38.4457 9.55351 39.1418 10.2958 39.7867L9.5529 42.6872C9.47119 43.0068 9.5929 43.3439 9.85995 43.5376C11.1979 44.507 12.6318 45.3364 14.1393 46.0126C14.4405 46.1472 14.7932 46.0847 15.0297 45.8548L17.1726 43.7622C18.1029 44.0825 19.0549 44.3362 20.0213 44.5215L20.8332 47.4134C20.9306 47.7604 21.2471 48.0001 21.6074 48H26.3918C26.7522 48.0001 27.0686 47.7604 27.166 47.4134L27.9779 44.5223C28.9443 44.3365 29.8963 44.0825 30.8266 43.7622L32.9695 45.8548C33.2058 46.085 33.5588 46.1477 33.8599 46.0126C35.3673 45.3365 36.8013 44.5074 38.1392 43.5383C38.4063 43.3446 38.528 43.0075 38.4463 42.6879L37.7034 39.7874C38.4457 39.1425 39.1417 38.4464 39.7866 37.7043L42.6871 38.4471C43.0067 38.5293 43.3441 38.4075 43.5375 38.14C44.507 36.8021 45.3363 35.3681 46.0125 33.8606C46.1476 33.5594 46.0849 33.2065 45.8547 32.9702L43.7621 30.8273C44.0824 29.897 44.3361 28.945 44.5215 27.9786L47.4133 27.1667C47.7603 27.0693 48 26.7529 47.9999 26.3925V21.6074C48.0002 21.2471 47.7605 20.9306 47.4135 20.8332ZM46.3919 25.7832L43.602 26.5669C43.302 26.651 43.0777 26.901 43.0264 27.2084C42.8253 28.4157 42.5092 29.601 42.0825 30.7481C41.9733 31.0396 42.0424 31.3681 42.26 31.5907L44.3165 33.6966C43.8082 34.7596 43.2175 35.781 42.5498 36.7518L39.6979 36.0216C39.3962 35.9431 39.0765 36.0473 38.879 36.2885C38.099 37.2319 37.2315 38.0992 36.2878 38.8789C36.0478 39.0775 35.9438 39.3968 36.0209 39.6986L36.7511 42.5505C35.7805 43.2183 34.759 43.8087 33.6959 44.3164L31.5899 42.26C31.3676 42.0418 31.0388 41.9726 30.7473 42.0825C29.6002 42.5092 28.4149 42.8255 27.2076 43.0271C26.9003 43.0787 26.6505 43.3028 26.566 43.6027L25.7824 46.3918H22.2168L21.4331 43.6019C21.349 43.3019 21.099 43.0776 20.7916 43.0263C19.5843 42.8252 18.399 42.5091 17.2519 42.0824C16.9605 41.9723 16.6315 42.0415 16.4093 42.2599L14.3034 44.3164C13.2405 43.808 12.219 43.2174 11.2482 42.5497L11.9784 39.6978C12.0556 39.3962 11.9516 39.0771 11.7115 38.8789C10.7681 38.0989 9.90076 37.2314 9.12112 36.2877C8.92232 36.0479 8.60321 35.944 8.30139 36.0208L5.4495 36.751C4.78203 35.7802 4.19155 34.7587 3.68359 33.6958L5.73996 31.5898C5.95746 31.3671 6.02661 31.0387 5.91746 30.7472C5.4906 29.6002 5.17461 28.4149 4.9736 27.2075C4.92234 26.9001 4.69801 26.6502 4.39799 26.5659L1.60811 25.7824V22.2167L4.39799 21.433C4.69801 21.3489 4.92234 21.0989 4.9736 20.7915C5.17471 19.5842 5.49081 18.3989 5.91746 17.2517C6.02671 16.9603 5.95756 16.6318 5.73996 16.4092L3.68349 14.3033C4.19185 13.2403 4.78253 12.2189 5.4502 11.2481L8.30209 11.9783C8.60371 12.0556 8.92292 11.9516 9.12102 11.7114C9.90096 10.768 10.7685 9.90066 11.7122 9.12102C11.9522 8.92242 12.0562 8.60311 11.9791 8.30129L11.2489 5.4494C12.2197 4.78193 13.2412 4.19145 14.3042 3.68349L16.4101 5.73986C16.6323 5.95816 16.9612 6.02741 17.2527 5.91736C18.3996 5.49091 19.5846 5.17481 20.7916 4.9735C21.099 4.92224 21.3489 4.6979 21.4331 4.39789L22.2168 1.60811H25.7832L26.5669 4.39799C26.651 4.69801 26.901 4.92234 27.2084 4.9736C28.4157 5.17471 29.601 5.49081 30.7482 5.91746C31.0395 6.02761 31.3685 5.95836 31.5907 5.73996L33.6966 3.68349C34.7596 4.19185 35.781 4.78253 36.7518 5.4502L36.0216 8.30209C35.9444 8.60371 36.0484 8.92282 36.2885 9.12102C37.2319 9.90096 38.0992 10.7685 38.8789 11.7122C39.0769 11.9531 39.3967 12.0572 39.6986 11.9791L42.5505 11.2489C43.2183 12.2195 43.8087 13.241 44.3164 14.3041L42.26 16.4101C42.0425 16.6328 41.9734 16.9612 42.0825 17.2527C42.509 18.3996 42.8251 19.5846 43.0264 20.7916C43.0777 21.099 43.302 21.3489 43.602 21.4331L46.3919 22.2168V25.7832Z" fill="#D4B982"/>
<path d="M24.0001 7.91882C15.1187 7.91882 7.91895 15.1186 7.91895 24C7.9288 32.8773 15.1228 40.0713 24.0001 40.0811C32.8815 40.0811 40.0812 32.8814 40.0812 24C40.0812 15.1186 32.8815 7.91882 24.0001 7.91882ZM34.7705 33.6335L33.0968 31.9597L31.9598 33.0968L33.6335 34.7705C31.1935 36.9614 28.0785 38.2532 24.804 38.4324V36.0609H23.1959V38.4324C19.9216 38.2533 16.8066 36.9614 14.3665 34.7705L16.0402 33.0968L14.9032 31.9597L13.2294 33.6335C11.0386 31.1935 9.74667 28.0784 9.56756 24.804H11.939V23.1959H9.56776C9.74687 19.9216 11.0388 16.8066 13.2296 14.3665L14.9034 16.0402L16.0404 14.9032L14.3667 13.2294C16.8067 11.0386 19.9217 9.74675 23.1961 9.56754V11.939H24.8042V9.56764C28.0786 9.74675 31.1936 11.0387 33.6337 13.2295L31.96 14.9033L33.097 16.0403L34.7707 14.3666C36.9616 16.8066 38.2535 19.9216 38.4326 23.196H36.0611V24.8041H38.4326C38.2533 28.0783 36.9614 31.1934 34.7705 33.6335Z" fill="#D4B982"/>
<path d="M30.8785 16.8985C30.6085 16.7186 30.2568 16.7186 29.9868 16.8985L24.1512 20.7892C24.1009 20.7861 24.0515 20.7837 24.0004 20.7837C22.2241 20.7837 20.7842 22.2236 20.7842 23.9999C20.7842 25.7762 22.2241 27.2161 24.0004 27.2161C25.776 27.2143 27.2148 25.7755 27.2166 23.9999C27.2166 23.9497 27.2143 23.8994 27.2111 23.85L31.1018 18.0135C31.348 17.6439 31.2481 17.1447 30.8785 16.8985ZM25.7081 23.2045C25.5982 23.377 25.5541 23.5832 25.5841 23.7855C25.5978 23.8563 25.6059 23.9279 25.6084 23.9999C25.6084 24.8881 24.8885 25.608 24.0003 25.608C23.1121 25.608 22.3922 24.8881 22.3922 23.9999C22.3922 23.1117 23.1121 22.3918 24.0003 22.3918C24.0776 22.3948 24.1545 22.4038 24.2304 22.4185C24.428 22.4474 24.6293 22.4024 24.7957 22.2921L27.5329 20.4673L25.7081 23.2045Z" fill="#D4B982"/>
</svg>
