<svg width="44" height="43" viewBox="0 0 44 43" fill="none" xmlns="http://www.w3.org/2000/svg">
<path d="M39.85 17.3C42.142 17.3 44 19.158 44 21.45C44 23.742 42.142 25.6 39.85 25.6H31.1954C28.4339 25.6 26.1953 27.8386 26.1953 30.6V38.7535C26.1953 41.0988 24.2941 43 21.9488 43C19.6036 43 17.7023 41.0988 17.7023 38.7535V30.6C17.7023 27.8386 15.4637 25.6 12.7023 25.6H4.15C1.85802 25.6 0 23.742 0 21.45C0 19.158 1.85802 17.3 4.15 17.3H12.7023C15.4637 17.3 17.7023 15.0614 17.7023 12.3V4.24652C17.7023 1.90123 19.6036 0 21.9488 0C24.2941 0 26.1953 1.90123 26.1953 4.24651V12.3C26.1953 15.0614 28.4339 17.3 31.1953 17.3H39.85Z" fill="#D4B982"/>
</svg>
