<svg width="384" height="184" viewBox="0 0 384 184" fill="none" xmlns="http://www.w3.org/2000/svg">
<rect width="384" height="184" rx="20" fill="white"/>
<path d="M31.5 41H33.36V55H31.5V41ZM44.4633 41H46.2033V55H44.4633V53.28C43.5966 54.6 42.3366 55.26 40.6833 55.26C39.2833 55.26 38.0899 54.7533 37.1033 53.74C36.1166 52.7133 35.6233 51.4667 35.6233 50C35.6233 48.5333 36.1166 47.2933 37.1033 46.28C38.0899 45.2533 39.2833 44.74 40.6833 44.74C42.3366 44.74 43.5966 45.4 44.4633 46.72V41ZM40.9033 53.58C41.9166 53.58 42.7633 53.24 43.4433 52.56C44.1233 51.8667 44.4633 51.0133 44.4633 50C44.4633 48.9867 44.1233 48.14 43.4433 47.46C42.7633 46.7667 41.9166 46.42 40.9033 46.42C39.9033 46.42 39.0633 46.7667 38.3833 47.46C37.7033 48.14 37.3633 48.9867 37.3633 50C37.3633 51.0133 37.7033 51.8667 38.3833 52.56C39.0633 53.24 39.9033 53.58 40.9033 53.58ZM50.0595 50.8C50.2329 51.6933 50.6395 52.3867 51.2795 52.88C51.9329 53.3733 52.7329 53.62 53.6795 53.62C54.9995 53.62 55.9595 53.1333 56.5595 52.16L58.0395 53C57.0662 54.5067 55.5995 55.26 53.6395 55.26C52.0529 55.26 50.7595 54.7667 49.7595 53.78C48.7729 52.78 48.2795 51.52 48.2795 50C48.2795 48.4933 48.7662 47.24 49.7395 46.24C50.7129 45.24 51.9729 44.74 53.5195 44.74C54.9862 44.74 56.1795 45.26 57.0995 46.3C58.0329 47.3267 58.4995 48.5667 58.4995 50.02C58.4995 50.2733 58.4795 50.5333 58.4395 50.8H50.0595ZM53.5195 46.38C52.5862 46.38 51.8129 46.6467 51.1995 47.18C50.5862 47.7 50.2062 48.4 50.0595 49.28H56.7395C56.5929 48.3333 56.2195 47.6133 55.6195 47.12C55.0195 46.6267 54.3195 46.38 53.5195 46.38ZM68.7602 45H70.5002V55H68.7602V53.28C67.8935 54.6 66.6335 55.26 64.9802 55.26C63.5802 55.26 62.3868 54.7533 61.4002 53.74C60.4135 52.7133 59.9202 51.4667 59.9202 50C59.9202 48.5333 60.4135 47.2933 61.4002 46.28C62.3868 45.2533 63.5802 44.74 64.9802 44.74C66.6335 44.74 67.8935 45.4 68.7602 46.72V45ZM65.2002 53.58C66.2135 53.58 67.0602 53.24 67.7402 52.56C68.4202 51.8667 68.7602 51.0133 68.7602 50C68.7602 48.9867 68.4202 48.14 67.7402 47.46C67.0602 46.7667 66.2135 46.42 65.2002 46.42C64.2002 46.42 63.3602 46.7667 62.6802 47.46C62.0002 48.14 61.6602 48.9867 61.6602 50C61.6602 51.0133 62.0002 51.8667 62.6802 52.56C63.3602 53.24 64.2002 53.58 65.2002 53.58ZM74.6169 47.7C74.6169 48.0867 74.8102 48.4 75.1969 48.64C75.5835 48.8667 76.0502 49.0533 76.5969 49.2C77.1435 49.3333 77.6902 49.4933 78.2369 49.68C78.7835 49.8533 79.2502 50.16 79.6369 50.6C80.0235 51.0267 80.2169 51.58 80.2169 52.26C80.2169 53.1667 79.8635 53.8933 79.1569 54.44C78.4635 54.9867 77.5702 55.26 76.4769 55.26C75.5035 55.26 74.6702 55.0467 73.9769 54.62C73.2835 54.1933 72.7902 53.6267 72.4969 52.92L73.9969 52.06C74.1569 52.54 74.4569 52.92 74.8969 53.2C75.3369 53.48 75.8635 53.62 76.4769 53.62C77.0502 53.62 77.5235 53.5133 77.8969 53.3C78.2702 53.0733 78.4569 52.7267 78.4569 52.26C78.4569 51.8733 78.2635 51.5667 77.8769 51.34C77.4902 51.1 77.0235 50.9133 76.4769 50.78C75.9302 50.6333 75.3835 50.4667 74.8369 50.28C74.2902 50.0933 73.8235 49.7867 73.4369 49.36C73.0502 48.9333 72.8569 48.3867 72.8569 47.72C72.8569 46.8533 73.1902 46.14 73.8569 45.58C74.5369 45.02 75.3835 44.74 76.3969 44.74C77.2102 44.74 77.9302 44.9267 78.5569 45.3C79.1969 45.66 79.6769 46.1667 79.9969 46.82L78.5369 47.64C78.1769 46.7867 77.4635 46.36 76.3969 46.36C75.9035 46.36 75.4835 46.48 75.1369 46.72C74.7902 46.9467 74.6169 47.2733 74.6169 47.7Z" fill="#333333"/>
<path d="M90.6068 90.1214C90.5364 90.0181 90.4444 89.9313 90.3374 89.8669L82.0373 85.0774L73.7374 80.2824L65.4374 75.4924C65.3043 75.4157 65.1534 75.3754 64.9999 75.3754C64.8463 75.3754 64.6954 75.4157 64.5624 75.4924L56.2624 80.2824L47.9624 85.0774L39.6624 89.8669C39.5294 89.9438 39.419 90.0543 39.3422 90.1874C39.2654 90.3204 39.225 90.4713 39.2249 90.6249V119.375C39.2249 119.528 39.2654 119.679 39.3422 119.812C39.4189 119.945 39.5294 120.056 39.6624 120.133L47.9624 124.924L56.2624 129.716L64.5624 134.508C64.6954 134.585 64.8463 134.625 64.9999 134.625C65.1534 134.625 65.3043 134.585 65.4374 134.508L73.7374 129.716L82.0373 124.924L90.3374 120.133C90.4703 120.056 90.5808 119.945 90.6575 119.812C90.7343 119.679 90.7748 119.528 90.7749 119.375V90.6249C90.773 90.4436 90.7142 90.2675 90.6068 90.1214ZM89.0249 101.724V109.286L82.4748 113.067V105.505L86.5214 103.169L89.0249 101.724ZM40.9749 99.7029V92.1404L47.5249 95.9219V103.484L45.0214 102.039L40.9749 99.7029ZM89.0249 99.7029L84.9784 102.039L82.4748 103.484V95.9219L89.0249 92.1404V99.7029ZM52.0684 98.5449L55.8249 100.715V108.276L49.2749 104.495V96.9319L52.0684 98.5449ZM50.1499 95.4154L56.6999 91.6354L63.2499 95.4154L56.6999 99.1999L52.8254 96.9634L50.1499 95.4154ZM77.1729 96.9619L73.2999 99.1999L66.7499 95.4154L73.2999 91.6354L79.8498 95.4154L77.1729 96.9619ZM64.9999 103.989L58.4499 100.209L64.9999 96.4254L71.5499 100.209L64.9999 103.989ZM57.5749 109.286V101.725L64.1249 105.505V113.067L57.5749 109.286ZM65.8749 105.505L72.4249 101.725V109.286L65.8749 113.067V105.505ZM80.7248 96.9319V104.495L74.1749 108.276V100.715L77.9314 98.5449L80.7248 96.9319ZM64.9999 94.4049L58.4499 90.6249L64.9999 86.8449L71.5499 90.6249L64.9999 94.4049ZM49.2749 106.515L55.8249 110.297V117.859L49.2749 114.078V106.515ZM57.5749 118.87V111.307L64.1249 115.088V122.65L57.5749 118.87ZM65.8749 115.088L72.4249 111.307V118.87L65.8749 122.65V115.088ZM74.1749 110.297L80.7248 106.515V114.078L74.1749 117.859V110.297ZM40.9749 101.724L43.4784 103.169L47.5249 105.505V113.067L40.9749 109.286V101.724ZM81.5998 94.4049L75.0499 90.6249L81.5998 86.8449L88.1499 90.6249L81.5998 94.4049ZM73.2999 89.6144L66.7499 85.8344L73.2999 82.0499L79.8498 85.8339L73.2999 89.6144ZM64.9999 77.2604L71.5499 81.0404L64.9999 84.8244L58.4499 81.0404L64.9999 77.2604ZM56.6999 82.0499L63.2499 85.8339L56.6999 89.6139L50.1499 85.8339L56.6999 82.0499ZM48.3999 86.8449L54.9499 90.6249L48.3999 94.4049L41.8499 90.6249L48.3999 86.8449ZM40.9749 111.307L47.5249 115.088V122.65L40.9749 118.87V111.307ZM49.2749 116.1L55.8249 119.881V127.444L49.2749 123.662V116.1ZM57.5749 120.891L64.1249 124.673V132.235L57.5749 128.454V120.891ZM65.8749 124.673L72.4249 120.891V128.454L65.8749 132.235V124.673ZM74.1749 119.881L80.7248 116.1V123.662L74.1749 127.444V119.881ZM82.4748 122.65V115.088L89.0249 111.307V118.87L82.4748 122.65Z" fill="#D4B982"/>
<path d="M167.85 80H217.15C217.619 80 218 80.3806 218 80.85V130.15C218 130.619 217.619 131 217.15 131H167.85C167.381 131 167 130.619 167 130.15V80.85C167 80.3806 167.381 80 167.85 80ZM216.3 81.7H193.35V87.9373C196.008 87.0053 198.918 88.4045 199.85 91.0624C200.782 93.7204 199.383 96.6307 196.725 97.5627C195.633 97.9457 194.442 97.9457 193.35 97.5627V104.65H201.85C202.319 104.65 202.7 105.031 202.7 105.5C202.7 105.684 202.64 105.863 202.53 106.01C202.084 106.596 201.845 107.314 201.85 108.05C201.85 109.928 203.372 111.45 205.25 111.45C207.128 111.45 208.65 109.928 208.65 108.05C208.655 107.314 208.416 106.596 207.97 106.01C207.688 105.634 207.764 105.102 208.14 104.82C208.287 104.71 208.466 104.65 208.65 104.65H216.3V81.7ZM192.877 120.885C193.168 121.029 193.351 121.326 193.35 121.65V129.3H216.3V106.35H210.063C210.995 109.008 209.596 111.918 206.938 112.85C204.28 113.782 201.369 112.383 200.437 109.725C200.054 108.633 200.054 107.442 200.437 106.35H193.35V114.85C193.35 115.319 192.969 115.7 192.5 115.7C192.316 115.7 192.137 115.64 191.99 115.53C191.404 115.084 190.686 114.845 189.95 114.85C188.072 114.85 186.55 116.372 186.55 118.25C186.55 120.128 188.072 121.65 189.95 121.65C190.686 121.655 191.404 121.416 191.99 120.97C192.246 120.776 192.589 120.743 192.877 120.885ZM168.7 129.3H191.65V123.063C188.992 123.995 186.082 122.596 185.15 119.938C184.218 117.28 185.617 114.369 188.275 113.437C189.367 113.054 190.558 113.054 191.65 113.437V106.35H182.3C181.831 106.35 181.45 105.969 181.45 105.5C181.45 105.232 181.576 104.981 181.79 104.82C183.292 103.693 183.597 101.562 182.47 100.06C181.343 98.5578 179.212 98.2533 177.71 99.38C176.208 100.507 175.903 102.638 177.03 104.14C177.223 104.398 177.452 104.627 177.71 104.82C178.086 105.102 178.162 105.634 177.88 106.01C177.719 106.224 177.468 106.35 177.2 106.35H168.7V129.3ZM168.7 104.65H175.338C173.925 102.213 174.756 99.0926 177.192 97.6801C179.629 96.2676 182.75 97.098 184.162 99.5349C185.079 101.117 185.079 103.068 184.162 104.65H191.65V96.1501C191.65 95.6807 192.031 95.3001 192.5 95.3001C192.684 95.3001 192.863 95.3597 193.01 95.4701C193.596 95.9157 194.314 96.1548 195.05 96.1501C196.928 96.1501 198.45 94.6279 198.45 92.7501C198.45 90.8723 196.928 89.3501 195.05 89.3501C194.314 89.3454 193.596 89.5845 193.01 90.0301C192.754 90.2237 192.411 90.2566 192.123 90.1151C191.832 89.9711 191.649 89.6744 191.65 89.3501V81.7H168.7V104.65Z" fill="#D4B982"/>
<path fill-rule="evenodd" clip-rule="evenodd" d="M296.739 108.409C296.794 108.487 296.953 108.667 297.241 108.667H302.12V120.038C302.12 122.08 303.784 123.741 305.832 123.741H311.464V117.157H320.293V126.865H325.167V128.806H318.347V119.099H313.41V123.741V129.846V131.858H330.559V126.121C330.559 124.16 330.86 122.227 331.428 120.393H324.98V118.451H332.148C333.076 116.307 334.384 114.351 336.03 112.718C336.376 112.376 336.702 112.019 337.02 111.656H325.629V102.272H333.934V96.0162H320.293V104.106H308.751V109.714H320.293V111.656H308.751H306.805V109.714V102.164H318.347V96.0162V94.5057V82.2093H324.98V84.1508H320.293V94.0747H335.88V104.213H327.575V109.714H338.518C341.079 105.943 342.315 101.388 341.951 96.7456C341.724 93.843 340.877 91.1125 339.546 88.6811H328.224V86.7395H338.337C335.089 82.1322 329.959 78.9326 324.034 78.2705C320.209 77.8447 316.472 78.4983 313.148 80.0082V89.1127H308.39V94.0747H313.688V96.0162H306.444V87.1712H311.202V81.0191C306.742 83.6363 303.242 87.8889 301.638 93.1693C301.053 95.092 299.821 98.7305 298.671 102.069H302.12V104.011H298C297.472 105.533 296.996 106.895 296.66 107.856C296.569 108.115 296.67 108.314 296.739 108.409ZM294.823 107.215C295.988 103.89 298.802 95.8091 299.776 92.6056C303.01 81.9594 313.304 75.1168 324.25 76.3413C334.804 77.5198 343.064 86.038 343.891 96.5935C344.318 102.031 342.741 107.361 339.527 111.647V111.656H339.52C338.878 112.512 338.174 113.33 337.403 114.096C334.29 117.182 332.505 121.564 332.505 126.121V133.8H311.464V129.846V125.683H305.832C302.711 125.683 300.174 123.151 300.174 120.038V110.609H297.241C296.412 110.609 295.631 110.207 295.152 109.533C294.672 108.861 294.55 107.994 294.823 107.215Z" fill="#D4B982"/>
</svg>
