<svg width="752" height="754" viewBox="0 0 752 754" fill="none" xmlns="http://www.w3.org/2000/svg">
<line x1="377" y1="547" x2="377" y2="667" stroke="#D4B982" stroke-width="2" stroke-linecap="round" stroke-dasharray="4 4"/>
<path d="M411 403.5C411 516.44 319.221 608 206 608C92.7793 608 1 516.44 1 403.5C1 290.56 92.7793 199 206 199C319.221 199 411 290.56 411 403.5Z" stroke="#D4B982" stroke-width="2"/>
<circle cx="546.5" cy="403.5" r="204.5" stroke="#D4B982" stroke-width="2"/>
<path fill-rule="evenodd" clip-rule="evenodd" d="M376.457 518.929C398.889 486.027 412 446.291 412 403.5C412 360.709 398.889 320.973 376.457 288.071C354.079 320.973 341 360.709 341 403.5C341 446.291 354.079 486.027 376.457 518.929Z" fill="#D4B982" fill-opacity="0.6"/>
<path fill-rule="evenodd" clip-rule="evenodd" d="M261.071 718.457C293.973 740.889 333.709 754 376.5 754C419.291 754 459.027 740.889 491.929 718.457C459.027 696.079 419.291 683 376.5 683C333.709 683 293.973 696.079 261.071 718.457Z" fill="#D4B982" fill-opacity="0.6"/>
<path d="M583 205C583 317.652 490.337 409 376 409C261.663 409 169 317.652 169 205C169 92.3476 261.663 1 376 1C490.337 1 583 92.3476 583 205Z" stroke="#D4B982" stroke-width="2"/>
<path d="M327.54 167.32C326.1 168.68 324.22 169.36 321.9 169.36C319.58 169.36 317.7 168.68 316.26 167.32C314.82 165.96 314.1 164.14 314.1 161.86V148H316.2V161.86C316.2 163.54 316.7 164.87 317.7 165.85C318.7 166.83 320.1 167.32 321.9 167.32C323.7 167.32 325.1 166.83 326.1 165.85C327.1 164.87 327.6 163.54 327.6 161.86V148H329.7V161.86C329.7 164.14 328.98 165.96 327.54 167.32ZM334.205 148H336.305V169H334.205V148ZM356.719 148C359.579 148 361.939 149.02 363.799 151.06C365.679 153.08 366.619 155.56 366.619 158.5C366.619 161.44 365.679 163.93 363.799 165.97C361.939 167.99 359.579 169 356.719 169H348.619V148H356.719ZM356.719 167.02C359.019 167.02 360.899 166.2 362.359 164.56C363.839 162.92 364.579 160.9 364.579 158.5C364.579 156.1 363.839 154.08 362.359 152.44C360.899 150.8 359.019 149.98 356.719 149.98H350.719V167.02H356.719ZM376.841 153.64C379.061 153.64 380.851 154.43 382.211 156.01C383.591 157.57 384.281 159.42 384.281 161.56C384.281 161.78 384.261 162.09 384.221 162.49H371.051C371.251 164.01 371.891 165.22 372.971 166.12C374.071 167 375.421 167.44 377.021 167.44C378.161 167.44 379.141 167.21 379.961 166.75C380.801 166.27 381.431 165.65 381.851 164.89L383.591 165.91C382.931 166.97 382.031 167.81 380.891 168.43C379.751 169.05 378.451 169.36 376.991 169.36C374.631 169.36 372.711 168.62 371.231 167.14C369.751 165.66 369.011 163.78 369.011 161.5C369.011 159.26 369.741 157.39 371.201 155.89C372.661 154.39 374.541 153.64 376.841 153.64ZM376.841 155.56C375.281 155.56 373.971 156.03 372.911 156.97C371.871 157.89 371.251 159.09 371.051 160.57H382.241C382.041 158.99 381.431 157.76 380.411 156.88C379.391 156 378.201 155.56 376.841 155.56ZM388.404 157.93C388.404 158.61 388.704 159.15 389.304 159.55C389.904 159.95 390.634 160.26 391.494 160.48C392.354 160.7 393.214 160.95 394.074 161.23C394.934 161.49 395.664 161.94 396.264 162.58C396.864 163.2 397.164 164.02 397.164 165.04C397.164 166.32 396.654 167.36 395.634 168.16C394.634 168.96 393.334 169.36 391.734 169.36C390.294 169.36 389.064 169.04 388.044 168.4C387.044 167.76 386.344 166.93 385.944 165.91L387.624 164.92C387.904 165.7 388.404 166.32 389.124 166.78C389.864 167.22 390.734 167.44 391.734 167.44C392.714 167.44 393.534 167.25 394.194 166.87C394.854 166.47 395.184 165.86 395.184 165.04C395.184 164.36 394.884 163.82 394.284 163.42C393.684 163.02 392.954 162.71 392.094 162.49C391.234 162.27 390.374 162.03 389.514 161.77C388.654 161.49 387.924 161.04 387.324 160.42C386.724 159.78 386.424 158.95 386.424 157.93C386.424 156.71 386.904 155.69 387.864 154.87C388.844 154.05 390.074 153.64 391.554 153.64C392.774 153.64 393.844 153.92 394.764 154.48C395.684 155.02 396.364 155.76 396.804 156.7L395.154 157.66C394.574 156.26 393.374 155.56 391.554 155.56C390.694 155.56 389.954 155.77 389.334 156.19C388.714 156.59 388.404 157.17 388.404 157.93ZM402.331 150.4C402.051 150.68 401.711 150.82 401.311 150.82C400.911 150.82 400.571 150.68 400.291 150.4C400.011 150.12 399.871 149.78 399.871 149.38C399.871 148.98 400.011 148.64 400.291 148.36C400.571 148.08 400.911 147.94 401.311 147.94C401.711 147.94 402.051 148.08 402.331 148.36C402.611 148.64 402.751 148.98 402.751 149.38C402.751 149.78 402.611 150.12 402.331 150.4ZM400.321 169V154H402.301V169H400.321ZM419.402 154H421.382V168.4C421.382 170.56 420.642 172.26 419.162 173.5C417.682 174.74 415.912 175.36 413.852 175.36C410.332 175.36 407.962 174.14 406.742 171.7L408.482 170.71C409.382 172.53 411.172 173.44 413.852 173.44C415.572 173.44 416.922 172.98 417.902 172.06C418.902 171.16 419.402 169.94 419.402 168.4V166.06C418.022 168.26 416.002 169.36 413.342 169.36C411.202 169.36 409.372 168.6 407.852 167.08C406.352 165.56 405.602 163.7 405.602 161.5C405.602 159.3 406.352 157.44 407.852 155.92C409.372 154.4 411.202 153.64 413.342 153.64C416.002 153.64 418.022 154.74 419.402 156.94V154ZM409.292 165.73C410.432 166.87 411.832 167.44 413.492 167.44C415.152 167.44 416.552 166.87 417.692 165.73C418.832 164.57 419.402 163.16 419.402 161.5C419.402 159.84 418.832 158.44 417.692 157.3C416.552 156.14 415.152 155.56 413.492 155.56C411.832 155.56 410.432 156.14 409.292 157.3C408.152 158.44 407.582 159.84 407.582 161.5C407.582 163.16 408.152 164.57 409.292 165.73ZM432.595 153.64C434.415 153.64 435.845 154.2 436.885 155.32C437.945 156.42 438.475 157.91 438.475 159.79V169H436.495V159.79C436.495 158.45 436.135 157.41 435.415 156.67C434.715 155.93 433.715 155.56 432.415 155.56C430.975 155.56 429.805 156.02 428.905 156.94C428.005 157.84 427.555 159.24 427.555 161.14V169H425.575V154H427.555V156.34C428.675 154.54 430.355 153.64 432.595 153.64Z" fill="black"/>
<path d="M93.54 451.32C92.1 452.68 90.22 453.36 87.9 453.36C85.58 453.36 83.7 452.68 82.26 451.32C80.82 449.96 80.1 448.14 80.1 445.86V432H82.2V445.86C82.2 447.54 82.7 448.87 83.7 449.85C84.7 450.83 86.1 451.32 87.9 451.32C89.7 451.32 91.1 450.83 92.1 449.85C93.1 448.87 93.6 447.54 93.6 445.86V432H95.7V445.86C95.7 448.14 94.98 449.96 93.54 451.32ZM114.312 453H111.912L106.212 444.03L100.512 453H98.1117L105.012 442.17L98.5617 432H100.932L106.212 440.28L111.492 432H113.862L107.412 442.17L114.312 453ZM132.914 432C135.774 432 138.134 433.02 139.994 435.06C141.874 437.08 142.814 439.56 142.814 442.5C142.814 445.44 141.874 447.93 139.994 449.97C138.134 451.99 135.774 453 132.914 453H124.814V432H132.914ZM132.914 451.02C135.214 451.02 137.094 450.2 138.554 448.56C140.034 446.92 140.774 444.9 140.774 442.5C140.774 440.1 140.034 438.08 138.554 436.44C137.094 434.8 135.214 433.98 132.914 433.98H126.914V451.02H132.914ZM153.036 437.64C155.256 437.64 157.046 438.43 158.406 440.01C159.786 441.57 160.476 443.42 160.476 445.56C160.476 445.78 160.456 446.09 160.416 446.49H147.246C147.446 448.01 148.086 449.22 149.166 450.12C150.266 451 151.616 451.44 153.216 451.44C154.356 451.44 155.336 451.21 156.156 450.75C156.996 450.27 157.626 449.65 158.046 448.89L159.786 449.91C159.126 450.97 158.226 451.81 157.086 452.43C155.946 453.05 154.646 453.36 153.186 453.36C150.826 453.36 148.906 452.62 147.426 451.14C145.946 449.66 145.206 447.78 145.206 445.5C145.206 443.26 145.936 441.39 147.396 439.89C148.856 438.39 150.736 437.64 153.036 437.64ZM153.036 439.56C151.476 439.56 150.166 440.03 149.106 440.97C148.066 441.89 147.446 443.09 147.246 444.57H158.436C158.236 442.99 157.626 441.76 156.606 440.88C155.586 440 154.396 439.56 153.036 439.56ZM164.599 441.93C164.599 442.61 164.899 443.15 165.499 443.55C166.099 443.95 166.829 444.26 167.689 444.48C168.549 444.7 169.409 444.95 170.269 445.23C171.129 445.49 171.859 445.94 172.459 446.58C173.059 447.2 173.359 448.02 173.359 449.04C173.359 450.32 172.849 451.36 171.829 452.16C170.829 452.96 169.529 453.36 167.929 453.36C166.489 453.36 165.259 453.04 164.239 452.4C163.239 451.76 162.539 450.93 162.139 449.91L163.819 448.92C164.099 449.7 164.599 450.32 165.319 450.78C166.059 451.22 166.929 451.44 167.929 451.44C168.909 451.44 169.729 451.25 170.389 450.87C171.049 450.47 171.379 449.86 171.379 449.04C171.379 448.36 171.079 447.82 170.479 447.42C169.879 447.02 169.149 446.71 168.289 446.49C167.429 446.27 166.569 446.03 165.709 445.77C164.849 445.49 164.119 445.04 163.519 444.42C162.919 443.78 162.619 442.95 162.619 441.93C162.619 440.71 163.099 439.69 164.059 438.87C165.039 438.05 166.269 437.64 167.749 437.64C168.969 437.64 170.039 437.92 170.959 438.48C171.879 439.02 172.559 439.76 172.999 440.7L171.349 441.66C170.769 440.26 169.569 439.56 167.749 439.56C166.889 439.56 166.149 439.77 165.529 440.19C164.909 440.59 164.599 441.17 164.599 441.93ZM178.526 434.4C178.246 434.68 177.906 434.82 177.506 434.82C177.106 434.82 176.766 434.68 176.486 434.4C176.206 434.12 176.066 433.78 176.066 433.38C176.066 432.98 176.206 432.64 176.486 432.36C176.766 432.08 177.106 431.94 177.506 431.94C177.906 431.94 178.246 432.08 178.526 432.36C178.806 432.64 178.946 432.98 178.946 433.38C178.946 433.78 178.806 434.12 178.526 434.4ZM176.516 453V438H178.496V453H176.516ZM195.598 438H197.578V452.4C197.578 454.56 196.838 456.26 195.358 457.5C193.878 458.74 192.108 459.36 190.048 459.36C186.528 459.36 184.158 458.14 182.938 455.7L184.678 454.71C185.578 456.53 187.368 457.44 190.048 457.44C191.768 457.44 193.118 456.98 194.098 456.06C195.098 455.16 195.598 453.94 195.598 452.4V450.06C194.218 452.26 192.198 453.36 189.538 453.36C187.398 453.36 185.568 452.6 184.048 451.08C182.548 449.56 181.798 447.7 181.798 445.5C181.798 443.3 182.548 441.44 184.048 439.92C185.568 438.4 187.398 437.64 189.538 437.64C192.198 437.64 194.218 438.74 195.598 440.94V438ZM185.488 449.73C186.628 450.87 188.028 451.44 189.688 451.44C191.348 451.44 192.748 450.87 193.888 449.73C195.028 448.57 195.598 447.16 195.598 445.5C195.598 443.84 195.028 442.44 193.888 441.3C192.748 440.14 191.348 439.56 189.688 439.56C188.028 439.56 186.628 440.14 185.488 441.3C184.348 442.44 183.778 443.84 183.778 445.5C183.778 447.16 184.348 448.57 185.488 449.73ZM208.79 437.64C210.61 437.64 212.04 438.2 213.08 439.32C214.14 440.42 214.67 441.91 214.67 443.79V453H212.69V443.79C212.69 442.45 212.33 441.41 211.61 440.67C210.91 439.93 209.91 439.56 208.61 439.56C207.17 439.56 206 440.02 205.1 440.94C204.2 441.84 203.75 443.24 203.75 445.14V453H201.77V438H203.75V440.34C204.87 438.54 206.55 437.64 208.79 437.64Z" fill="black"/>
<path d="M477.5 432C480.36 432 482.72 433.02 484.58 435.06C486.46 437.08 487.4 439.56 487.4 442.5C487.4 445.44 486.46 447.93 484.58 449.97C482.72 451.99 480.36 453 477.5 453H469.4V432H477.5ZM477.5 451.02C479.8 451.02 481.68 450.2 483.14 448.56C484.62 446.92 485.36 444.9 485.36 442.5C485.36 440.1 484.62 438.08 483.14 436.44C481.68 434.8 479.8 433.98 477.5 433.98H471.5V451.02H477.5ZM492.702 434.4C492.422 434.68 492.082 434.82 491.682 434.82C491.282 434.82 490.942 434.68 490.662 434.4C490.382 434.12 490.242 433.78 490.242 433.38C490.242 432.98 490.382 432.64 490.662 432.36C490.942 432.08 491.282 431.94 491.682 431.94C492.082 431.94 492.422 432.08 492.702 432.36C492.982 432.64 493.122 432.98 493.122 433.38C493.122 433.78 492.982 434.12 492.702 434.4ZM490.692 453V438H492.672V453H490.692ZM509.773 438H511.753V452.4C511.753 454.56 511.013 456.26 509.533 457.5C508.053 458.74 506.283 459.36 504.223 459.36C500.703 459.36 498.333 458.14 497.113 455.7L498.853 454.71C499.753 456.53 501.543 457.44 504.223 457.44C505.943 457.44 507.293 456.98 508.273 456.06C509.273 455.16 509.773 453.94 509.773 452.4V450.06C508.393 452.26 506.373 453.36 503.713 453.36C501.573 453.36 499.743 452.6 498.223 451.08C496.723 449.56 495.973 447.7 495.973 445.5C495.973 443.3 496.723 441.44 498.223 439.92C499.743 438.4 501.573 437.64 503.713 437.64C506.373 437.64 508.393 438.74 509.773 440.94V438ZM499.663 449.73C500.803 450.87 502.203 451.44 503.863 451.44C505.523 451.44 506.923 450.87 508.063 449.73C509.203 448.57 509.773 447.16 509.773 445.5C509.773 443.84 509.203 442.44 508.063 441.3C506.923 440.14 505.523 439.56 503.863 439.56C502.203 439.56 500.803 440.14 499.663 441.3C498.523 442.44 497.953 443.84 497.953 445.5C497.953 447.16 498.523 448.57 499.663 449.73ZM517.956 434.4C517.676 434.68 517.336 434.82 516.936 434.82C516.536 434.82 516.196 434.68 515.916 434.4C515.636 434.12 515.496 433.78 515.496 433.38C515.496 432.98 515.636 432.64 515.916 432.36C516.196 432.08 516.536 431.94 516.936 431.94C517.336 431.94 517.676 432.08 517.956 432.36C518.236 432.64 518.376 432.98 518.376 433.38C518.376 433.78 518.236 434.12 517.956 434.4ZM515.946 453V438H517.926V453H515.946ZM530.077 439.92H525.757V449.01C525.757 449.83 525.917 450.42 526.237 450.78C526.557 451.12 527.037 451.3 527.677 451.32C528.317 451.32 529.117 451.3 530.077 451.26V453C527.977 453.32 526.397 453.17 525.337 452.55C524.297 451.93 523.777 450.75 523.777 449.01V439.92H520.627V438H523.777V434.4L525.757 433.8V438H530.077V439.92ZM545.369 438H547.349V453H545.369V450.06C543.989 452.26 541.969 453.36 539.309 453.36C537.169 453.36 535.339 452.6 533.819 451.08C532.319 449.56 531.569 447.7 531.569 445.5C531.569 443.3 532.319 441.44 533.819 439.92C535.339 438.4 537.169 437.64 539.309 437.64C541.969 437.64 543.989 438.74 545.369 440.94V438ZM535.259 449.73C536.399 450.87 537.799 451.44 539.459 451.44C541.119 451.44 542.519 450.87 543.659 449.73C544.799 448.57 545.369 447.16 545.369 445.5C545.369 443.84 544.799 442.44 543.659 441.3C542.519 440.14 541.119 439.56 539.459 439.56C537.799 439.56 536.399 440.14 535.259 441.3C534.119 442.44 533.549 443.84 533.549 445.5C533.549 447.16 534.119 448.57 535.259 449.73ZM551.541 453V431.1H553.521V453H551.541ZM584.723 432V453H582.623V435.18L575.273 447.48H574.973L567.623 435.18V453H565.523V432H568.133L575.123 443.7L582.113 432H584.723ZM602.117 438H604.097V453H602.117V450.06C600.737 452.26 598.717 453.36 596.057 453.36C593.917 453.36 592.087 452.6 590.567 451.08C589.067 449.56 588.317 447.7 588.317 445.5C588.317 443.3 589.067 441.44 590.567 439.92C592.087 438.4 593.917 437.64 596.057 437.64C598.717 437.64 600.737 438.74 602.117 440.94V438ZM592.007 449.73C593.147 450.87 594.547 451.44 596.207 451.44C597.867 451.44 599.267 450.87 600.407 449.73C601.547 448.57 602.117 447.16 602.117 445.5C602.117 443.84 601.547 442.44 600.407 441.3C599.267 440.14 597.867 439.56 596.207 439.56C594.547 439.56 593.147 440.14 592.007 441.3C590.867 442.44 590.297 443.84 590.297 445.5C590.297 447.16 590.867 448.57 592.007 449.73ZM610.269 440.49C611.189 438.67 612.769 437.76 615.009 437.76V439.68C613.649 439.68 612.519 440.08 611.619 440.88C610.719 441.68 610.269 442.94 610.269 444.66V453H608.289V438H610.269V440.49ZM629.843 453H627.203L619.703 445.77V453H617.723V432H619.703V444.63L626.843 438H629.543L621.803 445.2L629.843 453ZM637.983 437.64C640.203 437.64 641.993 438.43 643.353 440.01C644.733 441.57 645.423 443.42 645.423 445.56C645.423 445.78 645.403 446.09 645.363 446.49H632.193C632.393 448.01 633.033 449.22 634.113 450.12C635.213 451 636.563 451.44 638.163 451.44C639.303 451.44 640.283 451.21 641.103 450.75C641.943 450.27 642.573 449.65 642.993 448.89L644.733 449.91C644.073 450.97 643.173 451.81 642.033 452.43C640.893 453.05 639.593 453.36 638.133 453.36C635.773 453.36 633.853 452.62 632.373 451.14C630.893 449.66 630.153 447.78 630.153 445.5C630.153 443.26 630.883 441.39 632.343 439.89C633.803 438.39 635.683 437.64 637.983 437.64ZM637.983 439.56C636.423 439.56 635.113 440.03 634.053 440.97C633.013 441.89 632.393 443.09 632.193 444.57H643.383C643.183 442.99 642.573 441.76 641.553 440.88C640.533 440 639.343 439.56 637.983 439.56ZM656.083 439.92H651.763V449.01C651.763 449.83 651.923 450.42 652.243 450.78C652.563 451.12 653.043 451.3 653.683 451.32C654.323 451.32 655.123 451.3 656.083 451.26V453C653.983 453.32 652.403 453.17 651.343 452.55C650.303 451.93 649.783 450.75 649.783 449.01V439.92H646.633V438H649.783V434.4L651.763 433.8V438H656.083V439.92ZM661.393 434.4C661.113 434.68 660.773 434.82 660.373 434.82C659.973 434.82 659.633 434.68 659.353 434.4C659.073 434.12 658.933 433.78 658.933 433.38C658.933 432.98 659.073 432.64 659.353 432.36C659.633 432.08 659.973 431.94 660.373 431.94C660.773 431.94 661.113 432.08 661.393 432.36C661.673 432.64 661.813 432.98 661.813 433.38C661.813 433.78 661.673 434.12 661.393 434.4ZM659.383 453V438H661.363V453H659.383ZM672.585 437.64C674.405 437.64 675.835 438.2 676.875 439.32C677.935 440.42 678.465 441.91 678.465 443.79V453H676.485V443.79C676.485 442.45 676.125 441.41 675.405 440.67C674.705 439.93 673.705 439.56 672.405 439.56C670.965 439.56 669.795 440.02 668.895 440.94C667.995 441.84 667.545 443.24 667.545 445.14V453H665.565V438H667.545V440.34C668.665 438.54 670.345 437.64 672.585 437.64ZM695.193 438H697.173V452.4C697.173 454.56 696.433 456.26 694.953 457.5C693.473 458.74 691.703 459.36 689.643 459.36C686.123 459.36 683.753 458.14 682.533 455.7L684.273 454.71C685.173 456.53 686.963 457.44 689.643 457.44C691.363 457.44 692.713 456.98 693.693 456.06C694.693 455.16 695.193 453.94 695.193 452.4V450.06C693.813 452.26 691.793 453.36 689.133 453.36C686.993 453.36 685.163 452.6 683.643 451.08C682.143 449.56 681.393 447.7 681.393 445.5C681.393 443.3 682.143 441.44 683.643 439.92C685.163 438.4 686.993 437.64 689.133 437.64C691.793 437.64 693.813 438.74 695.193 440.94V438ZM685.083 449.73C686.223 450.87 687.623 451.44 689.283 451.44C690.943 451.44 692.343 450.87 693.483 449.73C694.623 448.57 695.193 447.16 695.193 445.5C695.193 443.84 694.623 442.44 693.483 441.3C692.343 440.14 690.943 439.56 689.283 439.56C687.623 439.56 686.223 440.14 685.083 441.3C683.943 442.44 683.373 443.84 683.373 445.5C683.373 447.16 683.943 448.57 685.083 449.73Z" fill="black"/>
<path d="M315.21 729.36C312.03 729.36 309.4 728.31 307.32 726.21C305.24 724.11 304.2 721.54 304.2 718.5C304.2 715.46 305.24 712.89 307.32 710.79C309.4 708.69 312.03 707.64 315.21 707.64C317.15 707.64 318.93 708.11 320.55 709.05C322.17 709.97 323.42 711.22 324.3 712.8L322.44 713.88C321.78 712.6 320.8 711.58 319.5 710.82C318.2 710.06 316.77 709.68 315.21 709.68C312.59 709.68 310.45 710.53 308.79 712.23C307.13 713.93 306.3 716.02 306.3 718.5C306.3 720.98 307.13 723.07 308.79 724.77C310.45 726.47 312.59 727.32 315.21 727.32C316.77 727.32 318.2 726.94 319.5 726.18C320.8 725.42 321.78 724.4 322.44 723.12L324.3 724.17C323.44 725.75 322.19 727.01 320.55 727.95C318.93 728.89 317.15 729.36 315.21 729.36ZM339.877 727.11C338.357 728.61 336.497 729.36 334.297 729.36C332.097 729.36 330.227 728.61 328.687 727.11C327.167 725.59 326.407 723.72 326.407 721.5C326.407 719.28 327.167 717.42 328.687 715.92C330.227 714.4 332.097 713.64 334.297 713.64C336.497 713.64 338.357 714.4 339.877 715.92C341.417 717.42 342.187 719.28 342.187 721.5C342.187 723.72 341.417 725.59 339.877 727.11ZM330.097 725.73C331.237 726.87 332.637 727.44 334.297 727.44C335.957 727.44 337.357 726.87 338.497 725.73C339.637 724.57 340.207 723.16 340.207 721.5C340.207 719.84 339.637 718.44 338.497 717.3C337.357 716.14 335.957 715.56 334.297 715.56C332.637 715.56 331.237 716.14 330.097 717.3C328.957 718.44 328.387 719.84 328.387 721.5C328.387 723.16 328.957 724.57 330.097 725.73ZM352.52 713.64C354.34 713.64 355.77 714.2 356.81 715.32C357.87 716.42 358.4 717.91 358.4 719.79V729H356.42V719.79C356.42 718.45 356.06 717.41 355.34 716.67C354.64 715.93 353.64 715.56 352.34 715.56C350.9 715.56 349.73 716.02 348.83 716.94C347.93 717.84 347.48 719.24 347.48 721.14V729H345.5V714H347.48V716.34C348.6 714.54 350.28 713.64 352.52 713.64ZM372.882 714H374.982L368.832 729H366.432L360.282 714H362.382L367.632 726.93L372.882 714ZM383.719 713.64C385.939 713.64 387.729 714.43 389.089 716.01C390.469 717.57 391.159 719.42 391.159 721.56C391.159 721.78 391.139 722.09 391.099 722.49H377.929C378.129 724.01 378.769 725.22 379.849 726.12C380.949 727 382.299 727.44 383.899 727.44C385.039 727.44 386.019 727.21 386.839 726.75C387.679 726.27 388.309 725.65 388.729 724.89L390.469 725.91C389.809 726.97 388.909 727.81 387.769 728.43C386.629 729.05 385.329 729.36 383.869 729.36C381.509 729.36 379.589 728.62 378.109 727.14C376.629 725.66 375.889 723.78 375.889 721.5C375.889 719.26 376.619 717.39 378.079 715.89C379.539 714.39 381.419 713.64 383.719 713.64ZM383.719 715.56C382.159 715.56 380.849 716.03 379.789 716.97C378.749 717.89 378.129 719.09 377.929 720.57H389.119C388.919 718.99 388.309 717.76 387.289 716.88C386.269 716 385.079 715.56 383.719 715.56ZM396.289 716.49C397.209 714.67 398.789 713.76 401.029 713.76V715.68C399.669 715.68 398.539 716.08 397.639 716.88C396.739 717.68 396.289 718.94 396.289 720.66V729H394.309V714H396.289V716.49ZM404.717 717.93C404.717 718.61 405.017 719.15 405.617 719.55C406.217 719.95 406.947 720.26 407.807 720.48C408.667 720.7 409.527 720.95 410.387 721.23C411.247 721.49 411.977 721.94 412.577 722.58C413.177 723.2 413.477 724.02 413.477 725.04C413.477 726.32 412.967 727.36 411.947 728.16C410.947 728.96 409.647 729.36 408.047 729.36C406.607 729.36 405.377 729.04 404.357 728.4C403.357 727.76 402.657 726.93 402.257 725.91L403.937 724.92C404.217 725.7 404.717 726.32 405.437 726.78C406.177 727.22 407.047 727.44 408.047 727.44C409.027 727.44 409.847 727.25 410.507 726.87C411.167 726.47 411.497 725.86 411.497 725.04C411.497 724.36 411.197 723.82 410.597 723.42C409.997 723.02 409.267 722.71 408.407 722.49C407.547 722.27 406.687 722.03 405.827 721.77C404.967 721.49 404.237 721.04 403.637 720.42C403.037 719.78 402.737 718.95 402.737 717.93C402.737 716.71 403.217 715.69 404.177 714.87C405.157 714.05 406.387 713.64 407.867 713.64C409.087 713.64 410.157 713.92 411.077 714.48C411.997 715.02 412.677 715.76 413.117 716.7L411.467 717.66C410.887 716.26 409.687 715.56 407.867 715.56C407.007 715.56 406.267 715.77 405.647 716.19C405.027 716.59 404.717 717.17 404.717 717.93ZM418.643 710.4C418.363 710.68 418.023 710.82 417.623 710.82C417.223 710.82 416.883 710.68 416.603 710.4C416.323 710.12 416.183 709.78 416.183 709.38C416.183 708.98 416.323 708.64 416.603 708.36C416.883 708.08 417.223 707.94 417.623 707.94C418.023 707.94 418.363 708.08 418.643 708.36C418.923 708.64 419.063 708.98 419.063 709.38C419.063 709.78 418.923 710.12 418.643 710.4ZM416.633 729V714H418.613V729H416.633ZM435.385 727.11C433.865 728.61 432.005 729.36 429.805 729.36C427.605 729.36 425.735 728.61 424.195 727.11C422.675 725.59 421.915 723.72 421.915 721.5C421.915 719.28 422.675 717.42 424.195 715.92C425.735 714.4 427.605 713.64 429.805 713.64C432.005 713.64 433.865 714.4 435.385 715.92C436.925 717.42 437.695 719.28 437.695 721.5C437.695 723.72 436.925 725.59 435.385 727.11ZM425.605 725.73C426.745 726.87 428.145 727.44 429.805 727.44C431.465 727.44 432.865 726.87 434.005 725.73C435.145 724.57 435.715 723.16 435.715 721.5C435.715 719.84 435.145 718.44 434.005 717.3C432.865 716.14 431.465 715.56 429.805 715.56C428.145 715.56 426.745 716.14 425.605 717.3C424.465 718.44 423.895 719.84 423.895 721.5C423.895 723.16 424.465 724.57 425.605 725.73ZM448.028 713.64C449.848 713.64 451.278 714.2 452.318 715.32C453.378 716.42 453.908 717.91 453.908 719.79V729H451.928V719.79C451.928 718.45 451.568 717.41 450.848 716.67C450.148 715.93 449.148 715.56 447.848 715.56C446.408 715.56 445.238 716.02 444.338 716.94C443.438 717.84 442.988 719.24 442.988 721.14V729H441.008V714H442.988V716.34C444.108 714.54 445.788 713.64 448.028 713.64Z" fill="black"/>
</svg>
