<svg width="48" height="48" viewBox="0 0 48 48" fill="none" xmlns="http://www.w3.org/2000/svg">
<g clip-path="url(#clip0)">
<path d="M18.5533 22.4381L14.8128 12.5263C14.8095 12.5176 14.8061 12.509 14.8026 12.5005C14.621 12.059 14.1954 11.7739 13.7181 11.7739H13.7169C13.239 11.7744 12.8134 12.0605 12.6325 12.5027C12.6296 12.5098 12.6267 12.5169 12.6241 12.5242L8.84929 22.4355C8.66353 22.9232 8.90854 23.4686 9.396 23.6548C9.8451 23.8263 10.4089 23.6373 10.6153 23.1081L11.3551 21.1655H16.0532L16.7853 23.1054C16.9695 23.5936 17.5146 23.8399 18.0029 23.6558C18.4911 23.4716 18.7376 22.9264 18.5533 22.4381ZM12.0749 19.2757L13.715 14.9696L15.34 19.2757H12.0749ZM31.937 23.7167C31.4402 23.7167 30.9921 23.3081 30.9921 22.7718V12.7188C30.9921 12.1969 31.4151 11.7739 31.937 11.7739H34.8572C36.6537 11.7739 38.1152 13.2355 38.1152 15.032C38.1152 15.7877 37.8568 16.4843 37.4237 17.0377C38.3856 17.6961 39.018 18.8025 39.018 20.0538C39.018 22.0669 37.3803 23.7047 35.3672 23.7047C34.6365 23.7048 31.9384 23.7167 31.937 23.7167ZM32.8819 18.2914V21.8229C33.7332 21.8194 34.9157 21.815 35.3671 21.815C36.3382 21.815 37.1282 21.025 37.1282 20.0539C37.1282 19.0821 36.3382 18.2915 35.3671 18.2915H32.8819V18.2914ZM32.8819 16.4017H34.8572C35.6117 16.4017 36.2254 15.7872 36.2254 15.032C36.2254 14.2775 35.6117 13.6637 34.8572 13.6637H32.8819V16.4017ZM42.0472 28.3465H26.5512C26.0293 28.3465 25.6063 27.9235 25.6063 27.4016V8.12602C25.6063 7.60416 26.0293 7.18114 26.5512 7.18114H42.0472C42.5691 7.18114 42.9921 7.60416 42.9921 8.12602V27.4016C42.9921 27.9235 42.5691 28.3465 42.0472 28.3465ZM27.4961 26.4567H41.1024V9.0709H27.4961V26.4567ZM21.4488 28.3465H5.95276C5.4309 28.3465 5.00787 27.9235 5.00787 27.4016V8.12602C5.00787 7.60416 5.4309 7.18114 5.95276 7.18114H21.4488C21.9707 7.18114 22.3937 7.60416 22.3937 8.12602V27.4016C22.3937 27.9235 21.9707 28.3465 21.4488 28.3465ZM6.89764 26.4567H20.5039V9.0709H6.89764V26.4567ZM24.9429 43.6536C24.9429 44.1742 24.5187 44.5985 23.998 44.5985C23.4764 44.5985 23.0531 44.1742 23.0531 43.6536C23.0531 43.1329 23.4764 42.7087 23.998 42.7087C24.5187 42.7087 24.9429 43.1329 24.9429 43.6536ZM48 7.18114V32.126C48 34.2101 46.3045 35.9055 44.2205 35.9055H30.1079L30.5706 39.6067C30.597 39.8047 30.7227 39.9456 30.8522 39.9837C31.5113 40.1774 32.2661 40.6147 32.8147 41.3443C33.3185 42.0143 33.5905 42.8107 33.5905 43.6536C33.5905 44.2053 33.1332 44.5985 32.6456 44.5985H28.25C27.7284 44.5985 27.3051 44.1742 27.3051 43.6536C27.3051 43.1329 27.7284 42.7087 28.25 42.7087H31.455C31.2094 42.2712 30.7928 41.9444 30.3155 41.7959C29.34 41.4925 28.8143 40.6925 28.695 39.8419L28.203 35.9055H19.7969L19.3049 39.8419C19.1689 40.8189 18.541 41.5291 17.6844 41.7959C17.2071 41.9446 16.7906 42.2712 16.5449 42.7087H19.7461C20.2668 42.7087 20.691 43.1329 20.691 43.6536C20.691 44.1742 20.2668 44.5985 19.7461 44.5985H15.3543C14.8346 44.5985 14.4094 44.1748 14.4094 43.6536C14.4094 42.8107 14.6785 42.0121 15.1852 41.3443C15.7643 40.5812 16.5141 40.1697 17.1477 39.9837C17.2892 39.9422 17.4034 39.7933 17.4293 39.6076L17.892 35.9055H3.77953C1.6955 35.9055 0 34.2101 0 32.126V7.18114C0 5.09711 1.6955 3.40161 3.77953 3.40161H44.2205C46.3045 3.40161 48 5.09711 48 7.18114ZM46.1102 32.126H1.88976C1.88976 33.168 2.73751 34.0158 3.77953 34.0158H44.2205C45.2625 34.0158 46.1102 33.168 46.1102 32.126ZM46.1102 7.18114C46.1102 6.13912 45.2625 5.29138 44.2205 5.29138H3.77953C2.73751 5.29138 1.88976 6.13912 1.88976 7.18114V30.2363H46.1102V7.18114Z" fill="#D4B982"/>
</g>
<defs>
<clipPath id="clip0">
<rect width="48" height="48" fill="white"/>
</clipPath>
</defs>
</svg>
