<svg width="48" height="48" viewBox="0 0 48 48" fill="none" xmlns="http://www.w3.org/2000/svg">
<path d="M21.75 38.25H19.5V39.75H21.75V38.25Z" fill="#D4B982"/>
<path d="M44.25 0H3.75C1.68225 0 0 1.68225 0 3.75V36C0 38.0677 1.68225 39.75 3.75 39.75H7.5V38.25H3.75C2.5095 38.25 1.5 37.2405 1.5 36V7.5H46.5V36C46.5 37.2405 45.4905 38.25 44.25 38.25V39.75C46.3177 39.75 48 38.0677 48 36V3.75C48 1.68225 46.3177 0 44.25 0ZM46.5 6H1.5V3.75C1.5 2.5095 2.5095 1.5 3.75 1.5H44.25C45.4905 1.5 46.5 2.5095 46.5 3.75V6Z" fill="#D4B982"/>
<path d="M3.75 4.5C4.16421 4.5 4.5 4.16421 4.5 3.75C4.5 3.33579 4.16421 3 3.75 3C3.33579 3 3 3.33579 3 3.75C3 4.16421 3.33579 4.5 3.75 4.5Z" fill="#D4B982"/>
<path d="M6.75 4.5C7.16421 4.5 7.5 4.16421 7.5 3.75C7.5 3.33579 7.16421 3 6.75 3C6.33579 3 6 3.33579 6 3.75C6 4.16421 6.33579 4.5 6.75 4.5Z" fill="#D4B982"/>
<path d="M9.75 4.5C10.1642 4.5 10.5 4.16421 10.5 3.75C10.5 3.33579 10.1642 3 9.75 3C9.33579 3 9 3.33579 9 3.75C9 4.16421 9.33579 4.5 9.75 4.5Z" fill="#D4B982"/>
<path d="M39 30H34.5V27C34.5 26.586 34.164 26.25 33.75 26.25H24.0457C24.4943 25.0837 24.75 23.8223 24.75 22.5C24.75 22.086 24.414 21.75 24 21.75H15V12.75C15 12.336 14.664 12 14.25 12C8.46 12 3.75 16.71 3.75 22.5C3.75 28.29 8.46 33 14.25 33C18.126 33 21.5107 30.8827 23.3295 27.75H33V30H27C24.9323 30 23.25 31.6823 23.25 33.75V41.25C23.25 43.3177 24.9323 45 27 45H39C41.0677 45 42.75 43.3177 42.75 41.25V33.75C42.75 31.6823 41.0677 30 39 30ZM5.25 22.5C5.25 17.79 8.8875 13.9132 13.5 13.5315V22.35L10.1115 30.483C7.227 28.9823 5.25 25.9703 5.25 22.5ZM22.4212 26.25H19.3612C19.0508 25.3792 18.2257 24.75 17.2493 24.75C16.0087 24.75 14.9993 25.7595 14.9993 27C14.9993 28.2405 16.0087 29.25 17.2493 29.25C18.2257 29.25 19.0508 28.6208 19.3612 27.75H21.5483C19.9125 30.0173 17.253 31.5 14.25 31.5C13.2885 31.5 12.363 31.3447 11.4937 31.0642L14.7502 23.25H23.2185C23.13 24.3142 22.8488 25.3223 22.4212 26.25ZM18 27C18 27.4132 17.6632 27.75 17.25 27.75C16.8368 27.75 16.5 27.4132 16.5 27C16.5 26.5868 16.8368 26.25 17.25 26.25C17.6632 26.25 18 26.5868 18 27ZM41.25 41.25C41.25 42.4905 40.2405 43.5 39 43.5H27C25.7595 43.5 24.75 42.4905 24.75 41.25V33.75C24.75 32.5095 25.7595 31.5 27 31.5H39C40.2405 31.5 41.25 32.5095 41.25 33.75V41.25Z" fill="#D4B982"/>
<path d="M27.75 9C27.5513 9 27.36 9.07875 27.2197 9.21975L24.5085 11.931C22.6208 10.1205 20.0663 9 17.25 9C16.836 9 16.5 9.336 16.5 9.75V19.5C16.5 19.914 16.836 20.25 17.25 20.25H27C27.414 20.25 27.75 19.914 27.75 19.5C27.75 17.0662 26.91 14.8282 25.515 13.0455L28.0605 10.5H31.5V9H27.75ZM26.2185 18.75H18V10.5315C20.1052 10.7062 22.0027 11.6137 23.4487 12.9907L21.9697 14.4697L23.0303 15.5303L24.4463 14.1143C25.434 15.4297 26.0752 17.019 26.2185 18.75Z" fill="#D4B982"/>
<path d="M45 9H33V10.5H45V9Z" fill="#D4B982"/>
<path d="M45 12H33V13.5H45V12Z" fill="#D4B982"/>
<path d="M45 15H33V16.5H45V15Z" fill="#D4B982"/>
<path d="M18 46.5V39C18 38.586 17.664 38.25 17.25 38.25H14.25V36C14.25 35.586 13.914 35.25 13.5 35.25H9.75C9.336 35.25 9 35.586 9 36V42H6C5.586 42 5.25 42.336 5.25 42.75V46.5H1.5V48H6H9.75H13.5H17.25H21V46.5H18ZM9 46.5H6.75V43.5H9V46.5ZM12.75 39V46.5H10.5V42.75V36.75H12.75V39ZM16.5 46.5H14.25V39.75H16.5V46.5Z" fill="#D4B982"/>
<path d="M38.2889 34.2622L36.5549 39.4657L32.8942 33.3637C32.7494 33.1222 32.4892 32.9819 32.2004 33.0014C31.9192 33.0202 31.6732 33.1949 31.5622 33.4544L29.7487 37.6867L28.2817 36.2197C28.1039 36.0419 27.8489 35.9654 27.6007 36.0157C27.3539 36.0659 27.1484 36.2377 27.0547 36.4717L25.5547 40.2217L26.9467 40.7789L28.0244 38.0849L29.4704 39.5309C29.6467 39.7072 29.8979 39.7844 30.1424 39.7372C30.3869 39.6907 30.5924 39.5249 30.6899 39.2962L32.3624 35.3939L36.1079 41.6362C36.2437 41.8634 36.4882 41.9999 36.7499 41.9999C36.7769 41.9999 36.8047 41.9984 36.8317 41.9954C37.1227 41.9639 37.3687 41.7644 37.4617 41.4869L39.7117 34.7369L38.2889 34.2622Z" fill="#D4B982"/>
<path d="M44.25 19.5H36.75C36.336 19.5 36 19.836 36 20.25V26.25C36 26.664 36.336 27 36.75 27H44.25C44.664 27 45 26.664 45 26.25V20.25C45 19.836 44.664 19.5 44.25 19.5ZM42.1117 21L40.5 22.29L38.8875 21H42.1117ZM37.5 21.81L39.3 23.25L37.5 24.69V21.81ZM38.8875 25.5L40.5 24.21L42.1125 25.5H38.8875ZM43.5 24.6892L41.7 23.25L43.5 21.81V24.6892Z" fill="#D4B982"/>
</svg>
