<svg width="48" height="48" viewBox="0 0 48 48" fill="none" xmlns="http://www.w3.org/2000/svg">
<g clip-path="url(#clip0)">
<path d="M24.2601 17.0162H6.26162C5.87331 17.0162 5.55859 17.331 5.55859 17.7193C5.55859 18.1076 5.87331 18.4223 6.26162 18.4223H24.2602C24.6485 18.4223 24.9632 18.1075 24.9632 17.7193C24.9632 17.331 24.6485 17.0162 24.2601 17.0162Z" fill="#D4B982"/>
<path d="M24.2601 21.9564H6.26162C5.87331 21.9564 5.55859 22.2712 5.55859 22.6595C5.55859 23.0477 5.87331 23.3625 6.26162 23.3625H24.2602C24.6485 23.3625 24.9632 23.0477 24.9632 22.6595C24.9632 22.2712 24.6485 21.9564 24.2601 21.9564Z" fill="#D4B982"/>
<path d="M24.2601 26.8966H6.26162C5.87331 26.8966 5.55859 27.2114 5.55859 27.5996C5.55859 27.9879 5.87331 28.3027 6.26162 28.3027H24.2602C24.6485 28.3027 24.9632 27.9879 24.9632 27.5996C24.9632 27.2114 24.6485 26.8966 24.2601 26.8966Z" fill="#D4B982"/>
<path d="M24.9632 32.5399C24.9632 32.1516 24.6485 31.8369 24.2602 31.8369H6.26162C5.87331 31.8369 5.55859 32.1517 5.55859 32.5399C5.55859 32.9282 5.87331 33.243 6.26162 33.243H24.2602C24.6485 33.243 24.9632 32.9283 24.9632 32.5399Z" fill="#D4B982"/>
<path d="M6.26163 39.0769C5.87331 39.0769 5.55859 39.3917 5.55859 39.7799C5.55859 40.1682 5.87331 40.483 6.26163 40.483H15.2839C15.6723 40.483 15.987 40.1682 15.987 39.7799C15.987 39.3917 15.6723 39.0769 15.2839 39.0769H6.26163Z" fill="#D4B982"/>
<path d="M32.362 8.70497V6.42366C32.362 5.5546 31.655 4.84753 30.7858 4.84753H16.3514C15.4824 4.84753 14.7754 5.5546 14.7754 6.42366V8.70497C14.7754 9.57403 15.4824 10.281 16.3514 10.281H17.5704C17.9587 10.281 18.2734 9.96619 18.2734 9.57797C18.2734 9.18966 17.9587 8.87494 17.5704 8.87494H16.3514C16.2578 8.87494 16.1815 8.79872 16.1815 8.70507V6.42366C16.1815 6.33 16.2578 6.25369 16.3514 6.25369H30.7858C30.8796 6.25369 30.9558 6.32991 30.9558 6.42366V8.70497C30.9558 8.79863 30.8796 8.87485 30.7858 8.87485H20.8572C20.4689 8.87485 20.1542 9.18966 20.1542 9.57788C20.1542 9.96619 20.4689 10.2809 20.8572 10.2809H30.7859C31.655 10.2811 32.362 9.57403 32.362 8.70497Z" fill="#D4B982"/>
<path d="M37.6187 42.8715C37.2303 42.8715 36.9156 43.1863 36.9156 43.5745V44.5213C36.9156 45.664 35.9859 46.5938 34.843 46.5938H3.74031C2.59759 46.5938 1.66778 45.6641 1.66778 44.5213V10.7276C1.66778 10.5755 1.68559 10.4262 1.71737 10.281H8.11891C9.45541 10.281 10.5427 9.19369 10.5427 7.85719V1.45575C10.6879 1.42397 10.8371 1.40616 10.9893 1.40616H34.8429C35.9857 1.40616 36.9155 2.33588 36.9155 3.47869V12.8389C36.9155 13.2272 37.2302 13.5419 37.6186 13.5419C38.0069 13.5419 38.3216 13.2271 38.3216 12.8389V3.47859C38.3217 1.56056 36.7611 0 34.843 0H10.9893C10.0602 0 9.18653 0.361875 8.52953 1.01888L1.2805 8.26791C0.6235 8.92491 0.261719 9.79847 0.261719 10.7277V44.5214C0.261719 46.4395 1.82219 48 3.74031 48H34.843C36.7611 48 38.3217 46.4394 38.3217 44.5214V43.5746C38.3217 43.1863 38.007 42.8715 37.6187 42.8715ZM9.13666 2.40037V7.85719C9.13666 8.41838 8.68009 8.87494 8.11891 8.87494H2.66209L9.13666 2.40037Z" fill="#D4B982"/>
<path d="M47.2486 25.125C47.7421 24.4006 47.8698 23.507 47.5989 22.6734C47.3281 21.8398 46.6995 21.192 45.8745 20.8961C45.3272 20.6998 44.962 20.1973 44.9446 19.616C44.918 18.74 44.4961 17.942 43.7868 17.4267C43.0778 16.9115 42.1883 16.757 41.3472 17.0024C40.7886 17.1653 40.1983 16.9733 39.8424 16.5135C39.3061 15.8202 38.4957 15.4226 37.6191 15.4226C36.7427 15.4226 35.9322 15.8202 35.3958 16.5135C35.0399 16.9734 34.4492 17.1651 33.8911 17.0024C33.0499 16.7568 32.1605 16.9115 31.4512 17.4267C30.7421 17.942 30.3203 18.7399 30.2937 19.616C30.2762 20.1972 29.9111 20.6996 29.3637 20.896C28.5387 21.1919 27.9101 21.8398 27.6394 22.6733C27.3685 23.507 27.4962 24.4006 27.9897 25.1249C28.3171 25.6055 28.3171 26.2265 27.9897 26.7071C27.4962 27.4315 27.3685 28.325 27.6394 29.1587C27.9101 29.9923 28.5387 30.6401 29.3637 30.9361C29.9111 31.1325 30.2763 31.6349 30.2937 32.2161C30.3182 33.022 30.6875 33.7792 31.3071 34.2935C31.716 34.6328 32.2071 34.8452 32.7212 34.9161V41.3172C32.7212 41.8573 33.0141 42.3565 33.4856 42.6199C33.9565 42.883 34.5354 42.8713 34.9956 42.5879L37.5742 41.0005C37.6162 40.9745 37.6413 40.9863 37.6644 41.0005L40.2428 42.5879C40.7029 42.871 41.2816 42.8832 41.7529 42.6198C42.2245 42.3563 42.5174 41.8571 42.5174 41.3171V34.916C43.0312 34.8451 43.5224 34.6327 43.9312 34.2935C44.551 33.7792 44.9204 33.0221 44.9448 32.216C44.9623 31.6348 45.3274 31.1323 45.8748 30.936C46.6998 30.6401 47.3284 29.9922 47.5992 29.1586C47.87 28.325 47.7423 27.4314 47.2488 26.707C46.9211 26.2266 46.9211 25.6056 47.2486 25.125ZM40.9798 41.3905L38.4013 39.8031C37.9219 39.5081 37.3167 39.5076 36.8369 39.8031L34.2584 41.3904C34.1997 41.4261 34.1272 41.385 34.1272 41.3171V34.7826C34.6106 34.7267 35.0899 34.9234 35.3958 35.3187C35.9323 36.0119 36.7427 36.4095 37.6192 36.4095C38.4957 36.4095 39.3061 36.0119 39.8424 35.3187C40.1484 34.9233 40.6278 34.7267 41.111 34.7826V41.3171C41.111 41.3855 41.0376 41.4262 40.9798 41.3905ZM46.0865 27.499C46.3333 27.8611 46.397 28.3076 46.2617 28.7242C46.1263 29.1409 45.8121 29.4647 45.3997 29.6126C44.3045 30.0054 43.5742 31.0107 43.5391 32.1737C43.5266 32.5825 43.3469 32.951 43.0331 33.2115C42.6803 33.5043 42.2026 33.6147 41.7411 33.4801C40.6243 33.1542 39.4424 33.5382 38.7303 34.4583C38.4622 34.8047 38.0571 35.0034 37.619 35.0034C37.181 35.0034 36.7759 34.8048 36.5077 34.4583C35.9641 33.7555 35.1465 33.3655 34.2931 33.3655C34.0289 33.3655 33.7611 33.4029 33.4971 33.48C33.0312 33.6157 32.5549 33.5019 32.2049 33.2114C31.8911 32.951 31.7114 32.5824 31.6991 32.1737C31.6639 31.0107 30.9335 30.0054 29.8383 29.6125C29.426 29.4646 29.1119 29.1409 28.9764 28.7242C28.8411 28.3076 28.9048 27.861 29.1515 27.4989C29.8066 26.5373 29.8066 25.2949 29.1515 24.3333C28.9048 23.9712 28.8411 23.5246 28.9764 23.1079C29.1118 22.6912 29.426 22.3674 29.8383 22.2196C30.9335 21.8267 31.6639 20.8214 31.6991 19.6584C31.7123 19.2205 31.9231 18.8217 32.2775 18.5643C32.6318 18.3067 33.0762 18.2295 33.497 18.3521C34.6136 18.6781 35.7958 18.294 36.5077 17.3739C36.7759 17.0274 37.1809 16.8287 37.619 16.8287C38.0571 16.8287 38.4621 17.0273 38.7303 17.3738C39.4423 18.294 40.6239 18.678 41.741 18.3521C42.1616 18.2293 42.606 18.3066 42.9604 18.5642C43.3149 18.8216 43.5259 19.2205 43.539 19.6583C43.5742 20.8213 44.3045 21.8267 45.3997 22.2195C45.8121 22.3673 46.1262 22.6911 46.2617 23.1078C46.397 23.5244 46.3333 23.9711 46.0865 24.3331C45.4313 25.2948 45.4313 26.5374 46.0865 27.499Z" fill="#D4B982"/>
<path d="M37.6181 20.0234C34.369 20.0234 31.7256 22.6668 31.7256 25.916C31.7256 29.1652 34.369 31.8085 37.6181 31.8085C40.8672 31.8085 43.5106 29.1652 43.5106 25.916C43.5106 22.6668 40.8672 20.0234 37.6181 20.0234ZM37.6181 30.4025C35.1443 30.4025 33.1316 28.3899 33.1316 25.9161C33.1316 23.4423 35.1443 21.4296 37.6181 21.4296C40.092 21.4296 42.1046 23.4422 42.1046 25.9161C42.1046 28.39 40.0919 30.4025 37.6181 30.4025Z" fill="#D4B982"/>
</g>
<defs>
<clipPath id="clip0">
<rect width="48" height="48" fill="white"/>
</clipPath>
</defs>
</svg>
