<svg width="48" height="48" viewBox="0 0 48 48" fill="none" xmlns="http://www.w3.org/2000/svg">
<path d="M44.7265 41.2971C46.5315 41.2971 48 39.8286 48 38.0235V4.6875C48 2.10281 45.8972 0 43.3125 0H4.6875C2.10281 0 0 2.10281 0 4.6875V38.0235C0 39.8286 1.4685 41.2971 3.27347 41.2971H4.3125V46.125H0.9375C0.419719 46.125 0 46.5448 0 47.0625C0 47.5802 0.419719 48 0.9375 48H47.0625C47.5803 48 48 47.5802 48 47.0625C48 46.5448 47.5803 46.125 47.0625 46.125H43.6875V41.2971H44.7265ZM1.875 4.6875C1.875 3.13669 3.13669 1.875 4.6875 1.875H43.3125C44.8633 1.875 46.125 3.13669 46.125 4.6875V6.75H1.96913C1.93734 6.75 1.90594 6.75169 1.875 6.75478V4.6875ZM10.3125 46.125H6.1875V37.6875H10.3125V46.125ZM20.8125 46.125H16.6875V27.3218H20.8125V46.125ZM31.3125 46.125H27.1875V35.25H31.3125V46.125ZM42.75 24.0469H36.75C36.2322 24.0469 35.8125 24.4667 35.8125 24.9844V29.7187C35.8125 30.2363 36.2322 30.6562 36.75 30.6562C37.2678 30.6562 37.6875 30.2363 37.6875 29.7187V25.9219H41.8125V46.125H37.6875V36.0234C37.6875 35.5057 37.2678 35.0859 36.75 35.0859C36.2322 35.0859 35.8125 35.5057 35.8125 36.0234V46.125H33.1875V34.3125C33.1875 33.7948 32.7678 33.375 32.25 33.375H26.25C25.7322 33.375 25.3125 33.7948 25.3125 34.3125V46.125H22.6875V26.3843C22.6875 25.8666 22.2678 25.4468 21.75 25.4468H15.75C15.2322 25.4468 14.8125 25.8666 14.8125 26.3843V46.125H12.1875V36.75C12.1875 36.2323 11.7678 35.8125 11.25 35.8125H5.25C4.73222 35.8125 4.3125 36.2323 4.3125 36.75V39.4221H3.27347C2.50228 39.4221 1.875 38.7947 1.875 38.0235V8.62022C1.90594 8.62331 1.93734 8.625 1.96913 8.625H46.125V38.0235C46.125 38.7947 45.4976 39.4221 44.7265 39.4221H43.6875V24.9844C43.6875 24.4667 43.2678 24.0469 42.75 24.0469Z" fill="#D4B982"/>
<path d="M41.9998 3.375H20.8184C20.3006 3.375 19.8809 3.79481 19.8809 4.3125C19.8809 4.83019 20.3006 5.25 20.8184 5.25H41.9998C42.5175 5.25 42.9373 4.83019 42.9373 4.3125C42.9373 3.79481 42.5175 3.375 41.9998 3.375Z" fill="#D4B982"/>
<path d="M10.4128 3.64969C10.2384 3.47531 9.99656 3.375 9.75 3.375C9.50344 3.375 9.26156 3.47522 9.08719 3.64969C8.91281 3.82406 8.8125 4.06594 8.8125 4.3125C8.8125 4.55906 8.91281 4.80094 9.08719 4.97522C9.26156 5.14969 9.50344 5.25 9.75 5.25C9.99656 5.25 10.2384 5.14969 10.4128 4.97522C10.5872 4.80094 10.6875 4.55906 10.6875 4.3125C10.6875 4.06594 10.5872 3.82406 10.4128 3.64969Z" fill="#D4B982"/>
<path d="M6.66281 3.64969C6.48844 3.47531 6.24656 3.375 6 3.375C5.75344 3.375 5.51156 3.47522 5.33719 3.64969C5.16281 3.82406 5.0625 4.06594 5.0625 4.3125C5.0625 4.55906 5.16281 4.80094 5.33719 4.97522C5.51156 5.14969 5.75344 5.25 6 5.25C6.24656 5.25 6.48844 5.14969 6.66281 4.97522C6.83719 4.80094 6.9375 4.55906 6.9375 4.3125C6.9375 4.06594 6.83719 3.82406 6.66281 3.64969Z" fill="#D4B982"/>
<path d="M14.1628 3.64969C13.9884 3.47531 13.7475 3.375 13.5 3.375C13.2534 3.375 13.0116 3.47522 12.8372 3.64969C12.6628 3.82406 12.5625 4.06594 12.5625 4.3125C12.5625 4.55906 12.6628 4.80094 12.8372 4.97522C13.0116 5.14969 13.2534 5.25 13.5 5.25C13.7466 5.25 13.9884 5.14969 14.1628 4.97522C14.3372 4.80094 14.4375 4.55906 14.4375 4.3125C14.4375 4.06594 14.3372 3.82406 14.1628 3.64969Z" fill="#D4B982"/>
<path d="M37.4128 32.3972C37.2384 32.2219 36.9966 32.1226 36.75 32.1226C36.5034 32.1226 36.2616 32.222 36.0872 32.3972C35.9128 32.5716 35.8125 32.8135 35.8125 33.0601C35.8125 33.3066 35.9128 33.5485 36.0872 33.7229C36.2616 33.8972 36.5034 33.9976 36.75 33.9976C36.9966 33.9976 37.2384 33.8972 37.4128 33.7229C37.5872 33.5485 37.6875 33.3066 37.6875 33.0601C37.6875 32.8126 37.5872 32.5716 37.4128 32.3972Z" fill="#D4B982"/>
<path d="M39.7497 12.7443C37.8887 12.7443 36.3747 14.2582 36.3747 16.1193C36.3747 16.8585 36.6143 17.5425 37.0189 18.0991L30.7916 24.3264C30.3083 24.059 29.7531 23.9061 29.1627 23.9061C28.6306 23.9061 28.1272 24.0304 27.6792 24.2506L21.1767 17.7482C21.4442 17.2649 21.597 16.7097 21.597 16.1193C21.597 14.2582 20.0831 12.7443 18.222 12.7443C16.361 12.7443 14.847 14.2582 14.847 16.1193C14.847 16.7697 15.0325 17.3774 15.3525 17.8932L9.81631 23.4293C9.33303 23.1619 8.77784 23.009 8.1875 23.009C6.32647 23.009 4.8125 24.523 4.8125 26.384C4.8125 28.2451 6.32647 29.759 8.1875 29.759C10.0485 29.759 11.5625 28.2451 11.5625 26.384C11.5625 25.7936 11.4097 25.2384 11.1422 24.7551L16.7445 19.1528C17.1911 19.3712 17.6924 19.4942 18.222 19.4942C18.8124 19.4942 19.3676 19.3414 19.8508 19.0739L26.2896 25.5125C25.9717 26.0272 25.7877 26.6329 25.7877 27.281C25.7877 29.142 27.3016 30.656 29.1627 30.656C31.0237 30.656 32.5377 29.142 32.5377 27.281C32.5377 26.6905 32.3848 26.1353 32.1174 25.652L38.5116 19.2578C38.8953 19.4099 39.3128 19.4943 39.7497 19.4943C41.6108 19.4943 43.1247 17.9803 43.1247 16.1193C43.1247 14.2582 41.6108 12.7443 39.7497 12.7443ZM8.18759 27.8842C7.36053 27.8842 6.68759 27.2113 6.68759 26.3842C6.68759 25.5572 7.36053 24.8842 8.18759 24.8842C9.01466 24.8842 9.68759 25.5572 9.68759 26.3842C9.68759 27.2113 9.01466 27.8842 8.18759 27.8842ZM18.2221 17.6193C17.3951 17.6193 16.7221 16.9463 16.7221 16.1193C16.7221 15.2922 17.3951 14.6193 18.2221 14.6193C19.0492 14.6193 19.7221 15.2922 19.7221 16.1193C19.7221 16.9463 19.0492 17.6193 18.2221 17.6193ZM29.1627 28.7811C28.3357 28.7811 27.6627 28.1082 27.6627 27.2811C27.6627 26.4541 28.3357 25.7811 29.1627 25.7811C29.9898 25.7811 30.6627 26.4541 30.6627 27.2811C30.6627 28.1082 29.9898 28.7811 29.1627 28.7811ZM39.7497 17.6193C38.9227 17.6193 38.2497 16.9463 38.2497 16.1193C38.2497 15.2922 38.9227 14.6193 39.7497 14.6193C40.5768 14.6193 41.2497 15.2922 41.2497 16.1193C41.2497 16.9463 40.5768 17.6193 39.7497 17.6193Z" fill="#D4B982"/>
<path d="M13.906 12.0891C13.7307 11.9147 13.4897 11.8143 13.2432 11.8143C12.9957 11.8143 12.7538 11.9146 12.5794 12.0891C12.405 12.2634 12.3057 12.5053 12.3057 12.7518C12.3057 12.9984 12.405 13.2403 12.5794 13.4146C12.7547 13.589 12.9957 13.6893 13.2432 13.6893C13.4897 13.6893 13.7307 13.5891 13.906 13.4146C14.0804 13.2403 14.1807 12.9984 14.1807 12.7518C14.1807 12.5053 14.0804 12.2634 13.906 12.0891Z" fill="#D4B982"/>
<path d="M9.75 11.8145H5.25C4.73222 11.8145 4.3125 12.2343 4.3125 12.7519C4.3125 13.2696 4.73222 13.6894 5.25 13.6894H9.75C10.2678 13.6894 10.6875 13.2696 10.6875 12.7519C10.6875 12.2343 10.2678 11.8145 9.75 11.8145Z" fill="#D4B982"/>
<path d="M9.75 16.3145H5.25C4.73222 16.3145 4.3125 16.7343 4.3125 17.252C4.3125 17.7696 4.73222 18.1895 5.25 18.1895H9.75C10.2678 18.1895 10.6875 17.7696 10.6875 17.252C10.6875 16.7343 10.2678 16.3145 9.75 16.3145Z" fill="#D4B982"/>
</svg>
