<svg width="384" height="184" viewBox="0 0 384 184" fill="none" xmlns="http://www.w3.org/2000/svg">
<rect width="384" height="184" rx="20" fill="white"/>
<path d="M39.8 55L36.66 49.64H33.36V55H31.5V41H37.1C38.3 41 39.3267 41.4267 40.18 42.28C41.0333 43.12 41.46 44.14 41.46 45.34C41.46 46.2467 41.1867 47.0733 40.64 47.82C40.1067 48.5667 39.4133 49.0933 38.56 49.4L41.86 55H39.8ZM33.36 42.74V47.96H37.1C37.7933 47.96 38.38 47.7067 38.86 47.2C39.3533 46.68 39.6 46.06 39.6 45.34C39.6 44.62 39.3533 44.0067 38.86 43.5C38.38 42.9933 37.7933 42.74 37.1 42.74H33.36ZM44.2588 50.8C44.4321 51.6933 44.8388 52.3867 45.4788 52.88C46.1321 53.3733 46.9321 53.62 47.8788 53.62C49.1988 53.62 50.1588 53.1333 50.7588 52.16L52.2388 53C51.2654 54.5067 49.7988 55.26 47.8388 55.26C46.2521 55.26 44.9588 54.7667 43.9588 53.78C42.9721 52.78 42.4788 51.52 42.4788 50C42.4788 48.4933 42.9654 47.24 43.9388 46.24C44.9121 45.24 46.1721 44.74 47.7188 44.74C49.1854 44.74 50.3788 45.26 51.2988 46.3C52.2321 47.3267 52.6988 48.5667 52.6988 50.02C52.6988 50.2733 52.6788 50.5333 52.6388 50.8H44.2588ZM47.7188 46.38C46.7854 46.38 46.0121 46.6467 45.3988 47.18C44.7854 47.7 44.4054 48.4 44.2588 49.28H50.9388C50.7921 48.3333 50.4188 47.6133 49.8188 47.12C49.2188 46.6267 48.5188 46.38 47.7188 46.38ZM55.8083 47.7C55.8083 48.0867 56.0016 48.4 56.3883 48.64C56.7749 48.8667 57.2416 49.0533 57.7883 49.2C58.3349 49.3333 58.8816 49.4933 59.4283 49.68C59.9749 49.8533 60.4416 50.16 60.8283 50.6C61.2149 51.0267 61.4083 51.58 61.4083 52.26C61.4083 53.1667 61.0549 53.8933 60.3483 54.44C59.6549 54.9867 58.7616 55.26 57.6683 55.26C56.6949 55.26 55.8616 55.0467 55.1683 54.62C54.4749 54.1933 53.9816 53.6267 53.6883 52.92L55.1883 52.06C55.3483 52.54 55.6483 52.92 56.0883 53.2C56.5283 53.48 57.0549 53.62 57.6683 53.62C58.2416 53.62 58.7149 53.5133 59.0883 53.3C59.4616 53.0733 59.6483 52.7267 59.6483 52.26C59.6483 51.8733 59.4549 51.5667 59.0683 51.34C58.6816 51.1 58.2149 50.9133 57.6683 50.78C57.1216 50.6333 56.5749 50.4667 56.0283 50.28C55.4816 50.0933 55.0149 49.7867 54.6283 49.36C54.2416 48.9333 54.0483 48.3867 54.0483 47.72C54.0483 46.8533 54.3816 46.14 55.0483 45.58C55.7283 45.02 56.5749 44.74 57.5883 44.74C58.4016 44.74 59.1216 44.9267 59.7483 45.3C60.3883 45.66 60.8683 46.1667 61.1883 46.82L59.7283 47.64C59.3683 46.7867 58.6549 46.36 57.5883 46.36C57.0949 46.36 56.6749 46.48 56.3283 46.72C55.9816 46.9467 55.8083 47.2733 55.8083 47.7ZM70.2708 45H72.0108V55H70.2708V53.56C69.5641 54.6933 68.4841 55.26 67.0308 55.26C65.8574 55.26 64.9174 54.8933 64.2108 54.16C63.5041 53.4133 63.1508 52.4067 63.1508 51.14V45H64.8908V51.04C64.8908 51.8533 65.1108 52.4867 65.5508 52.94C65.9908 53.38 66.5974 53.6 67.3708 53.6C68.2374 53.6 68.9374 53.3333 69.4708 52.8C70.0041 52.2533 70.2708 51.42 70.2708 50.3V45ZM74.6598 55V40.4H76.3998V55H74.6598ZM84.4944 46.68H81.8344V52.1C81.8344 52.5933 81.9277 52.9467 82.1144 53.16C82.3144 53.36 82.6144 53.4667 83.0144 53.48C83.4144 53.48 83.9077 53.4667 84.4944 53.44V55C82.9744 55.2 81.861 55.08 81.1544 54.64C80.4477 54.1867 80.0944 53.34 80.0944 52.1V46.68H78.1144V45H80.0944V42.72L81.8344 42.2V45H84.4944V46.68Z" fill="#333333"/>
<g clip-path="url(#clip0)">
<path d="M47.1173 123.219C43.6966 123.219 40.9238 125.992 40.9238 129.413C40.9238 132.833 43.6966 135.606 47.1173 135.606C50.5376 135.606 53.3103 132.833 53.3103 129.413C53.3068 125.994 50.5362 123.223 47.1173 123.219ZM47.1173 133.329C44.9542 133.329 43.2007 131.575 43.2007 129.413C43.2007 127.25 44.9542 125.496 47.1173 125.496C49.2799 125.496 51.0334 127.25 51.0334 129.413C51.0334 131.575 49.2799 133.329 47.1173 133.329Z" fill="#D4B982"/>
<path d="M80.8726 97.2287H40.6736L39.854 92.6406C39.3488 89.8163 37.135 87.6069 34.3098 87.1075L31.3382 86.5841C30.7188 86.4738 30.1277 86.887 30.0175 87.506C29.9076 88.1255 30.3203 88.7165 30.9398 88.8268L33.9225 89.3502C35.8045 89.6837 37.2778 91.1571 37.6113 93.0391L41.6413 115.774C42.1171 118.494 44.4807 120.479 47.2424 120.476H71.15C73.6617 120.483 75.8799 118.839 76.6034 116.434L81.9542 98.6971C82.0533 98.3511 81.9906 97.9784 81.7834 97.6841C81.5668 97.399 81.2302 97.2309 80.8726 97.2287ZM74.4288 115.762C73.9992 117.207 72.6682 118.195 71.1615 118.187H47.2539C45.5956 118.192 44.1761 116.999 43.8955 115.364L41.0836 99.494H79.3468L74.4288 115.762Z" fill="#D4B982"/>
<path d="M71.025 123.219C67.6043 123.219 64.8315 125.992 64.8315 129.413C64.8315 132.833 67.6043 135.606 71.025 135.606C74.4453 135.606 77.218 132.833 77.218 129.413C77.2145 125.994 74.4439 123.223 71.025 123.219ZM71.025 133.329C68.8619 133.329 67.1085 131.575 67.1085 129.413C67.1085 127.25 68.8619 125.496 71.025 125.496C73.1876 125.496 74.9411 127.25 74.9411 129.413C74.9411 131.575 73.1876 133.329 71.025 133.329Z" fill="#D4B982"/>
</g>
<g clip-path="url(#clip1)">
<path d="M343.526 84.974C338.788 84.974 335.045 88.7755 335.045 93.5129C335.045 98.2502 338.847 101.993 343.526 101.993C348.204 101.993 352.064 98.1917 352.064 93.4544C352.064 88.7171 348.263 84.974 343.526 84.974ZM343.526 100.122C339.841 100.122 336.858 97.1389 336.858 93.4544C336.858 89.7698 339.899 86.8455 343.526 86.8455C347.21 86.8455 350.193 89.8283 350.193 93.5129C350.193 97.1974 347.21 100.122 343.526 100.122Z" fill="#D4B982"/>
<path d="M346.216 94.7996C346.157 94.6241 346.157 94.5071 346.04 94.3317C345.982 94.2147 345.923 94.0393 345.806 93.9223C345.689 93.8053 345.631 93.6883 345.514 93.5714C345.397 93.4544 345.28 93.3374 345.105 93.2789C344.988 93.162 344.812 93.1035 344.695 93.045C344.52 92.9865 344.403 92.8696 344.227 92.8111C344.052 92.7526 343.876 92.6941 343.759 92.6356C343.701 92.6356 343.584 92.5771 343.525 92.5186C343.467 92.4602 343.35 92.4602 343.291 92.4017C343.233 92.3432 343.116 92.3432 343.058 92.2847C342.999 92.2262 342.941 92.1677 342.882 92.1092C342.824 92.0508 342.765 91.9923 342.765 91.8753C342.707 91.8168 342.707 91.6998 342.707 91.6414C342.707 91.5244 342.707 91.4659 342.707 91.3489C342.707 91.2904 342.765 91.1735 342.765 91.115C342.824 91.0565 342.824 90.9395 342.882 90.8811C342.941 90.8226 342.999 90.7641 343.058 90.7056C343.116 90.6471 343.233 90.5886 343.35 90.5886C343.467 90.5301 343.525 90.5301 343.642 90.5301C343.701 90.5301 343.759 90.5301 343.818 90.5301C343.876 90.5301 343.935 90.5301 343.993 90.5301C344.11 90.5301 344.169 90.5301 344.286 90.5886C344.403 90.5886 344.52 90.6471 344.578 90.6471C344.637 90.6471 344.754 90.7056 344.812 90.7056C344.929 90.7056 344.988 90.7641 345.046 90.7641L345.338 90.8811L345.397 90.5301L345.514 89.5944V89.3604L345.28 89.3019C345.221 89.3019 345.105 89.2435 345.046 89.2435C344.988 89.2435 344.929 89.185 344.812 89.185C344.754 89.185 344.637 89.1265 344.52 89.1265C344.403 89.1265 344.344 89.068 344.227 89.068H344.169V88.2492V87.9568H343.876H343.058H342.765V88.2492V89.1265H342.707C342.531 89.185 342.356 89.2435 342.18 89.3604C342.005 89.4189 341.888 89.5359 341.771 89.6529C341.654 89.7698 341.537 89.8868 341.42 90.0623C341.303 90.1792 341.244 90.3547 341.186 90.5301C341.128 90.7056 341.069 90.8811 341.011 91.0565C340.952 91.232 340.952 91.4659 340.952 91.6414C340.952 91.8168 340.952 91.9338 341.011 92.1092C341.069 92.2847 341.069 92.4017 341.186 92.5771C341.244 92.6941 341.361 92.8696 341.42 92.9865C341.537 93.1035 341.595 93.2205 341.712 93.3374C341.829 93.4544 341.946 93.5714 342.122 93.6299C342.239 93.7468 342.414 93.8053 342.531 93.8638C342.707 93.9223 342.882 94.0393 342.999 94.0977C343.175 94.1562 343.35 94.2147 343.467 94.2732C343.525 94.2732 343.642 94.3317 343.701 94.3902C343.759 94.4487 343.876 94.4487 343.935 94.5071C343.993 94.5656 344.052 94.6241 344.11 94.6241C344.169 94.6826 344.227 94.7411 344.286 94.7996C344.344 94.8581 344.344 94.9165 344.403 95.0335C344.403 95.092 344.461 95.209 344.461 95.3259C344.461 95.4429 344.461 95.5014 344.461 95.6184C344.461 95.6768 344.403 95.7938 344.344 95.8523C344.286 95.9108 344.227 95.9693 344.169 96.0278C344.11 96.0862 344.052 96.1447 343.935 96.2032C343.876 96.2617 343.759 96.2617 343.701 96.3202C343.642 96.3202 343.525 96.3787 343.408 96.3787C343.35 96.3787 343.291 96.3787 343.175 96.3787C343.116 96.3787 342.999 96.3787 342.941 96.3787C342.824 96.3787 342.707 96.3787 342.648 96.3787C342.531 96.3787 342.414 96.3202 342.356 96.3202C342.239 96.3202 342.122 96.2617 342.005 96.2032C341.888 96.1447 341.771 96.1447 341.654 96.0862C341.595 96.0862 341.537 96.0278 341.478 96.0278C341.42 96.0278 341.361 95.9693 341.303 95.9693L340.952 95.7938L340.894 96.2032L340.777 97.2559V97.4314L340.952 97.4899C341.186 97.4314 341.303 97.4899 341.478 97.5484C341.595 97.6069 341.771 97.6653 341.888 97.6653C342.005 97.7238 342.18 97.7238 342.356 97.7823C342.531 97.8408 342.648 97.8408 342.824 97.8408H342.941V98.7181V99.0105H343.233H344.052H344.344V98.7181V97.7823H344.403C344.578 97.7238 344.754 97.6653 344.929 97.5484C345.105 97.4899 345.221 97.3729 345.397 97.2559C345.514 97.139 345.631 97.022 345.748 96.8465C345.865 96.7296 345.923 96.5541 346.04 96.3787C346.099 96.2032 346.157 96.0278 346.216 95.8523C346.274 95.6768 346.274 95.5014 346.274 95.2674C346.274 95.092 346.274 94.975 346.216 94.7996Z" fill="#D4B982"/>
<path d="M339.432 103.105C339.139 102.695 338.496 102.637 338.086 102.929L328.612 110.474L316.388 105.385C316.096 105.269 315.745 105.327 315.511 105.502L302.41 114.86C302.001 115.153 301.884 115.737 302.176 116.147C302.352 116.439 302.644 116.556 302.937 116.556C303.112 116.556 303.288 116.498 303.463 116.381L316.154 107.316L328.436 112.404C328.729 112.521 329.138 112.462 329.372 112.287L339.256 104.45C339.665 104.157 339.724 103.514 339.432 103.105Z" fill="#D4B982"/>
<path d="M353.117 135.155H348.789V108.076C348.789 107.549 348.38 107.14 347.854 107.14H339.256C338.73 107.14 338.32 107.549 338.32 108.076V135.155H335.162V117.433C335.162 116.907 334.753 116.498 334.226 116.498H325.571C325.044 116.498 324.635 116.907 324.635 117.433V135.155H321.477V116.03C321.477 115.503 321.067 115.094 320.541 115.094H311.944C311.417 115.094 311.008 115.503 311.008 116.03V135.155H307.85V121.527C307.85 121.001 307.44 120.592 306.914 120.592H298.258C297.732 120.592 297.322 121.001 297.322 121.527V135.155H292.936C292.409 135.155 292 135.564 292 136.09C292 136.617 292.409 137.026 292.936 137.026H298.199H306.797H311.944H320.541H325.571H334.168H339.198H347.795H353.059C353.585 137.026 353.994 136.617 353.994 136.09C354.053 135.564 353.644 135.155 353.117 135.155ZM305.92 135.155H299.194V122.463H305.92V135.155ZM319.605 135.155H312.879V116.966H319.605V135.155ZM333.232 135.155H326.506V118.369H333.232V135.155ZM346.918 135.155H340.192V109.012H346.918V135.155Z" fill="#D4B982"/>
</g>
<path d="M200.667 88.3334H183.333V90.0667H200.667V88.3334Z" fill="#D4B982"/>
<path d="M208.9 116.5C208.9 114.828 207.539 113.467 205.867 113.467H204.133V101.333H202.4V113.467H200.233C198.561 113.467 197.2 114.828 197.2 116.5C197.2 117.349 197.553 118.116 198.117 118.667C197.553 119.218 197.2 119.984 197.2 120.833C197.2 121.418 197.374 121.959 197.661 122.422C196.625 122.905 195.9 123.95 195.9 125.167C195.9 125.634 196.015 126.071 196.204 126.467H189.4C189.4 123.817 188.072 121.472 186.047 120.061C188.005 119.315 189.4 117.418 189.4 115.2C189.4 114.721 189.012 114.333 188.533 114.333H181.6V105.667H179.867V114.333C178.433 114.333 177.267 115.5 177.267 116.933V136H179V116.933C179 116.456 179.388 116.067 179.867 116.067H187.557C187.171 117.56 185.812 118.667 184.2 118.667H181.6C181.121 118.667 180.733 119.055 180.733 119.533C180.733 120.012 181.121 120.4 181.6 120.4C184.945 120.4 187.667 123.121 187.667 126.467V127.333C187.667 127.812 188.054 128.2 188.533 128.2H193.604C193.415 128.596 193.3 129.033 193.3 129.5C193.3 131.172 194.661 132.533 196.333 132.533V136H198.067V132.533H201.533H201.967C203.639 132.533 205 131.172 205 129.5C205 129.028 204.882 128.586 204.689 128.188C206.304 128.122 207.6 126.797 207.6 125.167C207.6 124.582 207.426 124.041 207.139 123.578C208.175 123.095 208.9 122.05 208.9 120.833C208.9 119.984 208.547 119.218 207.983 118.667C208.547 118.116 208.9 117.349 208.9 116.5ZM201.967 130.8H201.533H197.2H196.333C195.616 130.8 195.033 130.217 195.033 129.5C195.033 128.783 195.616 128.2 196.333 128.2H198.933H201.967C202.683 128.2 203.267 128.783 203.267 129.5C203.267 130.217 202.683 130.8 201.967 130.8ZM204.567 126.467H201.967H198.933C198.216 126.467 197.633 125.884 197.633 125.167C197.633 124.45 198.216 123.867 198.933 123.867H200.233H204.567C205.283 123.867 205.867 124.45 205.867 125.167C205.867 125.884 205.283 126.467 204.567 126.467ZM205.867 122.133H204.567H200.233C199.516 122.133 198.933 121.55 198.933 120.833C198.933 120.117 199.516 119.533 200.233 119.533H205.867C206.583 119.533 207.167 120.117 207.167 120.833C207.167 121.55 206.583 122.133 205.867 122.133ZM205.867 117.8H200.233C199.516 117.8 198.933 117.217 198.933 116.5C198.933 115.783 199.516 115.2 200.233 115.2H205.867C206.583 115.2 207.167 115.783 207.167 116.5C207.167 117.217 206.583 117.8 205.867 117.8Z" fill="#D4B982"/>
<path d="M178.997 95.0314C178.98 94.7826 178.856 94.5532 178.657 94.4025L177.755 93.7186C177.539 92.6261 176.58 91.8 175.433 91.8C174.139 91.8 173.084 92.8521 173.067 94.1516C172.375 94.0306 171.713 93.7649 171.12 93.3658L170.818 93.1618C170.553 92.9828 170.21 92.9633 169.926 93.1148C169.643 93.265 169.467 93.5596 169.467 93.8799V94.5909C169.467 95.6354 169.781 96.6315 170.365 97.4682L169.717 98.1241C169.471 98.3725 169.399 98.7445 169.534 99.0674C169.668 99.3898 169.984 99.6 170.333 99.6H174.533C176.208 99.6 177.592 98.3233 177.779 96.6848L178.749 95.7026C178.925 95.5253 179.015 95.2807 178.997 95.0314ZM176.317 95.6976C176.156 95.8596 176.066 96.0789 176.066 96.3069C176.066 97.1669 175.378 97.8667 174.533 97.8667H172.328C172.465 97.551 172.406 97.1701 172.15 96.9108C171.745 96.5012 171.456 95.9857 171.309 95.4301C172.136 95.7788 173.025 95.9599 173.934 95.9599C174.413 95.9599 174.8 95.5719 174.8 95.0933V94.1834C174.8 93.8249 175.085 93.5334 175.433 93.5334C175.782 93.5334 176.067 93.8249 176.067 94.1834C176.067 94.4546 176.194 94.7102 176.409 94.874L176.822 95.1868L176.317 95.6976Z" fill="#D4B982"/>
<path d="M194.6 98.7333V97H192C191.521 97 191.133 97.388 191.133 97.8667V100.467H189.4V102.2H191.133V105.667H192.867V102.2H194.6V100.467H192.867V98.7333H194.6Z" fill="#D4B982"/>
<path d="M197.2 93.5333H186.8C185.366 93.5333 184.2 94.6996 184.2 96.1333V106.533C184.2 107.967 185.366 109.133 186.8 109.133H197.2C198.634 109.133 199.8 107.967 199.8 106.533V96.1333C199.8 94.6996 198.634 93.5333 197.2 93.5333ZM198.067 106.533C198.067 107.011 197.678 107.4 197.2 107.4H186.8C186.322 107.4 185.933 107.011 185.933 106.533V96.1333C185.933 95.6556 186.322 95.2667 186.8 95.2667H197.2C197.678 95.2667 198.067 95.6556 198.067 96.1333V106.533Z" fill="#D4B982"/>
<path d="M179 88.3334H168.6C167.166 88.3334 166 89.4997 166 90.9334V101.333C166 102.767 167.166 103.933 168.6 103.933H179C180.434 103.933 181.6 102.767 181.6 101.333V90.9334C181.6 89.4997 180.434 88.3334 179 88.3334ZM179.867 101.333C179.867 101.811 179.478 102.2 179 102.2H168.6C168.122 102.2 167.733 101.811 167.733 101.333V90.9334C167.733 90.4556 168.122 90.0667 168.6 90.0667H179C179.478 90.0667 179.867 90.4556 179.867 90.9334V101.333Z" fill="#D4B982"/>
<path d="M215.4 84H205C203.566 84 202.4 85.1663 202.4 86.6V97C202.4 98.4337 203.566 99.6 205 99.6H215.4C216.834 99.6 218 98.4337 218 97V86.6C218 85.1663 216.834 84 215.4 84ZM216.267 97C216.267 97.4777 215.878 97.8667 215.4 97.8667H205C204.522 97.8667 204.133 97.4777 204.133 97V92.6667H205.954C206.357 94.642 208.107 96.1333 210.2 96.1333C212.292 96.1333 214.043 94.642 214.446 92.6667H216.267V97ZM207.6 91.8C207.6 90.3663 208.766 89.2 210.2 89.2C211.634 89.2 212.8 90.3663 212.8 91.8C212.8 93.2337 211.634 94.4 210.2 94.4C208.766 94.4 207.6 93.2337 207.6 91.8ZM216.267 90.9333H214.446C214.043 88.958 212.292 87.4667 210.2 87.4667C208.107 87.4667 206.357 88.958 205.954 90.9333H204.133V86.6C204.133 86.1223 204.522 85.7333 205 85.7333H215.4C215.878 85.7333 216.267 86.1223 216.267 86.6V90.9333Z" fill="#D4B982"/>
<path d="M192.867 119.533H191.133V121.267H192.867V119.533Z" fill="#D4B982"/>
<defs>
<clipPath id="clip0">
<rect width="52" height="52" fill="white" transform="translate(30 85)"/>
</clipPath>
<clipPath id="clip1">
<rect width="62" height="62" fill="white" transform="translate(292 80)"/>
</clipPath>
</defs>
</svg>
