<svg width="36" height="36" fill="none" xmlns="http://www.w3.org/2000/svg"><rect width="36" height="36" rx="8" fill="#D4B982"/><path fill-rule="evenodd" clip-rule="evenodd" d="M22.94 9A5.057 5.057 0 0128 14.05v7.9c0 2.79-2.27 5.05-5.06 5.05h-9.88A5.057 5.057 0 018 21.95v-7.9A5.05 5.05 0 0113.06 9h9.88zm1.59 6.54l.08-.08a.773.773 0 00-.01-1 .84.84 0 00-.53-.26.76.76 0 00-.56.2L19 18a1.566 1.566 0 01-2 0l-4.5-3.6a.76.76 0 00-1 .07c-.27.27-.3.7-.07 1l.13.13 4.55 3.55a3.143 3.143 0 003.91 0l4.51-3.61z" fill="#fff"/></svg>