<svg width="9" height="12" viewBox="0 0 9 12" fill="none" xmlns="http://www.w3.org/2000/svg">
<path fill-rule="evenodd" clip-rule="evenodd" d="M0.714286 5C0.5 5 0.357143 4.92857 0.214286 4.78571C-0.0714286 4.5 -0.0714286 4.07143 0.214286 3.78571L3.78571 0.214286C3.95962 0.0403758 4.18646 -0.0276778 4.40179 0.0101249C4.43314 0.00344008 4.46593 8.69638e-09 4.5 8.69638e-09C4.53407 8.69638e-09 4.56686 0.00344008 4.5982 0.0101249C4.81354 -0.0276778 5.04038 0.0403758 5.21429 0.214286L8.78571 3.78571C9.07143 4.07143 9.07143 4.5 8.78571 4.78571C8.64286 4.92857 8.5 5 8.28571 5C8.07143 5 7.92857 4.92857 7.78571 4.78571L5 2V11.3333C5 11.7333 4.8 12 4.5 12C4.2 12 4 11.7333 4 11.3333V2L1.21429 4.78571C1.07143 4.92857 0.928571 5 0.714286 5Z" fill="#00CD98"/>
</svg>
