<svg width="20" height="19" fill="none" xmlns="http://www.w3.org/2000/svg"><path d="M8.396 1.023c.408-1.257 2.186-1.257 2.595 0l1.305 4.018c.183.562.706.943 1.297.943h4.226c1.32 0 1.87 1.69.801 2.467l-3.418 2.484a1.364 1.364 0 00-.495 1.525l1.305 4.018c.409 1.257-1.03 2.302-2.099 1.525l-3.418-2.484a1.364 1.364 0 00-1.603 0l-3.419 2.484c-1.069.777-2.507-.268-2.099-1.525L4.68 12.46a1.364 1.364 0 00-.495-1.525L.766 8.45c-1.069-.777-.52-2.467.802-2.467h4.225c.591 0 1.115-.38 1.297-.943l1.306-4.018z" fill="#FBBC05"/></svg>