<svg width="360" height="1026" fill="none" xmlns="http://www.w3.org/2000/svg"><path opacity=".1" d="M596.478 788.043l22.21-19.936-166.473-177.865L883 66.182l-22.209-19.76-428.494 521.59-118.45-132.316 511.243-411.9L806.229.685l-512.3 412.782-188.955-211.178 226.5-209.413L311.203-29 85.056 180.06-101.08-28.118l-22.209 19.936L63.199 200.349l-228.792 211.353-74.56-63.688-91.657-369.78-28.908 7.233 81.611 329.203-222.975-190.712-9.695 24.346 245.185 216.117 28.378 114.498L-522 741.082l20.27 21.877 271.624-251.049 68.567 276.101-263.163 216.469 18.86 23.11 252.235-207.47 53.232 214.71 28.908-7.24-56.581-228.465L60.555 644.05 233.47 791.892 29.709 1021.24 51.918 1041l204.114-229.878 177.675 151.723 19.389-22.758L275.95 788.716l156.347-176.069 164.181 175.396zM83.117 222.401l187.722 209.943L60.907 605.061l-203.585-173.952L83.117 222.401zm-310.755 175.364l40.188 34.226-25.734 23.817-14.454-58.043zm91.481 369.251l-69.095-278.217 40.364-37.225L37.288 624.291l-173.445 142.725zm389.369 2.47L83.822 624.82l206.934-170.247 121.447 135.845-158.991 179.068z" fill="#D4B982"/></svg>