<svg width="360" height="1026" viewBox="0 0 360 1026" fill="none" xmlns="http://www.w3.org/2000/svg">
<path opacity="0.1" d="M596.478 788.043L618.688 768.107L452.215 590.242L883 66.1813L860.791 46.4221L432.297 568.012L313.847 435.696L825.09 23.7962L806.229 0.68495L293.929 413.467L104.974 202.289L331.474 -7.12366L311.203 -29L85.0557 180.06L-101.08 -28.1179L-123.289 -8.18219L63.1987 200.349L-165.593 411.702L-240.153 348.014L-331.81 -21.7667L-360.718 -14.5334L-279.107 314.67L-502.082 123.958L-511.777 148.304L-266.592 364.421L-238.214 478.919L-522 741.082L-501.73 762.959L-230.106 511.91L-161.539 788.011L-424.702 1004.48L-405.842 1027.59L-153.607 820.12L-100.375 1034.83L-71.4674 1027.59L-128.048 799.125L60.5548 644.05L233.47 791.892L29.7086 1021.24L51.9178 1041L256.032 811.122L433.707 962.845L453.096 940.087L275.95 788.716L432.297 612.647L596.478 788.043ZM83.1167 222.401L270.839 432.344L60.9074 605.061L-142.678 431.109L83.1167 222.401ZM-227.638 397.765L-187.45 431.991L-213.184 455.808L-227.638 397.765ZM-136.157 767.016L-205.252 488.799L-164.888 451.574L37.2879 624.291L-136.157 767.016ZM253.212 769.486L83.8218 624.82L290.756 454.573L412.203 590.418L253.212 769.486Z" fill="#D4B982"/>
</svg>
