<svg width="32" height="32" viewBox="0 0 32 32" fill="none" xmlns="http://www.w3.org/2000/svg">
<g clip-path="url(#clip0)">
<path d="M16 31.999C24.8366 31.999 32 24.8356 32 15.999C32 7.16247 24.8366 -0.000976562 16 -0.000976562C7.16344 -0.000976562 0 7.16247 0 15.999C0 24.8356 7.16344 31.999 16 31.999Z" fill="#007AB9"/>
<path d="M25.5603 17.2872V23.8837H21.7359V17.7293C21.7359 16.184 21.1837 15.1287 19.799 15.1287C18.7423 15.1287 18.1145 15.8392 17.8373 16.5271C17.7366 16.773 17.7106 17.1144 17.7106 17.4592V23.8834H13.8859C13.8859 23.8834 13.9373 13.4599 13.8859 12.3809H17.7109V14.011C17.7032 14.0238 17.6924 14.0363 17.6856 14.0486H17.7109V14.011C18.2192 13.2289 19.1256 12.1108 21.1578 12.1108C23.6739 12.1108 25.5603 13.7548 25.5603 17.2872ZM9.88492 6.83636C8.57663 6.83636 7.7207 7.69515 7.7207 8.82346C7.7207 9.92781 8.55182 10.8114 9.83472 10.8114H9.85953C11.1935 10.8114 12.0229 9.92781 12.0229 8.82346C11.9975 7.69515 11.1935 6.83636 9.88492 6.83636ZM7.94802 23.8837H11.7713V12.3809H7.94802V23.8837Z" fill="#F1F2F2"/>
</g>
<defs>
<clipPath id="clip0">
<rect width="32" height="32" fill="white"/>
</clipPath>
</defs>
</svg>
