<svg width="184" height="224" viewBox="0 0 184 224" fill="none" xmlns="http://www.w3.org/2000/svg">
<path d="M179.462 224H33.679C31.1896 224 29.1719 221.982 29.1719 219.493V34.1005C29.1719 31.6111 31.1896 29.5934 33.679 29.5934H179.462C181.951 29.5934 183.969 31.6111 183.969 34.1005V219.493C183.969 221.982 181.951 224 179.462 224Z" fill="#F0E0C0"/>
<path d="M164.892 208.976H19.1087C16.6193 208.976 14.6016 206.958 14.6016 204.469V19.0763C14.6016 16.5869 16.6193 14.5692 19.1087 14.5692H164.892C167.381 14.5692 169.399 16.5869 169.399 19.0763V204.469C169.399 206.958 167.381 208.976 164.892 208.976Z" fill="#E5D5B4"/>
<path d="M150.323 194.407H4.54033C2.05095 194.407 0.0332031 192.389 0.0332031 189.9V4.50712C0.0336406 2.01775 2.05139 0 4.54033 0H150.323C152.813 0 154.83 2.01775 154.83 4.50712V189.9C154.83 192.388 152.812 194.407 150.323 194.407Z" fill="#D4B982"/>
<path d="M145.725 0V194.407H150.323C152.813 194.407 154.83 192.389 154.83 189.9V4.50712C154.83 2.01775 152.812 0 150.323 0L145.725 0Z" fill="#AD8F50"/>
<path d="M62.8632 13.9204H17.3352C15.4684 13.9204 13.9551 15.4337 13.9551 17.3005V80.1299C13.9551 81.9967 15.4684 83.51 17.3352 83.51H62.8636C64.7305 83.51 66.2438 81.9967 66.2438 80.1299V17.301C66.2438 15.4342 64.73 13.9204 62.8632 13.9204Z" fill="#AD8F50"/>
<path d="M137.529 13.9204H79.2532C77.3864 13.9204 75.873 15.4337 75.873 17.3005V32.7802C75.873 34.647 77.3864 36.1603 79.2532 36.1603H137.529C139.396 36.1603 140.91 34.647 140.91 32.7802V17.301C140.91 15.4342 139.396 13.9204 137.529 13.9204Z" fill="#E5D5B4"/>
<path d="M137.529 52.5512H79.2532C77.3864 52.5512 75.873 51.0379 75.873 49.1711C75.873 47.3043 77.3864 45.791 79.2532 45.791H137.529C139.396 45.791 140.91 47.3043 140.91 49.1711C140.91 51.0379 139.396 52.5512 137.529 52.5512Z" fill="#E5D5B4"/>
<path d="M137.529 67.1204H79.2532C77.3864 67.1204 75.873 65.607 75.873 63.7402C75.873 61.8734 77.3864 60.3601 79.2532 60.3601H137.529C139.396 60.3601 140.91 61.8734 140.91 63.7402C140.91 65.607 139.396 67.1204 137.529 67.1204Z" fill="#E5D5B4"/>
<path d="M137.529 83.5104H79.2532C77.3864 83.5104 75.873 81.9971 75.873 80.1303C75.873 78.2635 77.3864 76.7502 79.2532 76.7502H137.529C139.396 76.7502 140.91 78.2635 140.91 80.1303C140.91 81.9971 139.396 83.5104 137.529 83.5104Z" fill="#E5D5B4"/>
<path d="M137.53 99.9005H51.9368C50.07 99.9005 48.5566 98.3872 48.5566 96.5204C48.5566 94.6536 50.07 93.1403 51.9368 93.1403H137.53C139.397 93.1403 140.91 94.6536 140.91 96.5204C140.91 98.3872 139.397 99.9005 137.53 99.9005Z" fill="#E5D5B4"/>
<path d="M35.5461 99.9005H17.3352C15.4684 99.9005 13.9551 98.3872 13.9551 96.5204C13.9551 94.6536 15.4684 93.1403 17.3352 93.1403H35.5466C37.4134 93.1403 38.9267 94.6536 38.9267 96.5204C38.9267 98.3872 37.413 99.9005 35.5461 99.9005Z" fill="#E5D5B4"/>
<path d="M137.53 116.291H51.9368C50.07 116.291 48.5566 114.778 48.5566 112.911C48.5566 111.044 50.07 109.531 51.9368 109.531H137.53C139.397 109.531 140.91 111.044 140.91 112.911C140.91 114.778 139.397 116.291 137.53 116.291Z" fill="#E5D5B4"/>
<path d="M35.5461 116.291H17.3352C15.4684 116.291 13.9551 114.778 13.9551 112.911C13.9551 111.044 15.4684 109.531 17.3352 109.531H35.5466C37.4134 109.531 38.9267 111.044 38.9267 112.911C38.9267 114.778 37.413 116.291 35.5461 116.291Z" fill="#E5D5B4"/>
<path d="M137.53 132.681H51.9368C50.07 132.681 48.5566 131.168 48.5566 129.301C48.5566 127.434 50.07 125.921 51.9368 125.921H137.53C139.397 125.921 140.91 127.434 140.91 129.301C140.91 131.168 139.397 132.681 137.53 132.681Z" fill="#E5D5B4"/>
<path d="M35.5461 132.681H17.3352C15.4684 132.681 13.9551 131.168 13.9551 129.301C13.9551 127.434 15.4684 125.921 17.3352 125.921H35.5466C37.4134 125.921 38.9267 127.434 38.9267 129.301C38.9267 131.168 37.413 132.681 35.5461 132.681Z" fill="#E5D5B4"/>
<path d="M137.53 149.071H51.9368C50.07 149.071 48.5566 147.558 48.5566 145.691C48.5566 143.824 50.07 142.311 51.9368 142.311H137.53C139.397 142.311 140.91 143.824 140.91 145.691C140.91 147.558 139.397 149.071 137.53 149.071Z" fill="#E5D5B4"/>
<path d="M35.5461 149.071H17.3352C15.4684 149.071 13.9551 147.558 13.9551 145.691C13.9551 143.824 15.4684 142.311 17.3352 142.311H35.5466C37.4134 142.311 38.9267 143.824 38.9267 145.691C38.9267 147.558 37.413 149.071 35.5461 149.071Z" fill="#E5D5B4"/>
<path d="M137.53 165.462H51.9368C50.07 165.462 48.5566 163.948 48.5566 162.082C48.5566 160.215 50.07 158.701 51.9368 158.701H137.53C139.397 158.701 140.91 160.215 140.91 162.082C140.91 163.948 139.397 165.462 137.53 165.462Z" fill="#E5D5B4"/>
<path d="M35.5461 165.462H17.3352C15.4684 165.462 13.9551 163.948 13.9551 162.082C13.9551 160.215 15.4684 158.701 17.3352 158.701H35.5466C37.4134 158.701 38.9267 160.215 38.9267 162.082C38.9267 163.948 37.413 165.462 35.5461 165.462Z" fill="#E5D5B4"/>
</svg>
