<svg width="289" height="312" viewBox="0 0 289 312" fill="none" xmlns="http://www.w3.org/2000/svg">
<rect width="289" height="312" rx="22.2665" fill="white"/>
<path d="M0 217.812C0 217.812 40.4277 166.704 89.6843 207.126C138.941 247.548 154.276 221.065 166.357 174.602C178.439 128.14 228.895 155.659 251.934 165.131C274.974 174.602 290 105.302 290 83" stroke="#D4B982" stroke-width="2.31942" stroke-linecap="round" stroke-linejoin="round"/>
<path fill-rule="evenodd" clip-rule="evenodd" d="M0 217.484C0 217.484 14.4906 204.317 20.5703 199.855C30.969 192.224 41.1925 190.906 48.6663 190.84C64.6234 190.698 78.0892 198.692 97.7497 212.837C103.986 217.324 112.52 220.815 119.162 226.313C119.162 226.313 137.61 226.275 145.228 219.343C155.006 210.447 160.69 192.947 168.036 169.62C169.509 164.945 173.108 160.887 174.553 155.68C174.553 155.68 184.814 147.393 189.914 146.85C197.649 146.027 223.684 149.268 228.28 153.274C240.176 163.645 255.372 164.735 262.898 164.293C270.424 163.851 290.492 123.722 289.991 83.1513C289.489 42.5804 289.991 312.747 289.991 312.747L0 316V217.484Z" fill="url(#paint0_linear)"/>
<path opacity="0.541481" d="M23.8684 283.24H25.0354V288.742C25.0328 289.482 24.8181 290.062 24.3913 290.481C23.9669 290.898 23.3948 291.106 22.6749 291.106C22.2329 291.106 21.8401 291.028 21.4966 290.871C21.1531 290.715 20.8803 290.481 20.6782 290.17C20.4761 289.857 20.3751 289.487 20.3751 289.06H21.5383C21.5408 289.378 21.6494 289.633 21.8641 289.825C22.0788 290.017 22.3592 290.113 22.7052 290.113C23.0791 290.113 23.3657 289.996 23.5653 289.761C23.7648 289.526 23.8659 289.186 23.8684 288.742V283.24ZM29.9785 288.587V285.18H31.1152V291H30.0013V289.992H29.9407C29.7992 290.318 29.5782 290.581 29.2776 290.78C28.9796 290.977 28.6209 291.076 28.2016 291.076C27.6257 291.076 27.1634 290.886 26.8149 290.507C26.4663 290.126 26.292 289.584 26.292 288.882V285.18H27.4249V288.746C27.4249 289.14 27.5335 289.455 27.7507 289.693C27.9705 289.928 28.2572 290.045 28.6108 290.045C28.775 290.045 28.9366 290.015 29.0957 289.954C29.2549 289.894 29.4014 289.805 29.5353 289.689C29.6691 289.573 29.7765 289.42 29.8573 289.231C29.9381 289.039 29.9785 288.824 29.9785 288.587ZM33.4138 287.545V291H32.2809V285.18H33.3683V286.128H33.4403C33.5792 285.807 33.7939 285.557 34.0844 285.377C34.3749 285.196 34.7323 285.105 35.1566 285.105C35.7654 285.105 36.2478 285.294 36.604 285.673C36.9601 286.052 37.1382 286.594 37.1382 287.298V291H36.0053V287.435C36.0053 287.013 35.8955 286.683 35.6757 286.446C35.456 286.206 35.1541 286.086 34.7702 286.086C34.366 286.086 34.0389 286.216 33.7889 286.476C33.5388 286.734 33.4138 287.09 33.4138 287.545Z" fill="#D4B982"/>
<path opacity="0.541481" d="M62.9101 283.24H63.8497V288.787C63.8497 289.282 63.7588 289.703 63.5769 290.049C63.395 290.395 63.1387 290.658 62.8078 290.837C62.4769 291.016 62.0866 291.106 61.637 291.106C61.2127 291.106 60.8351 291.029 60.5042 290.875C60.1733 290.718 59.9131 290.496 59.7237 290.208C59.5342 289.92 59.4395 289.578 59.4395 289.181H60.364C60.364 289.401 60.4183 289.593 60.5269 289.757C60.638 289.919 60.7896 290.045 60.9816 290.136C61.1735 290.227 61.392 290.273 61.637 290.273C61.9073 290.273 62.1372 290.216 62.3266 290.102C62.516 289.988 62.66 289.822 62.7585 289.602C62.8596 289.38 62.9101 289.108 62.9101 288.787V283.24ZM68.9227 288.621V285.18H69.8168V291H68.9227V290.015H68.862C68.7256 290.31 68.5135 290.562 68.2255 290.769C67.9376 290.973 67.5738 291.076 67.1343 291.076C66.7706 291.076 66.4473 290.996 66.1644 290.837C65.8815 290.675 65.6592 290.433 65.4976 290.11C65.3359 289.784 65.2551 289.373 65.2551 288.878V285.18H66.1492V288.818C66.1492 289.242 66.268 289.58 66.5054 289.833C66.7453 290.086 67.051 290.212 67.4223 290.212C67.6446 290.212 67.8706 290.155 68.1005 290.041C68.3329 289.928 68.5274 289.753 68.684 289.519C68.8431 289.284 68.9227 288.984 68.9227 288.621ZM71.9923 283.24V291H71.0981V283.24H71.9923Z" fill="#8A959E"/>
<path opacity="0.541481" d="M97.2579 291H96.2728L99.122 283.24H100.092L102.941 291H101.956L99.6373 284.468H99.5767L97.2579 291ZM97.6216 287.969H101.592V288.802H97.6216V287.969ZM107.34 288.621V285.18H108.234V291H107.34V290.015H107.279C107.143 290.31 106.93 290.562 106.643 290.769C106.355 290.973 105.991 291.076 105.551 291.076C105.188 291.076 104.864 290.996 104.581 290.837C104.299 290.675 104.076 290.433 103.915 290.11C103.753 289.784 103.672 289.373 103.672 288.878V285.18H104.566V288.818C104.566 289.242 104.685 289.58 104.922 289.833C105.162 290.086 105.468 290.212 105.839 290.212C106.062 290.212 106.288 290.155 106.518 290.041C106.75 289.928 106.944 289.753 107.101 289.519C107.26 289.284 107.34 288.984 107.34 288.621ZM99.1675 306.304C98.7355 306.304 98.3642 306.248 98.0535 306.137C97.7429 306.028 97.484 305.884 97.2768 305.705C97.0722 305.528 96.9093 305.339 96.7881 305.137L97.5004 304.637C97.5812 304.743 97.6835 304.864 97.8073 305C97.931 305.139 98.1003 305.259 98.315 305.36C98.5322 305.464 98.8164 305.516 99.1675 305.516C99.6373 305.516 100.025 305.402 100.331 305.175C100.636 304.947 100.789 304.591 100.789 304.106V302.924H100.713C100.648 303.03 100.554 303.161 100.433 303.318C100.314 303.472 100.142 303.61 99.9176 303.731C99.6954 303.85 99.3948 303.909 99.0159 303.909C98.5461 303.909 98.1243 303.798 97.7504 303.576C97.3791 303.353 97.0849 303.03 96.8676 302.606C96.6529 302.181 96.5456 301.666 96.5456 301.06C96.5456 300.464 96.6504 299.945 96.8601 299.503C97.0697 299.058 97.3615 298.715 97.7353 298.472C98.1091 298.227 98.541 298.105 99.0311 298.105C99.4099 298.105 99.7105 298.168 99.9328 298.294C100.158 298.418 100.329 298.559 100.448 298.718C100.569 298.875 100.663 299.004 100.728 299.105H100.819V298.18H101.683V304.167C101.683 304.667 101.57 305.074 101.342 305.387C101.117 305.702 100.814 305.934 100.433 306.08C100.054 306.229 99.6322 306.304 99.1675 306.304ZM99.1372 303.106C99.4958 303.106 99.7989 303.024 100.046 302.86C100.294 302.695 100.482 302.459 100.611 302.151C100.74 301.843 100.804 301.474 100.804 301.045C100.804 300.625 100.741 300.255 100.615 299.935C100.488 299.614 100.302 299.362 100.054 299.181C99.8065 298.999 99.5009 298.908 99.1372 298.908C98.7583 298.908 98.4425 299.004 98.1899 299.196C97.9399 299.388 97.7517 299.645 97.6254 299.969C97.5016 300.292 97.4398 300.651 97.4398 301.045C97.4398 301.449 97.5029 301.806 97.6292 302.117C97.758 302.425 97.9475 302.668 98.1975 302.844C98.4501 303.019 98.7633 303.106 99.1372 303.106Z" fill="#8A959E"/>
<path opacity="0.541481" d="M140.085 285.279C140.044 284.925 139.879 284.649 139.588 284.449C139.298 284.247 138.928 284.146 138.478 284.146C138.008 284.146 137.631 284.253 137.345 284.468C137.062 284.683 136.921 284.958 136.921 285.294C136.921 285.435 136.951 285.567 137.012 285.688C137.072 285.807 137.147 285.907 137.235 285.987C137.326 286.066 137.439 286.139 137.573 286.207C137.709 286.275 137.834 286.328 137.948 286.366C138.061 286.404 138.189 286.441 138.33 286.476L139.088 286.673C140.576 287.039 141.32 287.767 141.32 288.856C141.32 289.527 141.063 290.074 140.551 290.496C140.04 290.918 139.339 291.129 138.448 291.129C137.581 291.129 136.891 290.927 136.375 290.523C135.86 290.116 135.583 289.56 135.546 288.856H136.72C136.753 289.26 136.929 289.569 137.247 289.784C137.568 289.996 137.965 290.102 138.44 290.102C138.943 290.102 139.355 289.987 139.675 289.757C139.999 289.525 140.16 289.221 140.16 288.844C140.16 288.71 140.135 288.588 140.085 288.477C140.034 288.366 139.967 288.271 139.884 288.192C139.803 288.114 139.696 288.042 139.562 287.977C139.43 287.908 139.298 287.851 139.164 287.806C139.03 287.758 138.872 287.71 138.69 287.662L137.773 287.412C136.427 287.048 135.754 286.365 135.754 285.362C135.754 284.925 135.874 284.536 136.114 284.195C136.356 283.854 136.686 283.593 137.103 283.411C137.52 283.227 137.987 283.134 138.505 283.134C139.288 283.134 139.931 283.335 140.433 283.737C140.936 284.138 141.196 284.652 141.214 285.279H140.085ZM144.78 291.117C144.214 291.117 143.721 290.995 143.302 290.75C142.883 290.502 142.562 290.154 142.34 289.704C142.12 289.252 142.01 288.727 142.01 288.128C142.01 287.686 142.074 287.278 142.203 286.904C142.332 286.528 142.513 286.208 142.745 285.946C142.977 285.68 143.262 285.475 143.598 285.328C143.933 285.179 144.301 285.105 144.7 285.105C144.97 285.105 145.228 285.139 145.473 285.207C145.721 285.273 145.954 285.381 146.174 285.533C146.396 285.682 146.588 285.867 146.75 286.09C146.911 286.312 147.039 286.589 147.132 286.919C147.228 287.25 147.276 287.62 147.276 288.03V288.431H143.139C143.154 288.984 143.31 289.415 143.605 289.723C143.903 290.029 144.298 290.182 144.791 290.182C145.117 290.182 145.396 290.111 145.628 289.969C145.863 289.828 146.031 289.622 146.132 289.352L147.204 289.545C147.073 290.025 146.793 290.408 146.363 290.693C145.934 290.976 145.406 291.117 144.78 291.117ZM143.143 287.582H146.166C146.164 287.133 146.029 286.764 145.761 286.476C145.493 286.186 145.142 286.04 144.708 286.04C144.263 286.04 143.897 286.191 143.609 286.491C143.321 286.789 143.166 287.153 143.143 287.582ZM135.762 306.182V298.18H136.868V299.124H136.963C137.018 299.025 137.067 298.943 137.11 298.878C137.153 298.809 137.224 298.722 137.323 298.616C137.424 298.507 137.528 298.42 137.637 298.355C137.746 298.289 137.887 298.231 138.061 298.18C138.238 298.13 138.429 298.105 138.633 298.105C138.985 298.105 139.309 298.173 139.607 298.309C139.908 298.446 140.167 298.64 140.384 298.893C140.601 299.145 140.77 299.461 140.892 299.84C141.015 300.219 141.077 300.639 141.077 301.102C141.077 302.026 140.851 302.76 140.399 303.303C139.947 303.843 139.362 304.114 138.645 304.114C138.443 304.114 138.255 304.088 138.08 304.038C137.909 303.99 137.766 303.933 137.652 303.867C137.541 303.799 137.436 303.713 137.338 303.61C137.239 303.506 137.165 303.419 137.114 303.348C137.066 303.275 137.016 303.19 136.963 303.094H136.894V306.182H135.762ZM136.872 301.09C136.872 301.714 137.006 302.213 137.273 302.587C137.541 302.961 137.914 303.148 138.391 303.148C138.719 303.148 139.001 303.057 139.236 302.875C139.473 302.693 139.649 302.449 139.763 302.143C139.876 301.835 139.933 301.484 139.933 301.09C139.933 300.699 139.876 300.353 139.763 300.052C139.651 299.751 139.478 299.513 139.243 299.336C139.009 299.157 138.724 299.067 138.391 299.067C137.906 299.067 137.531 299.249 137.266 299.613C137.003 299.976 136.872 300.469 136.872 301.09Z" fill="#D4B982"/>
<path opacity="0.541481" d="M183.328 285.453C183.504 285.956 183.593 286.512 183.593 287.12C183.593 287.729 183.504 288.285 183.328 288.787C183.153 289.29 182.911 289.711 182.6 290.049C182.289 290.385 181.919 290.645 181.49 290.83C181.063 291.014 180.6 291.106 180.1 291.106C179.597 291.106 179.131 291.014 178.701 290.83C178.275 290.645 177.906 290.384 177.595 290.045C177.284 289.707 177.041 289.287 176.864 288.787C176.69 288.285 176.602 287.729 176.602 287.12C176.602 286.512 176.69 285.956 176.864 285.453C177.041 284.951 177.284 284.531 177.595 284.195C177.906 283.857 178.275 283.595 178.701 283.411C179.131 283.227 179.597 283.134 180.1 283.134C180.6 283.134 181.063 283.227 181.49 283.411C181.919 283.595 182.289 283.857 182.6 284.195C182.911 284.531 183.153 284.951 183.328 285.453ZM182.255 288.371C182.374 287.999 182.433 287.582 182.433 287.12C182.433 286.658 182.374 286.241 182.255 285.87C182.139 285.499 181.976 285.193 181.767 284.953C181.557 284.711 181.311 284.525 181.028 284.396C180.745 284.267 180.435 284.203 180.1 284.203C179.764 284.203 179.453 284.267 179.167 284.396C178.885 284.525 178.638 284.711 178.429 284.953C178.222 285.193 178.059 285.499 177.94 285.87C177.824 286.241 177.766 286.658 177.766 287.12C177.766 287.582 177.824 287.999 177.94 288.371C178.059 288.742 178.222 289.049 178.429 289.291C178.638 289.531 178.885 289.716 179.167 289.844C179.453 289.973 179.764 290.038 180.1 290.038C180.435 290.038 180.745 289.973 181.028 289.844C181.311 289.716 181.557 289.531 181.767 289.291C181.976 289.049 182.139 288.742 182.255 288.371ZM187.056 291.117C186.503 291.117 186.02 290.99 185.605 290.735C185.194 290.477 184.88 290.122 184.666 289.67C184.451 289.218 184.344 288.7 184.344 288.117C184.344 287.528 184.454 287.007 184.673 286.552C184.896 286.095 185.211 285.74 185.621 285.487C186.032 285.232 186.507 285.105 187.045 285.105C187.707 285.105 188.258 285.284 188.697 285.643C189.137 285.999 189.387 286.471 189.447 287.06H188.345C188.282 286.769 188.138 286.53 187.913 286.344C187.69 286.154 187.408 286.059 187.064 286.059C186.589 286.059 186.208 286.242 185.92 286.609C185.632 286.975 185.488 287.469 185.488 288.09C185.488 288.724 185.631 289.228 185.916 289.602C186.201 289.973 186.584 290.159 187.064 290.159C187.39 290.159 187.666 290.07 187.894 289.894C188.124 289.717 188.274 289.472 188.345 289.159H189.447C189.384 289.737 189.138 290.208 188.708 290.572C188.282 290.936 187.731 291.117 187.056 291.117ZM193.019 285.18V286.09H191.825V289.291C191.825 289.448 191.843 289.58 191.878 289.689C191.916 289.795 191.969 289.875 192.038 289.928C192.108 289.981 192.182 290.017 192.257 290.038C192.333 290.058 192.421 290.068 192.523 290.068C192.624 290.068 192.756 290.052 192.92 290.019L193.125 290.955C192.915 291.033 192.67 291.073 192.39 291.076C192.163 291.081 191.948 291.052 191.746 290.989C191.544 290.925 191.363 290.832 191.204 290.708C191.047 290.582 190.922 290.418 190.829 290.216C190.738 290.011 190.693 289.781 190.693 289.526V286.09H189.84V285.18H190.693V283.786H191.825V285.18H193.019Z" fill="#D4B982"/>
<path opacity="0.541481" d="M222.093 283.24V291H221.183L216.955 284.908H216.879V291H215.94V283.24H216.849L221.092 289.348H221.168V283.24H222.093ZM225.859 291.121C225.334 291.121 224.873 290.996 224.477 290.746C224.082 290.496 223.774 290.146 223.552 289.697C223.332 289.247 223.222 288.722 223.222 288.12C223.222 287.514 223.332 286.985 223.552 286.533C223.774 286.081 224.082 285.73 224.477 285.48C224.873 285.23 225.334 285.105 225.859 285.105C226.385 285.105 226.845 285.23 227.239 285.48C227.635 285.73 227.943 286.081 228.163 286.533C228.385 286.985 228.496 287.514 228.496 288.12C228.496 288.722 228.385 289.247 228.163 289.697C227.943 290.146 227.635 290.496 227.239 290.746C226.845 290.996 226.385 291.121 225.859 291.121ZM225.859 290.318C226.259 290.318 226.587 290.216 226.845 290.011C227.102 289.807 227.293 289.538 227.417 289.204C227.54 288.871 227.602 288.509 227.602 288.12C227.602 287.732 227.54 287.369 227.417 287.033C227.293 286.697 227.102 286.426 226.845 286.218C226.587 286.011 226.259 285.908 225.859 285.908C225.46 285.908 225.132 286.011 224.874 286.218C224.617 286.426 224.426 286.697 224.302 287.033C224.178 287.369 224.117 287.732 224.117 288.12C224.117 288.509 224.178 288.871 224.302 289.204C224.426 289.538 224.617 289.807 224.874 290.011C225.132 290.216 225.46 290.318 225.859 290.318ZM220.577 298.18L218.425 304H217.516L215.364 298.18H216.334L217.94 302.818H218.001L219.607 298.18H220.577Z" fill="#8A959E"/>
<path opacity="0.541481" d="M257.334 291H254.94V283.24H257.44C258.193 283.24 258.837 283.396 259.373 283.707C259.908 284.015 260.319 284.458 260.604 285.036C260.889 285.612 261.032 286.302 261.032 287.105C261.032 287.913 260.888 288.609 260.6 289.193C260.312 289.774 259.893 290.221 259.342 290.534C258.792 290.845 258.122 291 257.334 291ZM255.879 290.166H257.274C257.915 290.166 258.447 290.043 258.869 289.795C259.29 289.548 259.605 289.195 259.812 288.738C260.019 288.281 260.123 287.737 260.123 287.105C260.123 286.479 260.02 285.939 259.816 285.487C259.611 285.033 259.306 284.684 258.899 284.442C258.492 284.197 257.986 284.074 257.38 284.074H255.879V290.166ZM264.571 291.121C264.01 291.121 263.526 290.997 263.119 290.75C262.715 290.5 262.403 290.151 262.184 289.704C261.966 289.255 261.858 288.732 261.858 288.136C261.858 287.54 261.966 287.014 262.184 286.559C262.403 286.102 262.709 285.746 263.1 285.491C263.495 285.233 263.954 285.105 264.48 285.105C264.783 285.105 265.082 285.155 265.378 285.256C265.673 285.357 265.942 285.521 266.185 285.749C266.427 285.973 266.62 286.272 266.764 286.643C266.908 287.014 266.98 287.471 266.98 288.014V288.393H262.494V287.62H266.071C266.071 287.292 266.005 286.999 265.874 286.741C265.745 286.484 265.561 286.28 265.321 286.131C265.083 285.982 264.803 285.908 264.48 285.908C264.123 285.908 263.815 285.996 263.555 286.173C263.298 286.347 263.099 286.575 262.96 286.855C262.821 287.135 262.752 287.436 262.752 287.757V288.272C262.752 288.712 262.828 289.084 262.979 289.39C263.133 289.693 263.347 289.924 263.62 290.083C263.892 290.24 264.209 290.318 264.571 290.318C264.805 290.318 265.018 290.285 265.207 290.22C265.399 290.151 265.564 290.05 265.703 289.916C265.842 289.78 265.95 289.611 266.025 289.409L266.889 289.651C266.798 289.944 266.646 290.202 266.431 290.424C266.216 290.644 265.951 290.816 265.635 290.939C265.319 291.061 264.965 291.121 264.571 291.121ZM257.183 304.121C256.637 304.121 256.167 303.992 255.773 303.735C255.379 303.477 255.076 303.122 254.864 302.67C254.652 302.218 254.546 301.701 254.546 301.12C254.546 300.529 254.654 300.008 254.871 299.556C255.091 299.101 255.397 298.746 255.788 298.491C256.182 298.233 256.642 298.105 257.167 298.105C257.577 298.105 257.945 298.18 258.274 298.332C258.602 298.483 258.871 298.696 259.081 298.968C259.29 299.241 259.421 299.559 259.471 299.923H258.577C258.509 299.658 258.357 299.423 258.122 299.218C257.89 299.011 257.577 298.908 257.183 298.908C256.834 298.908 256.528 298.999 256.266 299.181C256.006 299.36 255.802 299.614 255.656 299.942C255.512 300.268 255.44 300.651 255.44 301.09C255.44 301.54 255.51 301.931 255.652 302.265C255.796 302.598 255.998 302.857 256.258 303.041C256.521 303.226 256.829 303.318 257.183 303.318C257.415 303.318 257.626 303.278 257.815 303.197C258.005 303.116 258.165 303 258.297 302.848C258.428 302.697 258.521 302.515 258.577 302.303H259.471C259.421 302.646 259.296 302.956 259.096 303.231C258.899 303.504 258.638 303.721 258.312 303.883C257.988 304.042 257.612 304.121 257.183 304.121Z" fill="#8A959E"/>
<g filter="url(#filter0_d)">
<circle cx="140.5" cy="222.5" r="5.5" fill="#D4B982"/>
<circle cx="140.5" cy="222.5" r="7.1236" stroke="white" stroke-width="3.24719"/>
</g>
<g filter="url(#filter1_d)">
<circle cx="192.5" cy="146.5" r="5.5" fill="#D4B982"/>
<circle cx="192.5" cy="146.5" r="7.1236" stroke="white" stroke-width="3.24719"/>
</g>
<g filter="url(#filter2_d)">
<circle cx="279.5" cy="131.5" r="5.5" fill="#D4B982"/>
<circle cx="279.5" cy="131.5" r="7.1236" stroke="white" stroke-width="3.24719"/>
</g>
<g filter="url(#filter3_d)">
<circle cx="24.5" cy="194.5" r="5.5" fill="#D4B982"/>
<circle cx="24.5" cy="194.5" r="7.1236" stroke="white" stroke-width="3.24719"/>
</g>
<defs>
<filter id="filter0_d" x="113.197" y="204.475" width="54.6051" height="54.6051" filterUnits="userSpaceOnUse" color-interpolation-filters="sRGB">
<feFlood flood-opacity="0" result="BackgroundImageFix"/>
<feColorMatrix in="SourceAlpha" type="matrix" values="0 0 0 0 0 0 0 0 0 0 0 0 0 0 0 0 0 0 127 0"/>
<feOffset dy="9.27769"/>
<feGaussianBlur stdDeviation="9.27769"/>
<feColorMatrix type="matrix" values="0 0 0 0 0.831373 0 0 0 0 0.72549 0 0 0 0 0.509804 0 0 0 1 0"/>
<feBlend mode="normal" in2="BackgroundImageFix" result="effect1_dropShadow"/>
<feBlend mode="normal" in="SourceGraphic" in2="effect1_dropShadow" result="shape"/>
</filter>
<filter id="filter1_d" x="165.197" y="128.475" width="54.6051" height="54.6051" filterUnits="userSpaceOnUse" color-interpolation-filters="sRGB">
<feFlood flood-opacity="0" result="BackgroundImageFix"/>
<feColorMatrix in="SourceAlpha" type="matrix" values="0 0 0 0 0 0 0 0 0 0 0 0 0 0 0 0 0 0 127 0"/>
<feOffset dy="9.27769"/>
<feGaussianBlur stdDeviation="9.27769"/>
<feColorMatrix type="matrix" values="0 0 0 0 0.831373 0 0 0 0 0.72549 0 0 0 0 0.509804 0 0 0 1 0"/>
<feBlend mode="normal" in2="BackgroundImageFix" result="effect1_dropShadow"/>
<feBlend mode="normal" in="SourceGraphic" in2="effect1_dropShadow" result="shape"/>
</filter>
<filter id="filter2_d" x="252.197" y="113.475" width="54.6051" height="54.6051" filterUnits="userSpaceOnUse" color-interpolation-filters="sRGB">
<feFlood flood-opacity="0" result="BackgroundImageFix"/>
<feColorMatrix in="SourceAlpha" type="matrix" values="0 0 0 0 0 0 0 0 0 0 0 0 0 0 0 0 0 0 127 0"/>
<feOffset dy="9.27769"/>
<feGaussianBlur stdDeviation="9.27769"/>
<feColorMatrix type="matrix" values="0 0 0 0 0.831373 0 0 0 0 0.72549 0 0 0 0 0.509804 0 0 0 1 0"/>
<feBlend mode="normal" in2="BackgroundImageFix" result="effect1_dropShadow"/>
<feBlend mode="normal" in="SourceGraphic" in2="effect1_dropShadow" result="shape"/>
</filter>
<filter id="filter3_d" x="-2.80257" y="176.475" width="54.6051" height="54.6051" filterUnits="userSpaceOnUse" color-interpolation-filters="sRGB">
<feFlood flood-opacity="0" result="BackgroundImageFix"/>
<feColorMatrix in="SourceAlpha" type="matrix" values="0 0 0 0 0 0 0 0 0 0 0 0 0 0 0 0 0 0 127 0"/>
<feOffset dy="9.27769"/>
<feGaussianBlur stdDeviation="9.27769"/>
<feColorMatrix type="matrix" values="0 0 0 0 0.831373 0 0 0 0 0.72549 0 0 0 0 0.509804 0 0 0 1 0"/>
<feBlend mode="normal" in2="BackgroundImageFix" result="effect1_dropShadow"/>
<feBlend mode="normal" in="SourceGraphic" in2="effect1_dropShadow" result="shape"/>
</filter>
<linearGradient id="paint0_linear" x1="-7.72837" y1="106.165" x2="-7.72837" y2="284.401" gradientUnits="userSpaceOnUse">
<stop stop-color="#D4B982"/>
<stop offset="1" stop-color="#D4B982" stop-opacity="0"/>
</linearGradient>
</defs>
</svg>
