<svg width="750" height="789" viewBox="0 0 750 789" fill="none" xmlns="http://www.w3.org/2000/svg">
<path opacity="0.1" d="M1361.49 767.822L1393.3 739.279L924.886 254.615L1541.84 -495.722L1510.03 -524.013L896.36 222.788L726.721 33.3401L1458.9 -556.408L1431.89 -589.498L698.195 1.51294L427.58 -300.846L751.965 -600.678L722.934 -632L399.055 -332.673L132.479 -630.737L100.671 -602.194L367.752 -303.624L40.0858 -1.013L-66.6959 -92.2004L-197.964 -621.644L-239.365 -611.287L-122.485 -139.941L-441.821 -412.999L-455.705 -378.14L-104.562 -68.7089L-63.9191 95.2265L-781.161 713.76L-752.13 745.082L-52.3069 142.462L45.892 537.776L-791 1207.71L-763.989 1240.8L57.2518 583.749L233.488 1331.16L274.889 1320.8L93.8555 553.69L363.966 331.657L611.609 543.333L-160.211 1391.71L-128.404 1420L643.921 570.866L1379.38 1202.1L1407.15 1169.51L672.446 538.786L896.36 286.695L1361.49 767.822ZM396.278 -272.049L665.126 28.5408L364.47 275.833L72.9031 26.7726L396.278 -272.049ZM-48.7728 -20.9681L8.78333 28.0356L-28.0728 62.1362L-48.7728 -20.9681ZM82.2433 507.717L-16.713 109.372L41.0956 56.0739L330.644 303.366L82.2433 507.717ZM639.882 511.254L397.288 304.124L693.651 60.368L867.582 254.868L639.882 511.254Z" fill="#D4B982"/>
</svg>
