<svg width="1405" height="1070" fill="none" xmlns="http://www.w3.org/2000/svg"><path opacity=".1" d="M1118.48 817.043l22.21-19.936-166.475-177.865L1405 95.182l-22.21-19.76-428.493 521.59-118.45-132.316 511.243-411.9-18.86-23.111-512.301 412.782-188.955-211.178 226.5-209.413L833.203 0 607.056 209.06 420.92.882l-22.209 19.936 186.488 208.531-228.792 211.353-74.56-63.688L190.19 7.234l-28.908 7.233 81.611 329.203L19.918 152.958l-9.695 24.346 245.185 216.117 28.378 114.498L0 770.082l20.27 21.877L291.894 540.91l68.567 276.101L97.298 1033.48l18.86 23.11 252.235-207.47 53.232 214.71 28.908-7.24-56.581-228.465L582.555 673.05 755.47 820.892 551.709 1050.24l22.209 19.76 204.114-229.878 177.675 151.723 19.389-22.758L797.95 817.716l156.347-176.069 164.183 175.396zM605.117 251.401l187.722 209.943-209.932 172.717-203.585-173.952 225.795-208.708zM294.362 426.765l40.188 34.226-25.734 23.817-14.454-58.043zm91.481 369.251l-69.095-278.217 40.364-37.225 202.176 172.717-173.445 142.725zm389.369 2.47L605.822 653.82l206.934-170.247 121.447 135.845-158.991 179.068z" fill="#D4B982"/></svg>