<svg width="1383" height="596" viewBox="0 0 1383 596" fill="none" xmlns="http://www.w3.org/2000/svg">
<path opacity="0.1" d="M1100.96 628.062L1122.83 608.443L958.96 433.403L1383 -82.3309L1361.14 -101.776L939.354 411.527L822.759 281.313L1326 -124.043L1307.43 -146.787L803.153 259.437L617.156 51.6147L840.11 -154.471L820.157 -176L597.55 29.7386L414.329 -175.132L392.468 -155.513L576.036 49.7048L350.827 257.701L277.434 195.024L187.212 -168.882L158.757 -161.763L239.089 162.21L19.606 -25.4722L10.0633 -1.5128L251.408 211.171L279.343 323.849L0 581.847L19.953 603.376L287.324 356.316L354.817 628.03L95.7746 841.061L114.34 863.805L362.625 659.629L415.023 870.923L443.478 863.805L387.783 638.968L573.433 486.357L743.641 631.85L543.07 857.555L564.931 877L765.85 650.774L940.742 800.087L959.828 777.69L785.456 628.725L939.354 455.453L1100.96 628.062ZM595.642 71.4072L780.424 278.014L573.78 447.987L373.382 276.799L595.642 71.4072ZM289.753 243.985L329.312 277.667L303.98 301.105L289.753 243.985ZM379.802 607.369L311.788 333.572L351.521 296.938L550.53 466.912L379.802 607.369ZM763.074 609.8L596.336 467.432L800.03 299.89L919.575 433.577L763.074 609.8Z" fill="white"/>
</svg>
