<svg width="1405" height="1070" viewBox="0 0 1405 1070" fill="none" xmlns="http://www.w3.org/2000/svg">
<path opacity="0.1" d="M1118.48 817.043L1140.69 797.107L974.215 619.242L1405 95.1813L1382.79 75.4221L954.297 597.012L835.847 464.696L1347.09 52.7962L1328.23 29.6849L815.929 442.467L626.974 231.289L853.474 21.8763L833.203 0L607.056 209.06L420.92 0.88211L398.711 20.8178L585.199 229.349L356.407 440.702L281.847 377.014L190.19 7.23331L161.282 14.4666L242.893 343.67L19.9179 152.958L10.2234 177.304L255.408 393.421L283.786 507.919L0 770.082L20.2704 791.959L291.894 540.91L360.461 817.011L97.2981 1033.48L116.158 1056.59L368.393 849.12L421.625 1063.83L450.533 1056.59L393.952 828.125L582.555 673.05L755.47 820.892L551.709 1050.24L573.918 1070L778.032 840.122L955.707 991.845L975.096 969.087L797.95 817.716L954.297 641.647L1118.48 817.043ZM605.117 251.401L792.839 461.344L582.907 634.061L379.322 460.109L605.117 251.401ZM294.362 426.765L334.55 460.991L308.816 484.808L294.362 426.765ZM385.843 796.016L316.748 517.799L357.112 480.574L559.288 653.291L385.843 796.016ZM775.212 798.486L605.822 653.82L812.756 483.573L934.203 619.418L775.212 798.486Z" fill="#D4B982"/>
</svg>
