<svg width="1383" height="596" fill="none" xmlns="http://www.w3.org/2000/svg"><path opacity=".1" d="M1100.96 628.062l21.87-19.619-163.87-175.04L1383-82.331l-21.86-19.445-421.786 513.303-116.595-130.214L1326-124.043l-18.57-22.744-504.277 406.224L617.156 51.615 840.11-154.471 820.157-176 597.55 29.739 414.329-175.132l-21.861 19.619L576.036 49.705 350.827 257.7l-73.393-62.677-90.222-363.906-28.455 7.119 80.332 323.973L19.606-25.472l-9.543 23.96L251.408 211.17l27.935 112.678L0 581.847l19.953 21.529 267.371-247.06 67.493 271.714L95.775 841.061l18.565 22.744 248.285-204.176 52.398 211.294 28.455-7.118-55.695-224.837 185.65-152.611L743.641 631.85 543.07 857.555 564.931 877 765.85 650.774l174.892 149.313 19.086-22.397-174.372-148.965 153.898-173.272 161.606 172.609zM595.642 71.407l184.782 206.607L573.78 447.987 373.382 276.799l222.26-205.392zM289.753 243.985l39.559 33.682-25.332 23.438-14.227-57.12zm90.049 363.384l-68.014-273.797 39.733-36.634L550.53 466.912 379.802 607.369zm383.272 2.431L596.336 467.432 800.03 299.89l119.545 133.687L763.074 609.8z" fill="#fff"/></svg>