<svg width="101" height="101" viewBox="0 0 101 101" fill="none" xmlns="http://www.w3.org/2000/svg">
<path d="M5.85031 50.9622C5.6296 50.7415 5.3484 50.5912 5.04227 50.5303C4.73613 50.4694 4.41882 50.5006 4.13044 50.6201C3.84207 50.7395 3.5956 50.9418 3.42219 51.2013C3.24879 51.4609 3.15624 51.766 3.15625 52.0781V96.2656C3.15625 96.6842 3.32252 97.0856 3.61847 97.3815C3.91443 97.6775 4.31583 97.8437 4.73437 97.8437H48.9219C49.234 97.8437 49.5391 97.7512 49.7987 97.5778C50.0582 97.4044 50.2605 97.1579 50.3799 96.8695C50.4994 96.5812 50.5306 96.2639 50.4697 95.9577C50.4088 95.6516 50.2585 95.3704 50.0378 95.1497L5.85031 50.9622ZM6.3125 94.6875V55.8879L45.1121 94.6875H6.3125Z" fill="#D4B982"/>
<path d="M14.2031 88.375H26.8281C27.1403 88.375 27.4454 88.2824 27.7049 88.109C27.9644 87.9356 28.1667 87.6892 28.2862 87.4008C28.4056 87.1124 28.4369 86.7951 28.376 86.489C28.3151 86.1828 28.1648 85.9016 27.9441 85.6809L15.3191 73.0559C15.0984 72.8352 14.8172 72.6849 14.511 72.624C14.2049 72.5631 13.8876 72.5944 13.5992 72.7138C13.3108 72.8333 13.0643 73.0356 12.8909 73.2951C12.7175 73.5546 12.625 73.8597 12.625 74.1719V86.7969C12.625 87.2154 12.7913 87.6168 13.0872 87.9128C13.3832 88.2087 13.7846 88.375 14.2031 88.375ZM15.7812 77.9819L23.0183 85.2187H15.7812V77.9819Z" fill="#D4B982"/>
<path d="M20.5156 9.46875H23.6719V12.625H20.5156V9.46875Z" fill="#D4B982"/>
<path d="M26.8281 9.46875H29.9844V12.625H26.8281V9.46875Z" fill="#D4B982"/>
<path d="M33.1406 9.46875H36.2969V12.625H33.1406V9.46875Z" fill="#D4B982"/>
<path d="M35.657 31.7006C35.3764 31.8219 35.1378 32.0232 34.9709 32.2793C34.804 32.5354 34.7164 32.835 34.7188 33.1407V50.5C34.7188 50.8053 34.8073 51.1041 34.9737 51.36C35.14 51.616 35.377 51.8183 35.656 51.9423L49.8591 58.2547C50.0609 58.3447 50.2794 58.3911 50.5004 58.3909C50.7213 58.3906 50.9397 58.3439 51.1414 58.2536V58.2547L65.3445 51.9423C65.6234 51.8182 65.8603 51.6159 66.0266 51.36C66.1929 51.104 66.2814 50.8053 66.2813 50.5V33.1407C66.2838 32.835 66.1961 32.5354 66.0292 32.2793C65.8623 32.0232 65.6237 31.8219 65.3431 31.7006V31.6985L51.14 25.386C50.9381 25.2964 50.7197 25.2501 50.4989 25.2501C50.278 25.2501 50.0596 25.2964 49.8578 25.386L35.6546 31.6985L35.657 31.7006ZM48.9219 54.3842L37.8751 49.4743V35.569L48.9219 40.479V54.3842ZM63.1251 49.4743L52.0782 54.3842V40.479L63.1251 35.5692V49.4743ZM50.5001 28.555L60.817 33.1407L50.5001 37.7261L40.1831 33.1407L50.5001 28.555Z" fill="#D4B982"/>
<path d="M48.9219 63.125H52.0781V71.0156H48.9219V63.125Z" fill="#D4B982"/>
<path d="M48.9219 14.2031H52.0781V22.0938H48.9219V14.2031Z" fill="#D4B982"/>
<path d="M22.9824 29.84L24.3428 26.9931L30.9486 30.1495L29.5882 32.9964L22.9824 29.84Z" fill="#D4B982"/>
<path d="M70.0156 30.1267L76.6214 26.9703L77.9818 29.8172L71.376 32.9736L70.0156 30.1267Z" fill="#D4B982"/>
<path d="M22.9824 55.371L29.5882 52.2146L30.9486 55.0615L24.3428 58.218L22.9824 55.371Z" fill="#D4B982"/>
<path d="M96.2656 75.75H86.7969V51.1537L96.0743 41.8763C96.6353 41.3153 97.0803 40.6493 97.3839 39.9162C97.6875 39.1832 97.8438 38.3976 97.8438 37.6042C97.8438 36.8108 97.6875 36.0251 97.3839 35.2921C97.0802 34.5591 96.6352 33.8931 96.0742 33.3321C95.5132 32.7711 94.8471 32.326 94.1141 32.0224C93.3811 31.7188 92.5954 31.5625 91.802 31.5625C91.0086 31.5626 90.223 31.7188 89.49 32.0225C88.757 32.3261 88.0909 32.7711 87.5299 33.3322L86.7969 34.0652V20.5156C86.7969 20.3084 86.7561 20.1032 86.6768 19.9117C86.5975 19.7202 86.4812 19.5462 86.3347 19.3997L70.5534 3.61844C70.4069 3.4719 70.2329 3.35566 70.0414 3.27636C69.85 3.19706 69.6447 3.15624 69.4375 3.15625H20.5156C18.842 3.15813 17.2375 3.8238 16.0541 5.00721C14.8707 6.19063 14.205 7.79515 14.2031 9.46875V55.2344H17.3594V9.46875C17.3604 8.63196 17.6932 7.82974 18.2849 7.23804C18.8766 6.64634 19.6788 6.31349 20.5156 6.3125H67.8594V15.7812C67.8613 17.4549 68.5269 19.0594 69.7103 20.2428C70.8938 21.4262 72.4983 22.0919 74.1719 22.0938H83.6406V37.2213L58.8528 62.0091C58.6326 62.2294 58.4824 62.51 58.4212 62.8155L56.8431 70.7061C56.7921 70.9609 56.8048 71.2243 56.8801 71.473C56.9554 71.7217 57.0909 71.9479 57.2746 72.1316C57.4584 72.3153 57.6846 72.4509 57.9333 72.5261C58.1819 72.6014 58.4454 72.6141 58.7001 72.5632L66.5908 70.985C66.8963 70.9239 67.1769 70.7738 67.3972 70.5534L83.6406 54.31V75.75H52.0781C51.6596 75.75 51.2582 75.9163 50.9622 76.2122C50.6663 76.5082 50.5 76.9096 50.5 77.3281V82.0625H42.6094V85.2188H50.5V89.9531C50.5 90.3717 50.6663 90.7731 50.9622 91.069C51.2582 91.365 51.6596 91.5312 52.0781 91.5312H96.2656C96.6842 91.5312 97.0856 91.365 97.3815 91.069C97.6775 90.7731 97.8438 90.3717 97.8438 89.9531V77.3281C97.8438 76.9096 97.6775 76.5082 97.3815 76.2122C97.0856 75.9163 96.6842 75.75 96.2656 75.75ZM71.0156 15.7812V8.54436L81.4088 18.9375H74.1719C73.3351 18.9365 72.5329 18.6037 71.9412 18.012C71.3495 17.4203 71.0166 16.618 71.0156 15.7812ZM62.2006 63.125L86.7969 38.5287L90.8775 42.6094L66.2812 67.2056L62.2006 63.125ZM91.8021 34.7188C92.3728 34.7188 92.9306 34.8881 93.4051 35.2051C93.8796 35.5222 94.2495 35.9729 94.4678 36.5001C94.6862 37.0274 94.7434 37.6075 94.632 38.1672C94.5207 38.727 94.2459 39.2411 93.8424 39.6447L93.1094 40.3775L89.0287 36.2969L89.7618 35.5638C90.0291 35.295 90.347 35.0819 90.6973 34.9369C91.0475 34.7918 91.423 34.7177 91.8021 34.7188ZM60.9379 66.326L63.0802 68.4683L60.4027 69.0035L60.9379 66.326ZM94.6875 88.375H53.6562V78.9062H56.8125V82.0625H59.9688V78.9062H63.125V82.0625H66.2812V78.9062H69.4375V82.0625H72.5938V78.9062H75.75V82.0625H78.9062V78.9062H82.0625V82.0625H85.2188V78.9062H88.375V82.0625H91.5312V78.9062H94.6875V88.375Z" fill="#D4B982"/>
</svg>
