<svg width="101" height="101" viewBox="0 0 101 101" fill="none" xmlns="http://www.w3.org/2000/svg">
<g clip-path="url(#clip0)">
<path d="M98.3662 39.3222L83.2575 30.2695C83.2621 30.221 83.2644 30.1716 83.2644 30.1216V1.49105C83.2644 0.667313 82.5958 0 81.7705 0H75.1962C74.3717 0 73.7023 0.667313 73.7023 1.49105C73.7023 2.31479 74.3717 2.9821 75.1962 2.9821H80.2765V28.4833L66.9165 20.4787H73.8026C74.6272 20.4787 75.2966 19.8113 75.2966 18.9876C75.2966 18.1639 74.6272 17.4966 73.8026 17.4966H62.1813C62.1088 17.4966 62.0377 17.5035 61.9675 17.5135L56.2973 14.1168H73.8019C74.6272 14.1168 75.2958 13.4487 75.2958 12.625C75.2958 11.802 74.6272 11.134 73.8019 11.134H51.4904C51.4371 11.134 51.3854 11.137 51.3337 11.1424L43.7109 6.57527C43.013 6.15685 42.0788 6.39033 41.6603 7.08616L41.1392 7.95305H25.991C25.1664 7.95305 24.497 8.62036 24.497 9.4441V25.3502C24.497 26.1732 25.1664 26.8412 25.991 26.8412H29.778L19.5171 43.9009V2.9821H68.2908C69.1161 2.9821 69.7847 2.31479 69.7847 1.49105C69.7847 0.667313 69.1161 0 68.2908 0H18.0232C17.1978 0 16.5284 0.667313 16.5284 1.49105V48.8687L2.28748 72.5453C1.86284 73.2511 2.09215 74.1673 2.79937 74.5911L46.5244 100.788C46.8595 100.989 47.2764 101.051 47.6555 100.956L65.1484 96.5963C65.5283 96.5015 65.8657 96.2518 66.0672 95.9166L76.044 79.3309H81.7705C82.5958 79.3309 83.2652 78.6628 83.2652 77.8391V67.3254L98.8781 41.368C99.3028 40.6614 99.0735 39.746 98.3662 39.3222ZM31.5693 23.8591H27.4858V10.9352H39.3456L31.5716 23.8591C31.5708 23.8591 31.57 23.8591 31.5693 23.8591ZM50.4303 97.1904L54.3671 90.6459L60.9252 94.5751L59.8435 94.844L50.4303 97.1904ZM80.2765 76.348H77.8383L80.2765 72.2941V76.348ZM64.2744 93.1033L54.6242 87.3217C53.917 86.8979 52.999 87.1267 52.5744 87.8326L46.7815 97.4639L5.61899 72.8011L43.4538 9.89951L95.5474 41.1114L64.2744 93.1033Z" fill="#D4B982"/>
<path d="M53.649 27.1387L64.58 33.6877C64.8209 33.8318 65.0858 33.9004 65.3475 33.9004C65.8547 33.9004 66.3496 33.6423 66.6299 33.1768C67.0553 32.4702 66.826 31.5548 66.118 31.1302L55.187 24.5811C54.4797 24.1573 53.5617 24.3862 53.1371 25.092C52.7125 25.7986 52.9418 26.7148 53.649 27.1387Z" fill="#D4B982"/>
<path d="M70.0455 36.9626L85.0763 45.9675C85.8306 46.4191 86.8374 46.1062 87.2041 45.3094C87.5168 44.6283 87.2574 43.796 86.6142 43.4108L71.5834 34.4051C70.8762 33.9813 69.9582 34.2102 69.5336 34.916C69.1089 35.6226 69.3382 36.5388 70.0455 36.9626Z" fill="#D4B982"/>
<path d="M39.1627 29.5898L51.4603 36.958C51.7012 37.1021 51.966 37.1707 52.2277 37.1707C52.735 37.1707 53.2299 36.9126 53.5101 36.4471C53.9356 35.7413 53.7063 34.8251 52.9983 34.4013L40.7006 27.0331C39.9934 26.6093 39.0754 26.8381 38.6508 27.544C38.2261 28.2498 38.4554 29.166 39.1627 29.5898Z" fill="#D4B982"/>
<path d="M81.691 51.5935L58.4623 37.6755C57.7551 37.2517 56.8371 37.4805 56.4125 38.1871C55.9878 38.893 56.2171 39.8092 56.9244 40.233L80.1531 54.1502C80.9074 54.6018 81.9149 54.2889 82.2809 53.4922C82.5944 52.811 82.335 51.9788 81.691 51.5935Z" fill="#D4B982"/>
<path d="M77.5909 58.4122L36.5991 33.8519C35.8918 33.4281 34.9738 33.6562 34.5492 34.3628C34.1246 35.0686 34.3539 35.9848 35.0611 36.4086L76.053 60.969C76.8073 61.4205 77.8148 61.1077 78.1808 60.3109C78.4943 59.629 78.2341 58.7975 77.5909 58.4122Z" fill="#D4B982"/>
<path d="M73.4893 65.2302L42.0627 46.4014C41.3547 45.9776 40.4375 46.2064 40.0121 46.9123C39.5874 47.6181 39.8167 48.5343 40.5247 48.9581L71.9513 67.7878C72.7057 68.2393 73.7132 67.9265 74.0792 67.1297C74.3926 66.4477 74.1324 65.6155 73.4893 65.2302Z" fill="#D4B982"/>
<path d="M26.858 50.0462L51.4532 64.7818C51.6941 64.9259 51.959 64.9945 52.2207 64.9945C52.7279 64.9945 53.2228 64.7364 53.5031 64.2709C53.9278 63.5651 53.6984 62.6489 52.9912 62.2251L28.3959 47.4887C27.6879 47.0649 26.7707 47.2937 26.3461 48.0004C25.9214 48.7062 26.1507 49.6224 26.858 50.0462Z" fill="#D4B982"/>
<path d="M69.3881 72.049L58.457 65.5C57.7498 65.0761 56.8318 65.3042 56.4071 66.0108C55.9817 66.7167 56.211 67.6329 56.919 68.0567L67.8501 74.6058C68.6044 75.0581 69.612 74.7445 69.9779 73.9477C70.2906 73.2665 70.0312 72.4343 69.3881 72.049Z" fill="#D4B982"/>
<path d="M22.7564 56.8641L32.3209 62.5949C32.5618 62.7397 32.8266 62.8083 33.0883 62.8083C33.5964 62.8083 34.0913 62.5502 34.3715 62.084C34.7962 61.3781 34.5669 60.4619 33.8589 60.0381L24.2944 54.3074C23.5872 53.8836 22.6692 54.1124 22.2445 54.8183C21.8199 55.5249 22.0492 56.4411 22.7564 56.8641Z" fill="#D4B982"/>
<path d="M65.2875 78.8678L39.3264 63.3131C38.6184 62.8893 37.7012 63.1181 37.2758 63.824C36.8511 64.5298 37.0804 65.446 37.7877 65.8698L63.7495 81.4245C64.5038 81.8761 65.5106 81.5632 65.8774 80.7665C66.19 80.0853 65.9306 79.2531 65.2875 78.8678Z" fill="#D4B982"/>
<path d="M61.1847 85.6865L20.1928 61.1262C19.4848 60.7024 18.5676 60.9312 18.143 61.6371C17.7183 62.3429 17.9476 63.2591 18.6548 63.6829L59.6467 88.2433C60.4003 88.6948 61.4078 88.382 61.7738 87.5852C62.0872 86.904 61.8278 86.0718 61.1847 85.6865Z" fill="#D4B982"/>
<path d="M32.4886 77.7689L16.092 67.945C15.384 67.5212 14.4668 67.75 14.0414 68.4559C13.6167 69.1617 13.846 70.0779 14.554 70.5017L30.9506 80.3257C31.1915 80.4706 31.4563 80.5391 31.7181 80.5391C32.2253 80.5391 32.7202 80.281 33.0005 79.8148C33.4251 79.109 33.1958 78.1928 32.4886 77.7689Z" fill="#D4B982"/>
<path d="M47.5195 86.7746L37.9551 81.0438C37.2471 80.62 36.3298 80.8489 35.9052 81.5547C35.4798 82.2606 35.7091 83.1768 36.4171 83.6006L45.9816 89.3313C46.7359 89.7829 47.7435 89.47 48.1094 88.6732C48.4229 87.9921 48.1635 87.1598 47.5195 86.7746Z" fill="#D4B982"/>
</g>
<defs>
<clipPath id="clip0">
<rect width="101" height="101" fill="white"/>
</clipPath>
</defs>
</svg>
