<svg width="113" height="60" viewBox="0 0 113 60" fill="none" xmlns="http://www.w3.org/2000/svg">
<path d="M62.1967 55.7618C68.5902 55.7618 72.9891 52.7424 75.3934 46.7036L79 48.7812C77.5792 52.3269 75.4208 55.097 72.5246 57.0914C69.6284 59.0305 66.1858 60 62.1967 60C56.2951 60 51.459 57.9224 47.6885 53.7673C43.9727 49.6122 41.6503 43.9612 40.7213 36.8144H34V33.0748H40.3934C40.3388 32.41 40.3115 31.385 40.3115 30C40.3115 28.3934 40.3388 27.2022 40.3934 26.4266H34V22.7701H40.8033C41.7322 15.7341 44.0546 10.1939 47.7705 6.14959C51.541 2.04986 56.3497 0 62.1967 0C66.1858 0 69.6284 0.969526 72.5246 2.90858C75.4208 4.84764 77.5792 7.59003 79 11.1357L75.3934 13.2133C74.2459 10.3324 72.5246 8.11634 70.2295 6.5651C67.9344 5.01385 65.2568 4.23823 62.1967 4.23823C57.7158 4.23823 53.9727 5.87258 50.9672 9.14128C47.9618 12.3546 46.0219 16.8975 45.1475 22.7701H67.1148V26.4266H44.7377C44.6831 27.2022 44.6557 28.3934 44.6557 30C44.6557 31.385 44.6831 32.41 44.7377 33.0748H67.1148V36.8144H45.0656C45.9399 42.8532 47.8798 47.5346 50.8852 50.8587C53.8907 54.1274 57.6612 55.7618 62.1967 55.7618Z" fill="#D4B982"/>
<path d="M18.1712 57.3158C22.2914 57.3158 25.1263 55.4035 26.6758 51.5789L29 52.8947C28.0844 55.1404 26.6934 56.8947 24.827 58.1579C22.9605 59.386 20.742 60 18.1712 60C14.3679 60 11.2514 58.6842 8.8215 56.0526C6.42684 53.4211 4.93018 49.8421 4.33151 45.3158H0V42.9474H4.12022C4.085 42.5263 4.0674 41.8772 4.0674 41C4.0674 39.9825 4.085 39.2281 4.12022 38.7368H0V36.4211H4.38434C4.983 31.9649 6.47966 28.4561 8.87432 25.8947C11.3042 23.2982 14.4032 22 18.1712 22C20.742 22 22.9605 22.614 24.827 23.8421C26.6934 25.0702 28.0844 26.807 29 29.0526L26.6758 30.3684C25.9362 28.5439 24.827 27.1404 23.3479 26.1579C21.8689 25.1754 20.1433 24.6842 18.1712 24.6842C15.2835 24.6842 12.8713 25.7193 10.9344 27.7895C8.99757 29.8246 7.74742 32.7018 7.18397 36.4211H21.3406V38.7368H6.91986C6.88464 39.2281 6.86703 39.9825 6.86703 41C6.86703 41.8772 6.88464 42.5263 6.91986 42.9474H21.3406V45.3158H7.13115C7.6946 49.1404 8.94475 52.1053 10.8816 54.2105C12.8185 56.2807 15.2483 57.3158 18.1712 57.3158Z" fill="#D4B982"/>
<path d="M102.171 57.3158C106.291 57.3158 109.126 55.4035 110.676 51.5789L113 52.8947C112.084 55.1404 110.693 56.8947 108.827 58.1579C106.961 59.386 104.742 60 102.171 60C98.3679 60 95.2514 58.6842 92.8215 56.0526C90.4268 53.4211 88.9302 49.8421 88.3315 45.3158H84V42.9474H88.1202C88.085 42.5263 88.0674 41.8772 88.0674 41C88.0674 39.9825 88.085 39.2281 88.1202 38.7368H84V36.4211H88.3843C88.983 31.9649 90.4797 28.4561 92.8743 25.8947C95.3042 23.2982 98.4032 22 102.171 22C104.742 22 106.961 22.614 108.827 23.8421C110.693 25.0702 112.084 26.807 113 29.0526L110.676 30.3684C109.936 28.5439 108.827 27.1404 107.348 26.1579C105.869 25.1754 104.143 24.6842 102.171 24.6842C99.2835 24.6842 96.8713 25.7193 94.9344 27.7895C92.9976 29.8246 91.7474 32.7018 91.184 36.4211H105.341V38.7368H90.9199C90.8846 39.2281 90.867 39.9825 90.867 41C90.867 41.8772 90.8846 42.5263 90.9199 42.9474H105.341V45.3158H91.1311C91.6946 49.1404 92.9447 52.1053 94.8816 54.2105C96.8185 56.2807 99.2483 57.3158 102.171 57.3158Z" fill="#D4B982"/>
</svg>
