<svg width="1880" height="1680" viewBox="0 0 1880 1680" fill="none" xmlns="http://www.w3.org/2000/svg">
<path opacity="0.1" d="M1921.65 1177.82L1953.46 1149.28L1485.05 664.615L2102 -85.7217L2070.19 -114.013L1456.52 632.788L1286.88 443.34L2019.06 -146.408L1992.05 -179.498L1258.36 411.513L987.74 109.154L1312.12 -190.678L1283.09 -222L959.215 77.3273L692.639 -220.737L660.832 -192.194L927.912 106.376L600.246 408.987L493.464 317.8L362.196 -211.644L320.796 -201.287L437.675 270.059L118.339 -2.99852L104.455 31.8598L455.598 341.291L496.241 505.227L-221.001 1123.76L-191.97 1155.08L507.853 552.462L606.052 947.776L-230.84 1617.71L-203.829 1650.8L617.412 993.749L793.649 1741.16L835.049 1730.8L654.016 963.69L924.126 741.657L1171.77 953.333L399.949 1801.71L431.756 1830L1204.08 980.866L1939.54 1612.1L1967.31 1579.51L1232.61 948.786L1456.52 696.695L1921.65 1177.82ZM956.438 137.951L1225.29 438.541L924.631 685.833L633.063 436.773L956.438 137.951ZM511.387 389.032L568.943 438.036L532.087 472.136L511.387 389.032ZM642.403 917.717L543.447 519.372L601.256 466.074L890.804 713.366L642.403 917.717ZM1200.04 921.254L957.448 714.124L1253.81 470.368L1427.74 664.868L1200.04 921.254Z" fill="#D4B982"/>
</svg>
