<svg width="101" height="101" viewBox="0 0 101 101" fill="none" xmlns="http://www.w3.org/2000/svg">
<path d="M81.8343 51.9795H86.2329C86.9212 55.3853 89.937 57.9576 93.5426 57.9576C97.6546 57.9576 101 54.6122 101 50.5C101 46.3878 97.6546 43.0424 93.5424 43.0424C89.9368 43.0424 86.921 45.6147 86.2327 49.0205H81.8341C81.4823 41.4844 78.4602 34.6345 73.6929 29.3993L81.6159 21.4765C83.1755 22.6122 85.0931 23.2846 87.1658 23.2846C92.3767 23.2846 96.616 19.0452 96.616 13.8342C96.616 8.62327 92.3767 4.38403 87.1658 4.38403C81.9548 4.38403 77.7156 8.62347 77.7156 13.8342C77.7156 15.9069 78.3878 17.8245 79.5237 19.3841L71.6007 27.3069C66.3655 22.5398 59.5156 19.5175 51.9795 19.1659V14.7673C55.3853 14.079 57.9576 11.0632 57.9576 7.45763C57.9576 3.34543 54.6122 0 50.5 0C46.3878 0 43.0424 3.34543 43.0424 7.45763C43.0424 11.0632 45.6147 14.079 49.0205 14.7673V19.1657C41.4844 19.5175 34.6345 22.5396 29.3993 27.3067L21.4769 19.3845C22.6128 17.8247 23.2852 15.9069 23.2852 13.8342C23.2852 10.6875 21.7266 7.75708 19.116 5.99549C18.4382 5.53863 17.5188 5.71696 17.0621 6.39437C16.605 7.07178 16.7836 7.99123 17.4608 8.44829C19.2551 9.65891 20.3261 11.6724 20.3261 13.8342C20.3261 17.4138 17.4136 20.3263 13.834 20.3263C10.2545 20.3263 7.34223 17.4138 7.34223 13.8342C7.34223 10.9435 9.28233 8.37412 12.0602 7.58605C12.8463 7.36294 13.3028 6.54488 13.0797 5.75878C12.8566 4.97267 12.0381 4.51679 11.2526 4.73931C7.20789 5.887 4.38324 9.62696 4.38324 13.8342C4.38324 19.0456 8.62287 23.2852 13.8342 23.2852C15.9071 23.2852 17.8249 22.6128 19.3845 21.4769L27.3069 29.3991C22.5396 34.6343 19.5175 41.4842 19.1657 49.0203H14.7673C14.079 45.6145 11.0632 43.0422 7.45763 43.0422C3.34543 43.0424 0 46.3878 0 50.5C0 54.6122 3.34543 57.9576 7.45763 57.9576C11.0632 57.9576 14.079 55.3853 14.7673 51.9795H19.1659C19.5177 59.5156 22.5398 66.3655 27.3071 71.6007L19.3841 79.5235C17.8245 78.3878 15.9069 77.7154 13.8342 77.7154C8.62327 77.7154 4.38403 81.9548 4.38403 87.1658C4.38403 92.3767 8.62327 96.616 13.8342 96.616C19.0452 96.616 23.2844 92.3765 23.2844 87.1658C23.2844 85.0931 22.6122 83.1755 21.4763 81.6159L29.3993 73.6931C34.6345 78.4602 41.4844 81.4825 49.0205 81.8341V86.2325C45.6147 86.9208 43.0424 89.9366 43.0424 93.5422C43.0424 97.6546 46.3878 101 50.5 101C54.6122 101 57.9576 97.6546 57.9576 93.5424C57.9576 89.9368 55.3853 86.921 51.9795 86.2327V81.8343C59.5156 81.4825 66.3655 78.4604 71.6007 73.6933L79.5231 81.6155C78.3872 83.1753 77.7148 85.0931 77.7148 87.1658C77.7148 92.3769 81.9544 96.6168 87.1658 96.6168C92.3771 96.6168 96.6168 92.3771 96.6168 87.1658C96.6168 86.1427 96.4538 85.1353 96.1325 84.1709C95.8739 83.3958 95.0357 82.9768 94.2612 83.235C93.486 83.4935 93.067 84.3313 93.3254 85.1065C93.5459 85.7683 93.658 86.4613 93.658 87.1656C93.658 90.7451 90.7455 93.6576 87.166 93.6576C83.5864 93.6576 80.674 90.7453 80.674 87.1656C80.674 83.5858 83.5864 80.6736 87.166 80.6736C87.9852 80.6736 88.7841 80.8243 89.5404 81.1215C90.3001 81.4204 91.1596 81.0462 91.4587 80.2857C91.7575 79.5253 91.3833 78.6666 90.6228 78.3675C89.5203 77.9343 88.3574 77.7146 87.1662 77.7146C85.0933 77.7146 83.1755 78.387 81.6159 79.5229L73.6935 71.6007C78.4602 66.3655 81.4825 59.5156 81.8343 51.9795ZM93.5424 46.0014C96.023 46.0014 98.041 48.0194 98.041 50.5C98.041 52.9806 96.023 54.9986 93.5424 54.9986C91.0618 54.9986 89.0437 52.9806 89.0437 50.5C89.0437 48.0194 91.062 46.0014 93.5424 46.0014ZM87.1658 7.34302C90.7451 7.34302 93.657 10.2551 93.657 13.8342C93.657 17.4136 90.7449 20.3257 87.1658 20.3257C83.5866 20.3257 80.6745 17.4136 80.6745 13.8342C80.6745 10.2549 83.5866 7.34302 87.1658 7.34302ZM46.0014 7.45763C46.0014 4.97701 48.0196 2.95898 50.5 2.95898C52.9804 2.95898 54.9986 4.97701 54.9986 7.45763C54.9986 9.93824 52.9804 11.9563 50.5 11.9563C48.0196 11.9563 46.0014 9.93805 46.0014 7.45763ZM7.45763 54.9986C4.97701 54.9986 2.95898 52.9806 2.95898 50.5C2.95898 48.0194 4.97701 46.0014 7.45763 46.0014C9.93824 46.0014 11.9561 48.0194 11.9561 50.5C11.9561 52.9806 9.93805 54.9986 7.45763 54.9986ZM50.5 22.089C66.1658 22.089 78.911 34.8341 78.911 50.5C78.911 66.1658 66.1658 78.911 50.5 78.911C34.8341 78.911 22.089 66.166 22.089 50.5C22.089 34.834 34.8341 22.089 50.5 22.089ZM13.8342 93.657C10.2549 93.657 7.34302 90.7449 7.34302 87.1658C7.34302 83.5864 10.2551 80.6743 13.8342 80.6743C17.4134 80.6743 20.3255 83.5864 20.3255 87.1658C20.3255 90.7451 17.4134 93.657 13.8342 93.657ZM54.9986 93.5424C54.9986 96.023 52.9804 98.041 50.5 98.041C48.0196 98.041 46.0014 96.023 46.0014 93.5424C46.0014 91.0618 48.0196 89.0437 50.5 89.0437C52.9804 89.0437 54.9986 91.062 54.9986 93.5424Z" fill="#D4B982"/>
<path d="M33.7623 68.7175H42.1175C42.122 68.7175 42.1264 68.718 42.1309 68.718C42.1354 68.718 42.1398 68.7175 42.1443 68.7175H47.0481C47.8654 68.7175 48.5276 68.055 48.5276 67.238C48.5276 66.4209 47.8654 65.7585 47.0481 65.7585H43.6104V63.2532C43.6104 62.4361 42.9482 61.7737 42.1309 61.7737C41.3136 61.7737 40.6514 62.4361 40.6514 63.2532V65.7585H35.2418V58.4715C35.2418 54.8919 38.1532 51.9795 41.7316 51.9795H59.2686C62.8472 51.9795 65.7584 54.8919 65.7584 58.4715V65.7585H60.3488V63.2532C60.3488 62.4361 59.6866 61.7737 58.8693 61.7737C58.052 61.7737 57.3898 62.4361 57.3898 63.2532V65.7585H53.9524C53.1352 65.7585 52.473 66.4209 52.473 67.238C52.473 68.055 53.1352 68.7175 53.9524 68.7175H58.8563C58.8608 68.7175 58.8651 68.718 58.8697 68.718C58.8742 68.718 58.8786 68.7175 58.8831 68.7175H67.2383C68.0556 68.7175 68.7178 68.055 68.7178 67.238V58.4715C68.7178 53.2601 64.4791 49.0205 59.2689 49.0205H58.1706C60.4861 46.9251 61.9435 43.8979 61.9435 40.5365C61.9435 34.2268 56.8102 29.0935 50.5005 29.0935C44.1908 29.0935 39.0575 34.2268 39.0575 40.5365C39.0575 43.8979 40.5149 46.9251 42.8304 49.0205H41.732C36.5219 49.0205 32.2832 53.2601 32.2832 58.4715V67.238C32.2828 68.055 32.9452 68.7175 33.7623 68.7175ZM42.0163 40.5365C42.0163 35.8585 45.8221 32.0525 50.5003 32.0525C55.1784 32.0525 58.9843 35.8583 58.9843 40.5365C58.9843 45.2146 55.1784 49.0205 50.5003 49.0205C45.8221 49.0205 42.0163 45.2146 42.0163 40.5365Z" fill="#D4B982"/>
</svg>
