<svg width="101" height="101" viewBox="0 0 101 101" fill="none" xmlns="http://www.w3.org/2000/svg">
<path d="M24.4229 20.7129H70.6915C74.8629 20.7129 78.2564 24.1199 78.2564 28.3076V48.5384C78.2564 49.3557 78.9189 50.0179 79.7359 50.0179C80.553 50.0179 81.2154 49.3557 81.2154 48.5384V28.3076C81.2154 22.4883 76.4945 17.7539 70.6915 17.7539H24.4229C23.6058 17.7539 22.9434 18.4161 22.9434 19.2334C22.9434 20.0507 23.6058 20.7129 24.4229 20.7129Z" fill="#D4B982"/>
<path d="M60.4339 66.3909H32.5344C32.1002 66.3909 31.688 66.5817 31.4069 66.9127L23.0237 76.7801L14.6407 66.9125C14.3596 66.5815 13.9473 66.3907 13.5131 66.3907H10.5239C6.35254 66.3907 2.95898 62.9838 2.95898 58.796V28.3076C2.95898 24.1199 6.35254 20.7129 10.5239 20.7129H17.5622C18.3792 20.7129 19.0417 20.0507 19.0417 19.2334C19.0417 18.4161 18.3792 17.7539 17.5622 17.7539H10.5239C4.72096 17.7539 0 22.4883 0 28.3076V58.7962C0 64.6155 4.72096 69.3499 10.5239 69.3499H12.8288L21.8963 80.023C22.1774 80.354 22.5897 80.5447 23.0239 80.5447C23.458 80.5447 23.8703 80.354 24.1514 80.023L33.2189 69.3499H60.4339C61.251 69.3499 61.9134 68.6877 61.9134 67.8704C61.9134 67.0532 61.251 66.3909 60.4339 66.3909Z" fill="#D4B982"/>
<path d="M43.6604 88.2426H30.21C29.393 88.2426 28.7306 88.9048 28.7306 89.7221C28.7306 90.5394 29.393 91.2016 30.21 91.2016H43.6604C45.54 91.2016 47.0692 92.7355 47.0692 94.6212C47.0692 96.5069 45.54 98.041 43.6604 98.041H6.36773C4.48819 98.041 2.95898 96.5069 2.95898 94.6212C2.95898 92.7355 4.48819 91.2016 6.36773 91.2016H7.67659C8.15121 91.2016 8.59703 90.974 8.87518 90.5895L11.4461 87.0369L14.0171 90.5895C14.2952 90.9738 14.7411 91.2016 15.2157 91.2016H23.3691C24.1861 91.2016 24.8486 90.5394 24.8486 89.7221C24.8486 88.9048 24.1861 88.2426 23.3691 88.2426H15.9712L12.6447 83.6459C12.3666 83.2617 11.9208 83.0338 11.4461 83.0338C10.9715 83.0338 10.5257 83.2615 10.2476 83.6459L6.92106 88.2426H6.36773C2.8566 88.2426 0 91.1041 0 94.6212C0 98.1384 2.8566 101 6.36773 101H43.6604C47.1715 101 50.0281 98.1384 50.0281 94.6212C50.0281 91.1041 47.1715 88.2426 43.6604 88.2426Z" fill="#D4B982"/>
<path d="M57.3365 12.7574H62.9019C63.719 12.7574 64.3814 12.0951 64.3814 11.2779C64.3814 10.4606 63.719 9.79838 62.9019 9.79838H57.3365C55.4569 9.79838 53.9277 8.26444 53.9277 6.37878C53.9277 4.49312 55.4569 2.95898 57.3365 2.95898H94.6292C96.5087 2.95898 98.0379 4.49292 98.0379 6.37858C98.0379 8.26425 96.5087 9.79838 94.6292 9.79838H93.3203C92.8457 9.79838 92.3999 10.026 92.1217 10.4105L89.5508 13.9631L86.9798 10.4103C86.7016 10.026 86.2558 9.79818 85.7812 9.79818H69.7431C68.926 9.79818 68.2636 10.4604 68.2636 11.2777C68.2636 12.0949 68.926 12.7572 69.7431 12.7572H85.0257L88.3522 17.3538C88.6303 17.7381 89.0761 17.966 89.5508 17.966C90.0254 17.966 90.4712 17.7383 90.7493 17.3538L94.0758 12.7572H94.6292C98.1403 12.7572 100.997 9.89563 100.997 6.37839C100.997 2.86154 98.1403 0 94.6292 0H57.3365C53.8254 0 50.9688 2.86153 50.9688 6.37878C50.9688 9.89583 53.8254 12.7574 57.3365 12.7574Z" fill="#D4B982"/>
<path d="M21.6709 50.0928C20.8538 50.0928 20.1914 50.7551 20.1914 51.5723C20.1914 52.3896 20.8538 53.0518 21.6709 53.0518H29.5613C30.3784 53.0518 31.0408 52.3896 31.0408 51.5723V43.6817C31.0408 42.8644 30.3784 42.2022 29.5613 42.2022H23.1504V37.2706H29.5613C30.3784 37.2706 31.0408 36.6083 31.0408 35.7911C31.0408 34.9738 30.3784 34.3116 29.5613 34.3116H21.6709C20.8538 34.3116 20.1914 34.9738 20.1914 35.7911V43.6817C20.1914 44.499 20.8538 45.1612 21.6709 45.1612H28.0818V50.0928H21.6709Z" fill="#D4B982"/>
<path d="M44.3543 37.2706C45.1714 37.2706 45.8338 36.6083 45.8338 35.7911C45.8338 34.9738 45.1714 34.3116 44.3543 34.3116H36.4639C35.6468 34.3116 34.9844 34.9738 34.9844 35.7911V51.5723C34.9844 52.3896 35.6468 53.0518 36.4639 53.0518H44.3543C45.1714 53.0518 45.8338 52.3896 45.8338 51.5723C45.8338 50.7551 45.1714 50.0928 44.3543 50.0928H37.9434V45.1612H44.3543C45.1714 45.1612 45.8338 44.499 45.8338 43.6817C45.8338 42.8644 45.1714 42.2022 44.3543 42.2022H37.9434V37.2706H44.3543Z" fill="#D4B982"/>
<path d="M51.2607 34.3116C50.4437 34.3116 49.7812 34.9738 49.7812 35.7911V51.5723C49.7812 52.3896 50.4437 53.0518 51.2607 53.0518H59.1512C59.9682 53.0518 60.6307 52.3896 60.6307 51.5723V35.7911C60.6307 34.9738 59.9682 34.3116 59.1512 34.3116H51.2607ZM57.6717 50.0928H52.7402V37.2706H57.6717V50.0928Z" fill="#D4B982"/>
<path d="M100.997 68.1044C100.997 67.3769 100.468 66.7576 99.7492 66.6438L97.7079 66.3199L96.7336 63.9687L97.9476 62.2941C98.3745 61.7053 98.3099 60.8935 97.7957 60.3795L93.6172 56.2014C93.1023 55.6867 92.2898 55.6226 91.7012 56.0509L90.0301 57.2656L87.6799 56.2923L87.355 54.2502C87.2408 53.5318 86.6212 53.0033 85.8938 53.0033H85.8933L79.9861 53.0057C79.2586 53.0059 78.639 53.5353 78.5254 54.254L78.2021 56.297L75.854 57.2713L74.1814 56.0574C73.5922 55.6297 72.7796 55.694 72.2656 56.2093L68.09 60.3903C67.5762 60.9048 67.5124 61.7167 67.9397 62.305L69.1543 63.9778L68.1812 66.331L66.1413 66.656C65.4228 66.7705 64.8943 67.3903 64.8945 68.1176L64.8969 74.0287C64.8971 74.7562 65.4264 75.3754 66.1448 75.4892L68.1859 75.8129L69.1602 78.1641L67.9462 79.8387C67.5193 80.4276 67.5839 81.2393 68.0979 81.7534L72.2762 85.9317C72.7907 86.4459 73.6032 86.5104 74.1923 86.0822L75.8633 84.8674L78.2133 85.8407L78.5382 87.8828C78.6526 88.6013 79.272 89.1297 79.9994 89.1297H79.9999L85.9071 89.1272C86.6346 89.1268 87.254 88.5975 87.3676 87.8791L87.6911 85.8358L90.0394 84.8615L91.712 86.0757C92.301 86.5033 93.1136 86.4388 93.6278 85.9238L97.8034 81.7427C98.3172 81.2283 98.381 80.4165 97.9539 79.8281L96.7393 78.1551L97.7124 75.8019L99.7524 75.477C100.471 75.3626 100.999 74.7428 100.999 74.0154L100.997 68.1044ZM96.4294 73.0102C95.9213 73.0911 95.4916 73.4303 95.2949 73.9058L93.689 77.7891C93.4925 78.2643 93.5568 78.8076 93.8588 79.2236L94.8181 80.5449L92.4277 82.9387L91.1072 81.9802C90.6904 81.6778 90.1465 81.6137 89.6711 81.811L85.7927 83.4203C85.3174 83.6175 84.9789 84.0474 84.8984 84.5555L84.643 86.1692L81.2623 86.1706L81.0056 84.5583C80.9247 84.0503 80.5858 83.6207 80.1104 83.4238L76.2298 81.8169C76.0475 81.7414 75.8554 81.7045 75.6639 81.7045C75.3559 81.7045 75.0508 81.8005 74.7937 81.9873L73.4748 82.9461L71.083 80.5542L72.0419 79.2313C72.3437 78.8149 72.4076 78.2716 72.2107 77.7966L70.6028 73.9154C70.4057 73.44 69.9759 73.1011 69.4677 73.0206L67.8559 72.765L67.8545 69.3799L69.4652 69.1231C69.9733 69.0422 70.403 68.7029 70.5995 68.2275L72.2054 64.3441C72.4021 63.8689 72.3376 63.3256 72.0353 62.9096L71.076 61.5883L73.4665 59.1947L74.787 60.153C75.2038 60.4558 75.7479 60.5195 76.2231 60.3222L80.1015 58.713C80.5768 58.5157 80.9153 58.0856 80.9957 57.5775L81.251 55.9641L84.6317 55.9629L84.8882 57.5751C84.9691 58.0831 85.308 58.5127 85.7834 58.7096L89.6642 60.3165C90.14 60.5134 90.6837 60.4489 91.1001 60.1463L92.419 59.1876L94.811 61.5794L93.8521 62.9021C93.5503 63.3185 93.4864 63.8618 93.6833 64.3368L95.2916 68.2178C95.4887 68.6932 95.9185 69.0321 96.4267 69.1126L98.0387 69.3683L98.0401 72.7535L96.4294 73.0102Z" fill="#D4B982"/>
<path d="M89.2297 69.5872C88.4126 69.5872 87.7502 70.2494 87.7502 71.0667C87.7502 73.7146 85.596 75.8687 82.9483 75.8687C80.3006 75.8687 78.1465 73.7146 78.1465 71.0667C78.1465 68.4188 80.3006 66.2647 82.9483 66.2647C83.6417 66.2647 84.3103 66.4089 84.935 66.6933C85.6789 67.0322 86.5561 66.7034 86.8946 65.9597C87.2331 65.2158 86.9047 64.3386 86.161 64.0001C85.1486 63.5392 84.0678 63.3055 82.9483 63.3055C78.669 63.3055 75.1875 66.787 75.1875 71.0665C75.1875 75.346 78.669 78.8275 82.9483 78.8275C87.2276 78.8275 90.7092 75.346 90.7092 71.0665C90.7092 70.2494 90.0467 69.5872 89.2297 69.5872Z" fill="#D4B982"/>
</svg>
