<svg width="101" height="101" viewBox="0 0 101 101" fill="none" xmlns="http://www.w3.org/2000/svg">
<path d="M86.4793 14.5208C82.3857 10.4047 77.5164 7.14136 72.1532 4.91976C66.79 2.69816 61.0395 1.56238 55.2344 1.57817C54.8158 1.57817 54.4144 1.74443 54.1185 2.04039C53.8225 2.33634 53.6562 2.73775 53.6562 3.15629V20.5157C53.6562 20.9342 53.8225 21.3356 54.1185 21.6316C54.4144 21.9275 54.8158 22.0938 55.2344 22.0938C61.5104 22.1008 67.5274 24.597 71.9652 29.0348C76.403 33.4727 78.8993 39.4896 78.9062 45.7657C78.9062 46.1842 79.0725 46.5856 79.3685 46.8816C79.6644 47.1775 80.0658 47.3438 80.4844 47.3438H97.8437C98.2623 47.3438 98.6637 47.1775 98.9597 46.8816C99.2556 46.5856 99.4219 46.1842 99.4219 45.7657C99.4377 39.9606 98.3019 34.21 96.0803 28.8468C93.8587 23.4836 90.5954 18.6143 86.4793 14.5208ZM82.0171 44.1875C81.6213 37.6322 78.8388 31.4488 74.195 26.805C69.5513 22.1613 63.3678 19.3787 56.8125 18.9829V4.764C78.1843 5.57674 95.4233 22.8158 96.236 44.1875H82.0171Z" fill="#D4B982"/>
<path d="M71.0156 48.9219C70.5971 48.9219 70.1957 49.0881 69.8997 49.3841C69.6038 49.6801 69.4375 50.0815 69.4375 50.5C69.4375 50.9185 69.6038 51.3199 69.8997 51.6159C70.1957 51.9119 70.5971 52.0781 71.0156 52.0781H88.375C88.7935 52.0781 89.1949 51.9119 89.4909 51.6159C89.7869 51.3199 89.9531 50.9185 89.9531 50.5C89.9531 50.0815 89.7869 49.6801 89.4909 49.3841C89.1949 49.0881 88.7935 48.9219 88.375 48.9219H71.0156Z" fill="#D4B982"/>
<path d="M50.5 31.5625C50.9185 31.5625 51.3199 31.3962 51.6159 31.1003C51.9119 30.8043 52.0781 30.4029 52.0781 29.9844V12.625C52.0781 12.2065 51.9119 11.8051 51.6159 11.5091C51.3199 11.2131 50.9185 11.0469 50.5 11.0469C50.0815 11.0469 49.6801 11.2131 49.3841 11.5091C49.0881 11.8051 48.9219 12.2065 48.9219 12.625V29.9844C48.9219 30.4029 49.0881 30.8043 49.3841 31.1003C49.6801 31.3962 50.0815 31.5625 50.5 31.5625Z" fill="#D4B982"/>
<path d="M3.15625 11.0469H9.46875C9.88729 11.0469 10.2887 10.8806 10.5847 10.5847C10.8806 10.2887 11.0469 9.88729 11.0469 9.46875V3.15625C11.0469 2.73771 10.8806 2.3363 10.5847 2.04035C10.2887 1.74439 9.88729 1.57813 9.46875 1.57812H3.15625C2.73771 1.57813 2.3363 1.74439 2.04035 2.04035C1.74439 2.3363 1.57813 2.73771 1.57812 3.15625V9.46875C1.57813 9.88729 1.74439 10.2887 2.04035 10.5847C2.3363 10.8806 2.73771 11.0469 3.15625 11.0469ZM4.73438 4.73438H7.89062V7.89062H4.73438V4.73438Z" fill="#D4B982"/>
<path d="M3.15625 15.7812H17.3594C17.7779 15.7812 18.1793 15.615 18.4753 15.319C18.7712 15.0231 18.9375 14.6217 18.9375 14.2031C18.9375 13.7846 18.7712 13.3832 18.4753 13.0872C18.1793 12.7913 17.7779 12.625 17.3594 12.625H3.15625C2.73771 12.625 2.3363 12.7913 2.04035 13.0872C1.74439 13.3832 1.57813 13.7846 1.57812 14.2031C1.57813 14.6217 1.74439 15.0231 2.04035 15.319C2.3363 15.615 2.73771 15.7812 3.15625 15.7812Z" fill="#D4B982"/>
<path d="M3.15625 20.5156H11.0469C11.4654 20.5156 11.8668 20.3494 12.1628 20.0534C12.4587 19.7574 12.625 19.356 12.625 18.9375C12.625 18.519 12.4587 18.1176 12.1628 17.8216C11.8668 17.5256 11.4654 17.3594 11.0469 17.3594H3.15625C2.73771 17.3594 2.3363 17.5256 2.04035 17.8216C1.74439 18.1176 1.57813 18.519 1.57812 18.9375C1.57813 19.356 1.74439 19.7574 2.04035 20.0534C2.3363 20.3494 2.73771 20.5156 3.15625 20.5156Z" fill="#D4B982"/>
<path d="M97.8438 89.9531H91.5312C91.1127 89.9531 90.7113 90.1194 90.4153 90.4153C90.1194 90.7113 89.9531 91.1127 89.9531 91.5312V97.8438C89.9531 98.2623 90.1194 98.6637 90.4153 98.9597C90.7113 99.2556 91.1127 99.4219 91.5312 99.4219H97.8438C98.2623 99.4219 98.6637 99.2556 98.9597 98.9597C99.2556 98.6637 99.4219 98.2623 99.4219 97.8438V91.5312C99.4219 91.1127 99.2556 90.7113 98.9597 90.4153C98.6637 90.1194 98.2623 89.9531 97.8438 89.9531ZM96.2656 96.2656H93.1094V93.1094H96.2656V96.2656Z" fill="#D4B982"/>
<path d="M86.7974 93.1094H79.5597L74.9043 88.4519C75.6223 87.8187 76.3266 87.1638 77.0111 86.4793C81.1272 82.3857 84.3905 77.5164 86.6121 72.1532C88.8337 66.79 89.9695 61.0395 89.9537 55.2344C89.9537 54.8158 89.7874 54.4144 89.4915 54.1185C89.1955 53.8225 88.7941 53.6562 88.3755 53.6562H71.0162C70.5976 53.6562 70.1962 53.8225 69.9003 54.1185C69.6043 54.4144 69.438 54.8158 69.438 55.2344C69.438 59.9162 68.0497 64.4929 65.4486 68.3858C62.8475 72.2786 59.1505 75.3127 54.825 77.1043C50.4995 78.896 45.7399 79.3648 41.148 78.4514C36.5561 77.538 32.3382 75.2835 29.0276 71.9729C25.7171 68.6623 23.4625 64.4444 22.5491 59.8525C21.6358 55.2606 22.1045 50.501 23.8962 46.1755C25.6879 41.8501 28.722 38.153 32.6148 35.5519C36.5076 32.9508 41.0843 31.5625 45.7662 31.5625C46.1847 31.5625 46.5861 31.3962 46.8821 31.1003C47.178 30.8043 47.3443 30.4029 47.3443 29.9844V12.625C47.3443 12.2065 47.178 11.8051 46.8821 11.5091C46.5861 11.2131 46.1847 11.0469 45.7662 11.0469C40.8899 11.0414 36.0462 11.8419 31.4309 13.416L23.2108 5.19598C22.9145 4.90024 22.5129 4.73422 22.0943 4.73438H14.2037C13.7851 4.73438 13.3837 4.90064 13.0878 5.1966C12.7918 5.49255 12.6255 5.89396 12.6255 6.3125C12.6255 6.73105 12.7918 7.13245 13.0878 7.4284C13.3837 7.72436 13.7851 7.89062 14.2037 7.89062H21.4414L28.2115 14.6608C22.4758 17.1436 17.3319 20.8146 13.1192 25.4315C8.90654 30.0484 5.72094 35.5063 3.77266 41.4449C1.82438 47.3834 1.15771 53.6677 1.81666 59.8829C2.47561 66.098 4.4452 72.1028 7.59543 77.5008C10.7457 82.8988 15.0049 87.5674 20.092 91.1983C25.1791 94.8292 30.9785 97.34 37.1073 98.5649C43.2361 99.7898 49.555 99.7009 55.6469 98.3042C61.7388 96.9074 67.4653 94.2346 72.4483 90.4621L77.7903 95.804C78.0866 96.0998 78.4882 96.2658 78.9068 96.2656H86.7974C87.216 96.2656 87.6174 96.0994 87.9133 95.8034C88.2093 95.5074 88.3755 95.106 88.3755 94.6875C88.3755 94.269 88.2093 93.8676 87.9133 93.5716C87.6174 93.2756 87.216 93.1094 86.7974 93.1094ZM68.9764 82.5241C68.6803 82.228 68.2787 82.0616 67.8599 82.0616C67.4411 82.0616 67.0395 82.228 66.7434 82.5241C66.4473 82.8202 66.2809 83.2218 66.2809 83.6406C66.2809 84.0594 66.4473 84.461 66.7434 84.7571L70.1778 88.1915C63.123 93.4427 54.5608 96.2746 45.7662 96.2656C23.1418 96.2656 4.73492 77.8588 4.73492 55.2344C4.73492 37.948 15.48 23.1255 30.6418 17.0931L32.0247 18.4759C32.1713 18.6225 32.3453 18.7388 32.5369 18.8182C32.7285 18.8975 32.9338 18.9384 33.1412 18.9384C33.3485 18.9384 33.5539 18.8975 33.7454 18.8182C33.937 18.7388 34.1111 18.6225 34.2577 18.4759C34.4043 18.3293 34.5206 18.1552 34.6 17.9636C34.6793 17.7721 34.7202 17.5667 34.7202 17.3594C34.7202 17.152 34.6793 16.9467 34.6 16.7551C34.5206 16.5635 34.4043 16.3895 34.2577 16.2429L33.9539 15.9391C37.2787 14.9369 40.7179 14.3634 44.188 14.2327V28.4516C30.127 29.2722 18.938 40.9721 18.938 55.2344C18.938 70.0273 30.9732 82.0625 45.7662 82.0625C60.0285 82.0625 71.7283 70.8736 72.5489 56.8125H86.7678C86.5527 62.4164 85.1889 67.9165 82.761 72.9718C80.3331 78.0271 76.8929 82.5299 72.6535 86.2011L68.9764 82.5241Z" fill="#D4B982"/>
<path d="M97.8438 85.2188H83.6406C83.2221 85.2188 82.8207 85.385 82.5247 85.681C82.2288 85.9769 82.0625 86.3783 82.0625 86.7969C82.0625 87.2154 82.2288 87.6168 82.5247 87.9128C82.8207 88.2087 83.2221 88.375 83.6406 88.375H97.8438C98.2623 88.375 98.6637 88.2087 98.9597 87.9128C99.2556 87.6168 99.4219 87.2154 99.4219 86.7969C99.4219 86.3783 99.2556 85.9769 98.9597 85.681C98.6637 85.385 98.2623 85.2188 97.8438 85.2188Z" fill="#D4B982"/>
<path d="M97.8438 80.4844H89.9531C89.5346 80.4844 89.1332 80.6506 88.8372 80.9466C88.5413 81.2426 88.375 81.644 88.375 82.0625C88.375 82.481 88.5413 82.8824 88.8372 83.1784C89.1332 83.4744 89.5346 83.6406 89.9531 83.6406H97.8438C98.2623 83.6406 98.6637 83.4744 98.9597 83.1784C99.2556 82.8824 99.4219 82.481 99.4219 82.0625C99.4219 81.644 99.2556 81.2426 98.9597 80.9466C98.6637 80.6506 98.2623 80.4844 97.8438 80.4844Z" fill="#D4B982"/>
</svg>
