<svg width="101" height="101" viewBox="0 0 101 101" fill="none" xmlns="http://www.w3.org/2000/svg">
<g clip-path="url(#clip0)">
<path d="M54.9089 95.1879C54.088 95.1879 53.4225 94.5224 53.4225 93.7015V89.7492C53.4225 89.1832 52.962 88.7226 52.396 88.7226H48.4056C47.8396 88.7226 47.379 89.1832 47.379 89.7492V93.7015C47.379 94.5224 46.7135 95.1879 45.8926 95.1879C45.0717 95.1879 44.4062 94.5224 44.4062 93.7015V89.7492C44.4062 87.544 46.2004 85.7499 48.4056 85.7499H52.396C54.6011 85.7499 56.3953 87.544 56.3953 89.7492V93.7015C56.3953 94.5224 55.73 95.1879 54.9089 95.1879Z" fill="#D4B982"/>
<path d="M64.6924 40.8545C64.2041 40.1948 63.2732 40.0563 62.6133 40.5444C61.9535 41.0329 61.8148 41.9638 62.3031 42.6235L69.684 52.5923C70.5051 53.7011 70.4456 55.3712 69.5489 56.3946L61.5968 65.4696H39.2062L31.2541 56.3946C30.3574 55.3712 30.2979 53.7011 31.119 52.5923L45.7728 32.8006V44.078C43.9152 45.5057 42.8294 47.6893 42.8294 50.0726C42.8294 54.2479 46.2262 57.6447 50.4015 57.6447C54.5768 57.6447 57.9736 54.2479 57.9736 50.0726C57.9736 47.7965 56.9607 45.671 55.2284 44.2391V33.0684L58.4923 37.4765C58.9808 38.1365 59.9117 38.275 60.5714 37.7867C61.2312 37.2982 61.3699 36.3673 60.8816 35.7076L54.5061 27.0965C53.5025 25.741 52.0064 24.9635 50.4017 24.9635C48.797 24.9635 47.3009 25.741 46.2973 27.0965L28.7299 50.8235C27.0824 53.0487 27.2065 56.286 29.0186 58.354L35.6504 65.922C33.9944 66.6941 32.8433 68.3737 32.8433 70.3181V77.4093C32.8433 79.5801 34.2776 81.4222 36.2483 82.0382L36.6538 93.7535C36.6815 94.5566 37.3411 95.1886 38.1384 95.1886C38.1558 95.1886 38.1733 95.1884 38.1907 95.1878C39.0112 95.1592 39.6531 94.4714 39.6247 93.6509L39.2304 82.2578H61.7712L61.3768 93.6509C61.3485 94.4714 61.9906 95.1592 62.8109 95.1878C62.8283 95.1884 62.8458 95.1886 62.8632 95.1886C63.6603 95.1886 64.32 94.5566 64.3478 93.7535L64.7556 81.9702C66.6223 81.2954 67.96 79.5058 67.96 77.4093V70.3181C67.96 68.3737 66.809 66.6941 65.153 65.922L71.7848 58.354C73.5969 56.2862 73.721 53.0487 72.0735 50.8235L64.6924 40.8545ZM50.4015 27.936C51.0638 27.936 51.673 28.266 52.1166 28.8651L52.2557 29.053V44.986C52.2557 45.4861 52.5072 45.9528 52.925 46.2277C54.2248 47.083 55.0009 48.5204 55.0009 50.0722C55.0009 52.6083 52.9376 54.6716 50.4015 54.6716C47.8654 54.6716 45.8021 52.6083 45.8021 50.0722C45.8021 48.4469 46.6341 46.974 48.0277 46.1319C48.4732 45.8628 48.7455 45.3802 48.7455 44.8598V28.7932C49.1835 28.2414 49.7673 27.936 50.4015 27.936ZM64.9873 77.4089C64.9873 78.443 64.1458 79.2845 63.1117 79.2845H37.6915C36.6572 79.2845 35.8159 78.443 35.8159 77.4089V70.3177C35.8159 69.2836 36.6574 68.4421 37.6915 68.4421H63.1117C64.146 68.4421 64.9873 69.2836 64.9873 70.3177V77.4089Z" fill="#D4B982"/>
<path d="M20.822 41.3105C21.0172 36.6013 22.327 31.9906 24.6452 27.9049C25.0503 27.1908 24.7999 26.2837 24.0859 25.8786C23.3718 25.4734 22.4648 25.7239 22.0597 26.4379C19.4904 30.9658 18.0459 36.0781 17.8469 41.296C15.2819 41.9482 13.3789 44.2767 13.3789 47.0419C13.3789 50.3107 16.0383 52.9701 19.3071 52.9701C22.5759 52.9701 25.2354 50.3107 25.2354 47.0419C25.2354 44.2965 23.3594 41.9817 20.822 41.3105ZM19.3071 49.9974C17.6775 49.9974 16.3516 48.6716 16.3516 47.0419C16.3516 45.4123 17.6775 44.0864 19.3071 44.0864C20.9368 44.0864 22.2626 45.4123 22.2626 47.0419C22.2626 48.6716 20.9368 49.9974 19.3071 49.9974Z" fill="#D4B982"/>
<path d="M97.8529 5.81213H93.0763C91.341 5.81213 89.9291 7.22398 89.9291 8.95927V9.86119H56.0354V8.95927C56.0354 7.22398 54.6236 5.81213 52.8883 5.81213H48.1117C46.3764 5.81213 44.9646 7.22398 44.9646 8.95927V9.86119H11.0709V8.95927C11.0709 7.22398 9.65901 5.81213 7.92372 5.81213H3.14713C1.41185 5.81213 0 7.22398 0 8.95927V13.7359C0 15.4711 1.41185 16.883 3.14713 16.883H7.92372C9.65901 16.883 11.0709 15.4711 11.0709 13.7359V12.8339H36.8736C32.747 14.7293 29.022 17.4827 25.9631 20.9576C25.4206 21.5738 25.4803 22.5129 26.0966 23.0554C26.379 23.3039 26.7292 23.4262 27.0782 23.4262C27.4904 23.4262 27.9007 23.2557 28.1944 22.922C32.5897 17.9292 38.4943 14.5728 44.9646 13.3518V13.7361C44.9646 15.4713 46.3764 16.8832 48.1117 16.8832H52.8883C54.6236 16.8832 56.0354 15.4713 56.0354 13.7361V13.3516C69.5291 15.8941 79.6106 27.5303 80.1802 41.3103C77.6421 41.981 75.7651 44.2961 75.7651 47.0422C75.7651 50.311 78.4245 52.9704 81.6933 52.9704C84.9621 52.9704 87.6215 50.311 87.6215 47.0422C87.6215 44.2773 85.7188 41.9489 83.1539 41.2965C82.6788 28.7933 75.0849 17.8785 64.1272 12.8343H89.9291V13.7362C89.9291 15.4715 91.341 16.8834 93.0763 16.8834H97.8529C99.5882 16.8834 101 15.4715 101 13.7362V8.95927C101 7.22398 99.5882 5.81213 97.8529 5.81213ZM8.09812 13.7359C8.09812 13.832 8.01984 13.9103 7.92372 13.9103H3.14713C3.05102 13.9103 2.97273 13.832 2.97273 13.7359V8.95927C2.97273 8.86315 3.05102 8.78487 3.14713 8.78487H7.92372C8.01984 8.78487 8.09812 8.86315 8.09812 8.95927V13.7359ZM84.6488 47.0418C84.6488 48.6714 83.3229 49.9972 81.6933 49.9972C80.0636 49.9972 78.7378 48.6714 78.7378 47.0418C78.7378 45.4121 80.0636 44.0863 81.6933 44.0863C83.3229 44.0863 84.6488 45.4121 84.6488 47.0418ZM53.0627 13.7359C53.0627 13.832 52.9844 13.9103 52.8883 13.9103H48.1117C48.0156 13.9103 47.9373 13.832 47.9373 13.7359V8.95927C47.9373 8.86315 48.0156 8.78487 48.1117 8.78487H52.8883C52.9844 8.78487 53.0627 8.86315 53.0627 8.95927V13.7359ZM98.0273 13.7359C98.0273 13.832 97.949 13.9103 97.8529 13.9103H93.0763C92.9802 13.9103 92.9019 13.832 92.9019 13.7359V8.95927C92.9019 8.86315 92.9802 8.78487 93.0763 8.78487H97.8529C97.949 8.78487 98.0273 8.86315 98.0273 8.95927V13.7359Z" fill="#D4B982"/>
</g>
<defs>
<clipPath id="clip0">
<rect width="101" height="101" fill="white"/>
</clipPath>
</defs>
</svg>
