<svg width="151" height="92" viewBox="0 0 151 92" fill="none" xmlns="http://www.w3.org/2000/svg">
<path d="M49 3.23607L53.8863 18.2746C54.1541 19.0986 54.922 19.6565 55.7884 19.6565H71.6008L58.8083 28.9508C58.1073 29.4601 57.814 30.3629 58.0818 31.1869L62.9681 46.2254L50.1756 36.9311C49.4746 36.4218 48.5254 36.4218 47.8244 36.9311L35.0319 46.2254L39.9182 31.1869C40.186 30.3629 39.8927 29.4601 39.1917 28.9508L26.3992 19.6565H42.2116C43.078 19.6565 43.8459 19.0986 44.1137 18.2746L49 3.23607Z" stroke="#D4B982" stroke-width="2"/>
<path d="M27 41.2361L31.8863 56.2746C32.1541 57.0986 32.922 57.6565 33.7884 57.6565H49.6008L36.8083 66.9508C36.1073 67.4601 35.814 68.3629 36.0818 69.1869L40.9681 84.2254L28.1756 74.9311C27.4746 74.4218 26.5254 74.4218 25.8244 74.9311L13.0319 84.2254L17.9182 69.1869C18.186 68.3629 17.8927 67.4601 17.1917 66.9508L4.39916 57.6565H20.2116C21.078 57.6565 21.8459 57.0986 22.1137 56.2746L27 41.2361Z" stroke="#D4B982" stroke-width="2"/>
<path d="M99 3.23607L103.886 18.2746C104.154 19.0986 104.922 19.6565 105.788 19.6565H121.601L108.808 28.9508C108.107 29.4601 107.814 30.3629 108.082 31.1869L112.968 46.2254L100.176 36.9311C99.4746 36.4218 98.5254 36.4218 97.8244 36.9311L85.0319 46.2254L89.9182 31.1869C90.186 30.3629 89.8927 29.4601 89.1917 28.9508L76.3992 19.6565H92.2116C93.078 19.6565 93.8459 19.0986 94.1137 18.2746L99 3.23607Z" stroke="#D4B982" stroke-width="2"/>
<path d="M124 41.2361L128.886 56.2746C129.154 57.0986 129.922 57.6565 130.788 57.6565H146.601L133.808 66.9508C133.107 67.4601 132.814 68.3629 133.082 69.1869L137.968 84.2254L125.176 74.9311C124.475 74.4218 123.525 74.4218 122.824 74.9311L110.032 84.2254L114.918 69.1869C115.186 68.3629 114.893 67.4601 114.192 66.9508L101.399 57.6565H117.212C118.078 57.6565 118.846 57.0986 119.114 56.2746L124 41.2361Z" stroke="#D4B982" stroke-width="2"/>
<path d="M75 41.2361L79.8863 56.2746C80.1541 57.0986 80.922 57.6565 81.7884 57.6565H97.6008L84.8083 66.9508C84.1073 67.4601 83.814 68.3629 84.0818 69.1869L88.9681 84.2254L76.1756 74.9311C75.4746 74.4218 74.5254 74.4218 73.8244 74.9311L61.0319 84.2254L65.9182 69.1869C66.186 68.3629 65.8927 67.4601 65.1917 66.9508L52.3992 57.6565H68.2116C69.078 57.6565 69.8459 57.0986 70.1137 56.2746L75 41.2361Z" stroke="#D4B982" stroke-width="2"/>
</svg>
