<svg width="111" height="109" viewBox="0 0 111 109" fill="none" xmlns="http://www.w3.org/2000/svg">
<path fill-rule="evenodd" clip-rule="evenodd" d="M58.504 18.4801L68.2505 38.0868C68.7387 39.0757 69.6813 39.7659 70.7755 39.9258L92.5957 43.0779C93.4794 43.1957 94.2748 43.6586 94.8177 44.3656C95.8361 45.6912 95.6804 47.5681 94.46 48.7086L78.6451 64.0017C77.8413 64.7592 77.4836 65.8702 77.694 66.9517L81.4815 88.5321C81.7466 90.3206 80.5262 91.9955 78.7377 92.2859C77.997 92.3995 77.2395 92.2817 76.5662 91.9492L57.1321 81.7609C56.1557 81.2306 54.9858 81.2306 54.0095 81.7609L34.4323 92.0039C32.7953 92.8372 30.7921 92.2186 29.8999 90.6152C29.5591 89.9671 29.4412 89.2307 29.5591 88.511L33.3466 66.9307C33.5359 65.8534 33.1782 64.7466 32.3955 63.9849L16.4964 48.696C15.2002 47.4082 15.1918 45.3125 16.4838 44.0163C16.488 44.0121 16.4922 44.0037 16.4964 43.9995C17.0309 43.5155 17.6874 43.1915 18.3986 43.0652L40.223 39.9132C41.3129 39.7406 42.2514 39.0589 42.748 38.0699L52.4861 18.4801C52.8774 17.6848 53.5718 17.0746 54.4135 16.7968C55.2594 16.5149 56.1852 16.5822 56.9806 16.982C57.6329 17.306 58.1673 17.8321 58.504 18.4801Z" stroke="#D4B982" stroke-width="2" stroke-linecap="round" stroke-linejoin="round"/>
<path fill-rule="evenodd" clip-rule="evenodd" d="M58.504 18.4801L68.2505 38.0868C68.7387 39.0757 69.6813 39.7659 70.7755 39.9258L92.5957 43.0779C93.4794 43.1957 94.2748 43.6586 94.8177 44.3656C95.8361 45.6912 95.6804 47.5681 94.46 48.7086L78.6451 64.0017C77.8413 64.7592 77.4836 65.8702 77.694 66.9517L81.4815 88.5321C81.7466 90.3206 80.5262 91.9955 78.7377 92.2859C77.997 92.3995 77.2395 92.2817 76.5662 91.9492L57.1321 81.7609C56.1557 81.2306 54.9858 81.2306 54.0095 81.7609L34.4323 92.0039C32.7953 92.8372 30.7921 92.2186 29.8999 90.6152C29.5591 89.9671 29.4412 89.2307 29.5591 88.511L33.3466 66.9307C33.5359 65.8534 33.1782 64.7466 32.3955 63.9849L16.4964 48.696C15.2002 47.4082 15.1918 45.3125 16.4838 44.0163C16.488 44.0121 16.4922 44.0037 16.4964 43.9995C17.0309 43.5155 17.6874 43.1915 18.3986 43.0652L40.223 39.9132C41.3129 39.7406 42.2514 39.0589 42.748 38.0699L52.4861 18.4801C52.8774 17.6848 53.5718 17.0746 54.4135 16.7968C55.2594 16.5149 56.1852 16.5822 56.9806 16.982C57.6329 17.306 58.1673 17.8321 58.504 18.4801Z" stroke="#D4B982" stroke-width="2" stroke-linecap="round" stroke-linejoin="round"/>
<path fill-rule="evenodd" clip-rule="evenodd" d="M36.6545 23.661L56.0989 33.7273C57.0769 34.2371 58.2452 34.2373 59.2226 33.7202L78.6927 23.3774C79.4755 22.9506 80.3907 22.8544 81.2463 23.1044C82.8511 23.5727 83.8339 25.1793 83.5225 26.8203L79.7918 48.5015C79.5905 49.5875 79.958 50.6953 80.7665 51.4438L96.5677 66.622C97.8379 67.9088 97.8422 69.9811 96.5704 71.2717C96.0398 71.8008 95.3589 72.1531 94.6192 72.2825L72.9192 75.5378C71.8182 75.6865 70.8741 76.3774 70.3993 77.3819L60.6501 97.2097C59.8212 98.8489 57.8393 99.5327 56.1724 98.7657C55.5146 98.444 54.9846 97.9193 54.6547 97.269L44.9664 77.6172C44.483 76.6359 43.5407 75.954 42.4592 75.8016L20.5997 72.8533C18.7932 72.5796 17.5487 70.8933 17.8258 69.0843C17.8267 69.0784 17.8251 69.0691 17.826 69.0633C17.9715 68.3571 18.3099 67.7079 18.8093 67.186L34.5598 51.7534C35.3375 50.9705 35.6922 49.8661 35.5088 48.7748L31.7981 27.2151C31.6442 26.3421 31.8442 25.4396 32.3594 24.7184C32.8755 23.9913 33.6624 23.4988 34.5404 23.3517C35.2581 23.228 36.0001 23.3369 36.6545 23.661Z" stroke="#D4B982" stroke-width="2" stroke-linecap="round" stroke-linejoin="round"/>
</svg>
