<svg width="83" height="67" viewBox="0 0 83 67" fill="none" xmlns="http://www.w3.org/2000/svg">
<path d="M18.9726 51.9485C18.9726 53.997 18.2635 55.7041 16.8454 57.0697C15.4534 58.4091 13.6151 59.1839 11.3302 59.394V62.9394H9.4787V59.4333C7.2989 59.3283 5.43425 58.7899 3.88476 57.8182C2.36152 56.8465 1.29789 55.5202 0.693848 53.8394L2.50597 52.8152C3.45142 55.6778 5.77567 57.2142 9.4787 57.4243V45.7243C8.24435 45.3041 7.2595 44.9232 6.52415 44.5818C5.81506 44.2404 5.06658 43.7808 4.2787 43.203C3.49082 42.6253 2.91304 41.9293 2.54536 41.1152C2.17769 40.2748 1.99385 39.2899 1.99385 38.1606C1.99385 36.1647 2.70294 34.5101 4.12112 33.197C5.5393 31.8839 7.32516 31.1616 9.4787 31.0303V27.4849H11.3302V31.0303C12.9322 31.2142 14.3373 31.7263 15.5454 32.5667C16.7797 33.4071 17.6989 34.5495 18.3029 35.994L16.5302 36.9788C15.611 34.694 13.8777 33.394 11.3302 33.0788V44.2667C12.2757 44.6081 13.0635 44.9101 13.6938 45.1727C14.3242 45.4354 15.007 45.7899 15.7423 46.2364C16.4777 46.6828 17.0555 47.1556 17.4757 47.6546C17.8959 48.1273 18.2504 48.7313 18.5393 49.4667C18.8282 50.202 18.9726 51.0293 18.9726 51.9485ZM4.08173 38.1606C4.08173 39.5788 4.52819 40.6818 5.42112 41.4697C6.31405 42.2313 7.66657 42.9404 9.4787 43.597V33.0394C7.87668 33.1707 6.57668 33.7091 5.5787 34.6546C4.58072 35.6 4.08173 36.7687 4.08173 38.1606ZM11.3302 57.3455C13.0635 57.1616 14.4161 56.5839 15.3878 55.6121C16.3595 54.6142 16.8454 53.3929 16.8454 51.9485C16.8454 50.5041 16.3858 49.3748 15.4666 48.5606C14.5474 47.7465 13.1686 47.0111 11.3302 46.3546V57.3455Z" fill="#D4B982"/>
<path d="M82.9726 51.9485C82.9726 53.997 82.2635 55.7041 80.8454 57.0697C79.4534 58.4091 77.6151 59.1839 75.3302 59.394V62.9394H73.4787V59.4333C71.2989 59.3283 69.4343 58.7899 67.8848 57.8182C66.3615 56.8465 65.2979 55.5202 64.6938 53.8394L66.506 52.8152C67.4514 55.6778 69.7757 57.2142 73.4787 57.4243V45.7243C72.2444 45.3041 71.2595 44.9232 70.5242 44.5818C69.8151 44.2404 69.0666 43.7808 68.2787 43.203C67.4908 42.6253 66.913 41.9293 66.5454 41.1152C66.1777 40.2748 65.9938 39.2899 65.9938 38.1606C65.9938 36.1647 66.7029 34.5101 68.1211 33.197C69.5393 31.8839 71.3252 31.1616 73.4787 31.0303V27.4849H75.3302V31.0303C76.9322 31.2142 78.3373 31.7263 79.5454 32.5667C80.7797 33.4071 81.6989 34.5495 82.3029 35.994L80.5302 36.9788C79.611 34.694 77.8777 33.394 75.3302 33.0788V44.2667C76.2757 44.6081 77.0635 44.9101 77.6938 45.1727C78.3242 45.4354 79.007 45.7899 79.7423 46.2364C80.4777 46.6828 81.0555 47.1556 81.4757 47.6546C81.8959 48.1273 82.2504 48.7313 82.5393 49.4667C82.8282 50.202 82.9726 51.0293 82.9726 51.9485ZM68.0817 38.1606C68.0817 39.5788 68.5282 40.6818 69.4211 41.4697C70.314 42.2313 71.6666 42.9404 73.4787 43.597V33.0394C71.8767 33.1707 70.5767 33.7091 69.5787 34.6546C68.5807 35.6 68.0817 36.7687 68.0817 38.1606ZM75.3302 57.3455C77.0635 57.1616 78.4161 56.5839 79.3878 55.6121C80.3595 54.6142 80.8454 53.3929 80.8454 51.9485C80.8454 50.5041 80.3858 49.3748 79.4666 48.5606C78.5474 47.7465 77.1686 47.0111 75.3302 46.3546V57.3455Z" fill="#D4B982"/>
<path d="M57.5816 46.2729C57.5816 50.0062 56.2725 53.1093 53.6543 55.582C51.0846 58.0062 47.618 59.3881 43.2543 59.7274V66.2729H40.8543V59.8002C36.7331 59.7032 33.218 58.782 30.3089 57.0365C27.3998 55.2911 25.4362 52.8668 24.418 49.7638L26.6725 48.382C27.5452 51.1941 29.218 53.3517 31.6907 54.8547C34.1634 56.3577 37.218 57.1578 40.8543 57.2547V34.1274C39.0119 33.4971 37.5331 32.9638 36.418 32.5274C35.3028 32.0911 34.0422 31.485 32.6362 30.7093C31.2301 29.885 30.1392 29.0365 29.3634 28.1638C28.6362 27.2911 27.9816 26.2002 27.3998 24.8911C26.8665 23.5335 26.5998 22.0305 26.5998 20.382C26.5998 16.7456 27.9574 13.6911 30.6725 11.2184C33.3877 8.74563 36.7816 7.43654 40.8543 7.29109V0.818359H43.2543V7.36381C49.7028 7.89714 54.0422 10.9032 56.2725 16.382L54.0907 17.6184C52.2483 12.9638 48.6362 10.3941 43.2543 9.90927V32.3093C45.5816 33.1335 47.4483 33.8608 48.8543 34.4911C50.2604 35.1214 51.7149 35.9941 53.218 37.1093C54.721 38.1759 55.8119 39.4608 56.4907 40.9638C57.218 42.4668 57.5816 44.2365 57.5816 46.2729ZM29.2907 20.382C29.2907 23.3881 30.2604 25.6668 32.1998 27.2184C34.1392 28.7214 37.024 30.1517 40.8543 31.5093V9.83654C37.3634 9.98199 34.5513 11.0729 32.418 13.1093C30.3331 15.0971 29.2907 17.5214 29.2907 20.382ZM43.2543 57.182C46.9877 56.8426 49.8725 55.679 51.9089 53.6911C53.9452 51.7032 54.9634 49.2305 54.9634 46.2729C54.9634 43.3153 53.9937 41.0365 52.0543 39.4365C50.1149 37.8365 47.1816 36.3335 43.2543 34.9274V57.182Z" fill="#D4B982"/>
</svg>
